<svg id="Composant_60_2" data-name="Composant 60 – 2" xmlns="http://www.w3.org/2000/svg" xmlns:xlink="http://www.w3.org/1999/xlink" width="367" height="296" viewBox="0 0 367 296">
  <defs>
    <linearGradient id="linear-gradient" y1="0.517" x2="1" y2="0.515" gradientUnits="objectBoundingBox">
      <stop offset="0" stop-color="#00e2fe"/>
      <stop offset="0.515" stop-color="blue"/>
      <stop offset="1" stop-color="#f0f"/>
    </linearGradient>
    <linearGradient id="linear-gradient-3" y1="0.5" x2="1" y2="0.5" gradientUnits="objectBoundingBox">
      <stop offset="0" stop-color="#00e2fe"/>
      <stop offset="0.506" stop-color="blue"/>
      <stop offset="1" stop-color="#f0f"/>
    </linearGradient>
    <linearGradient id="linear-gradient-4" x1="1" y1="0.5" x2="0" y2="0.5" gradientUnits="objectBoundingBox">
      <stop offset="0" stop-color="#f0f"/>
      <stop offset="0.502" stop-color="#0002ff"/>
      <stop offset="1" stop-color="aqua"/>
    </linearGradient>
    <linearGradient id="linear-gradient-5" y1="0.67" x2="0.993" y2="0.685" gradientUnits="objectBoundingBox">
      <stop offset="0" stop-color="#00e2fe"/>
      <stop offset="0.13" stop-color="#00e2fe"/>
      <stop offset="0.502" stop-color="blue"/>
      <stop offset="0.895" stop-color="#f0f"/>
      <stop offset="1" stop-color="#f0f"/>
    </linearGradient>
  </defs>
  <rect id="Rectangle_1511" data-name="Rectangle 1511" width="366" height="73" rx="36.5" transform="translate(1)" fill="url(#linear-gradient)"/>
  <text id="Options_de_paiement_" data-name="Options de paiement " transform="translate(52 47)" fill="#fff" font-size="30" font-family="D-DIN-Bold, D-DIN DIN" font-weight="700"><tspan x="0" y="0">Options de paiement </tspan></text>
  <g id="Groupe_2204" data-name="Groupe 2204" transform="translate(-839 -400)">
    <g id="Groupe_2192" data-name="Groupe 2192" transform="translate(527 -492)">
      <rect id="Rectangle_1500" data-name="Rectangle 1500" width="367" height="296" rx="40" transform="translate(312 892)" fill="url(#linear-gradient)"/>
      <rect id="Rectangle_1501" data-name="Rectangle 1501" width="361" height="264" rx="37" transform="translate(315 895)" fill="#fff"/>
      <text id="_2600_HT" data-name="2600€HT" transform="translate(342 1047)" font-size="45" font-family="D-DIN-Bold, D-DIN DIN" font-weight="700"><tspan x="0" y="0">2600</tspan><tspan y="0" font-size="30">€</tspan><tspan y="0" font-size="20">HT</tspan></text>
      <g id="Composant_50_3" data-name="Composant 50 – 3" transform="translate(342 1064)">
        <rect id="Rectangle_1493" data-name="Rectangle 1493" width="185" height="45" rx="22.5" fill="url(#linear-gradient-3)"/>
        <rect id="Rectangle_50" data-name="Rectangle 50" width="181" height="41" rx="20.5" transform="translate(2 2)" fill="#fff"/>
        <text id="Contactez_nous" data-name="Contactez nous" transform="translate(21 30)" font-size="20" font-family="D-DIN-Bold, D-DIN DIN" font-weight="700"><tspan x="0" y="0">Contactez nous</tspan></text>
      </g>
      <rect id="Rectangle_1506" data-name="Rectangle 1506" width="173" height="3" transform="matrix(0.978, -0.208, 0.208, 0.978, 325.271, 1046.782)" fill="url(#linear-gradient-4)"/>
      <path id="Tracé_909" data-name="Tracé 909" d="M2.252,13.669v7.876H32.546v-8.71h-17.8L27.775-4.053a26.623,26.623,0,0,0,3.56-5.907,16.035,16.035,0,0,0,1.212-6.286v-1.288a13.723,13.723,0,0,0-1.856-7.043,13.515,13.515,0,0,0-5.3-5.074,16.326,16.326,0,0,0-7.99-1.893A17.449,17.449,0,0,0,9.22-29.727a12.948,12.948,0,0,0-5.339,5,14.161,14.161,0,0,0-1.856,7.271v1.818h9.618v-1.212a6.841,6.841,0,0,1,1.439-4.62,4.932,4.932,0,0,1,3.938-1.666A5.164,5.164,0,0,1,21-21.548a6.094,6.094,0,0,1,1.477,4.317v1.06A12.473,12.473,0,0,1,19.6-8.824Zm41.314,4.2q3.825,4.506,11.777,4.506T67.12,17.835q3.825-4.544,3.825-13.481V-14.126q0-8.634-3.825-13.026T55.343-31.545q-7.649,0-11.625,4.431T39.741-14.126V4.354Q39.741,13.366,43.566,17.872Zm16.283-6.438q-1.174,2.31-4.506,2.31-3.257,0-4.431-2.31T49.738,3.521V-12.687q0-5.6,1.136-7.876t4.468-2.272q3.332,0,4.506,2.272t1.174,7.876V3.521Q61.023,9.125,59.849,11.435Zm22.493,6.438q3.825,4.506,11.777,4.506T105.9,17.835q3.825-4.544,3.825-13.481V-14.126q0-8.634-3.825-13.026T94.119-31.545q-7.649,0-11.625,4.431T78.518-14.126V4.354Q78.518,13.366,82.342,17.872Zm16.283-6.438q-1.174,2.31-4.506,2.31-3.257,0-4.431-2.31T88.515,3.521V-12.687q0-5.6,1.136-7.876t4.468-2.272q3.332,0,4.506,2.272T99.8-12.687V3.521Q99.8,9.125,98.626,11.435Zm22.493,6.438q3.825,4.506,11.777,4.506t11.777-4.544Q148.5,13.29,148.5,4.354V-14.126q0-8.634-3.825-13.026T132.9-31.545q-7.649,0-11.625,4.431t-3.976,12.989V4.354Q117.294,13.366,121.119,17.872ZM137.4,11.435q-1.174,2.31-4.506,2.31-3.257,0-4.431-2.31t-1.174-7.914V-12.687q0-5.6,1.136-7.876t4.468-2.272q3.332,0,4.506,2.272t1.174,7.876V3.521Q138.576,9.125,137.4,11.435ZM159.151,19q2.777,3.105,7.978,3.105a10.9,10.9,0,0,0,7.144-2.3,9.431,9.431,0,0,0,3.206-6.791h-5.5a4.8,4.8,0,0,1-1.54,2.8,4.747,4.747,0,0,1-3.105.934,4.147,4.147,0,0,1-3.635-1.641,7.808,7.808,0,0,1-1.161-4.569V9.377h7.977l.707-4.09h-8.684V2.763h9.038l.707-4.09h-9.745V-2.488q0-5.958,4.746-5.958a4.117,4.117,0,0,1,4.494,3.686h5.655A9.321,9.321,0,0,0,174.4-11.4a10.534,10.534,0,0,0-7.22-2.4q-5.2,0-8,3.029a11.646,11.646,0,0,0-2.8,8.23v1.212h-2.726v4.09h2.726V5.288h-2.726v4.09h2.726v1.111Q156.374,15.891,159.151,19ZM198.516-1.68h-4.409V7.88H186.4V-1.68h-4.409V21.546H186.4V11.717h7.708v9.829h4.409ZM217,2.157V-1.68H200.7V2.157h5.924V21.546h4.443V2.157Zm5.386,3.029V8.452H224.7V5.22L227.3,6.7l1.077-1.818-2.726-1.548,2.693-1.548L227.33-.031,224.7,1.484V-1.68h-2.323V1.45L219.756-.031l-1.043,1.818,2.693,1.548-2.693,1.548L219.756,6.7Z" transform="translate(342 961.116)" fill="url(#linear-gradient-5)"/>
    </g>
    <path id="Tracé_910" data-name="Tracé 910" d="M3.08-9.72v1.94H4.46V-9.7L6-8.82,6.64-9.9l-1.62-.92,1.6-.92-.6-1.08-1.56.9V-13.8H3.08v1.86l-1.56-.88L.9-11.74l1.6.92L.9-9.9l.62,1.08Zm8.26-1.8h6.14V-13.8H8.72V0h2.62V-5.7H16.6V-7.98H11.34Zm7.8,1.12V0H21.6V-10.4Zm-.04-3.4v1.98h2.52V-13.8Zm4.76,3.4V0h2.48V-6.48a1.863,1.863,0,0,1,.47-1.36A1.6,1.6,0,0,1,28-8.32a1.523,1.523,0,0,1,1.18.48,1.941,1.941,0,0,1,.44,1.36V0H32.1V-6.78a4,4,0,0,0-.88-2.74,3.129,3.129,0,0,0-2.48-1,3.486,3.486,0,0,0-1.35.27,3,3,0,0,0-1.11.79v-.94Zm17.2.81a4.47,4.47,0,0,0-3.04-.93,4.292,4.292,0,0,0-2.8.85,2.825,2.825,0,0,0-1.04,2.31v.08h2.3v-.06a1.162,1.162,0,0,1,.41-.93A1.653,1.653,0,0,1,38-8.62a1.467,1.467,0,0,1,1.66,1.66v.82h-2.2a3.887,3.887,0,0,0-2.62.81,2.765,2.765,0,0,0-.94,2.21,3.175,3.175,0,0,0,.88,2.38,3.4,3.4,0,0,0,2.48.86,3.49,3.49,0,0,0,1.39-.24A3.392,3.392,0,0,0,39.72-.9V0h2.4V-6.84A3.464,3.464,0,0,0,41.06-9.59ZM39.23-2.33a1.884,1.884,0,0,1-1.41.45q-1.52,0-1.52-1.3,0-1.26,1.56-1.26h1.8v.74A1.918,1.918,0,0,1,39.23-2.33Zm5.05-8.07V0h2.48V-6.48a1.863,1.863,0,0,1,.47-1.36,1.6,1.6,0,0,1,1.19-.48,1.523,1.523,0,0,1,1.18.48,1.941,1.941,0,0,1,.44,1.36V0h2.48V-6.78a4,4,0,0,0-.88-2.74,3.129,3.129,0,0,0-2.48-1,3.486,3.486,0,0,0-1.35.27,3,3,0,0,0-1.11.79v-.94ZM55.63-.94A4.336,4.336,0,0,0,58.72.12a4.274,4.274,0,0,0,3-.99A3.494,3.494,0,0,0,62.8-3.58v-.14H60.44v.12a1.42,1.42,0,0,1-.45,1.12,1.785,1.785,0,0,1-1.23.4,1.737,1.737,0,0,1-1.33-.5,2.421,2.421,0,0,1-.47-1.68V-6.14q0-2.18,1.8-2.18a1.731,1.731,0,0,1,1.23.42,1.509,1.509,0,0,1,.45,1.16v.12H62.8v-.2a3.487,3.487,0,0,0-1.08-2.72,4.3,4.3,0,0,0-3-.98,4.336,4.336,0,0,0-3.09,1.06A4.3,4.3,0,0,0,54.5-6.18v1.94A4.329,4.329,0,0,0,55.63-.94ZM67.06-4.46h6.08V-5.84a4.825,4.825,0,0,0-1.15-3.5,4.143,4.143,0,0,0-3.11-1.18,4.181,4.181,0,0,0-3.14,1.17A4.845,4.845,0,0,0,64.6-5.84v1.26a4.761,4.761,0,0,0,1.18,3.55A4.361,4.361,0,0,0,68.96.12a4.6,4.6,0,0,0,3-.9,2.923,2.923,0,0,0,1.1-2.38v-.1H70.7l-.02.06a1.126,1.126,0,0,1-.46.87,1.918,1.918,0,0,1-1.16.31,2.05,2.05,0,0,1-1.48-.5,2.231,2.231,0,0,1-.52-1.66Zm.47-3.44a1.763,1.763,0,0,1,1.35-.5q1.78,0,1.78,1.98v.26h-3.6v-.06A2.421,2.421,0,0,1,67.53-7.9Zm7.59-2.5V0H77.6V-6.48a1.887,1.887,0,0,1,.46-1.36,1.587,1.587,0,0,1,1.2-.48,1.547,1.547,0,0,1,1.17.47,1.906,1.906,0,0,1,.45,1.37V0h2.48V-6.54a1.832,1.832,0,0,1,.45-1.29,1.563,1.563,0,0,1,1.21-.49,1.547,1.547,0,0,1,1.17.47,1.906,1.906,0,0,1,.45,1.37V0h2.48V-6.78a3.866,3.866,0,0,0-.93-2.74,3.363,3.363,0,0,0-2.59-1,3.847,3.847,0,0,0-2.94,1.3A3.057,3.057,0,0,0,80-10.52a3.378,3.378,0,0,0-1.35.28,3.217,3.217,0,0,0-1.11.78v-.94ZM93.56-4.46h6.08V-5.84a4.825,4.825,0,0,0-1.15-3.5,4.143,4.143,0,0,0-3.11-1.18,4.181,4.181,0,0,0-3.14,1.17A4.845,4.845,0,0,0,91.1-5.84v1.26a4.761,4.761,0,0,0,1.18,3.55A4.361,4.361,0,0,0,95.46.12a4.6,4.6,0,0,0,3-.9,2.923,2.923,0,0,0,1.1-2.38v-.1H97.2l-.02.06a1.126,1.126,0,0,1-.46.87,1.918,1.918,0,0,1-1.16.31,2.05,2.05,0,0,1-1.48-.5,2.231,2.231,0,0,1-.52-1.66Zm.47-3.44a1.763,1.763,0,0,1,1.35-.5q1.78,0,1.78,1.98v.26h-3.6v-.06A2.421,2.421,0,0,1,94.03-7.9Zm7.59-2.5V0h2.48V-6.48a1.863,1.863,0,0,1,.47-1.36,1.6,1.6,0,0,1,1.19-.48,1.523,1.523,0,0,1,1.18.48,1.941,1.941,0,0,1,.44,1.36V0h2.48V-6.78a4,4,0,0,0-.88-2.74,3.129,3.129,0,0,0-2.48-1,3.486,3.486,0,0,0-1.35.27,3,3,0,0,0-1.11.79v-.94Zm13.62,1.74h2V-10.4h-2v-2.9l-2.46.86v2.04h-1.44v1.74h1.44V-3a2.919,2.919,0,0,0,.83,2.19,3.083,3.083,0,0,0,2.25.81h1.18V-2.1h-.78q-1.02,0-1.02-1.06Zm8.72,7.91a4.423,4.423,0,0,0,2.86.87,4.9,4.9,0,0,0,3.02-.87A2.9,2.9,0,0,0,131-3.22a2.677,2.677,0,0,0-.78-2.04,4.171,4.171,0,0,0-2.34-.96l-1.22-.18a2.034,2.034,0,0,1-1.01-.36.889.889,0,0,1-.31-.72.95.95,0,0,1,.4-.8,1.91,1.91,0,0,1,1.16-.3,2.054,2.054,0,0,1,1.19.3.966.966,0,0,1,.43.84v.06h2.3V-7.5a2.613,2.613,0,0,0-.49-1.55,3.236,3.236,0,0,0-1.38-1.08,5.065,5.065,0,0,0-2.05-.39,4.334,4.334,0,0,0-2.79.87,2.849,2.849,0,0,0-1.09,2.35,2.621,2.621,0,0,0,.74,2,4.335,4.335,0,0,0,2.3.96l1.1.18a2.562,2.562,0,0,1,1.14.38.877.877,0,0,1,.34.74.961.961,0,0,1-.46.87,2.4,2.4,0,0,1-1.28.29,2.1,2.1,0,0,1-1.23-.33,1.052,1.052,0,0,1-.47-.91v-.04h-2.32v.08A2.838,2.838,0,0,0,123.96-.75Zm9.71-.19A4.336,4.336,0,0,0,136.76.12a4.271,4.271,0,0,0,3.06-1.06,4.352,4.352,0,0,0,1.12-3.3V-6.18a4.322,4.322,0,0,0-1.12-3.28,4.271,4.271,0,0,0-3.06-1.06,4.336,4.336,0,0,0-3.09,1.06,4.3,4.3,0,0,0-1.13,3.28v1.94A4.329,4.329,0,0,0,133.67-.94Zm4.81-3.32q0,2.18-1.72,2.18Q135-2.08,135-4.26V-6.14q0-2.18,1.76-2.18,1.72,0,1.72,2.18Zm4.44.06q0,4.32,4.12,4.32a4.073,4.073,0,0,0,3.1-1.08,4.562,4.562,0,0,0,1.02-3.24v-6.2h-2.48v6.08a3.365,3.365,0,0,1-.33,1.7,1.415,1.415,0,0,1-1.31.54,1.384,1.384,0,0,1-1.31-.57,3.392,3.392,0,0,1-.33-1.67V-10.4h-2.48ZM153.94-.75a4.423,4.423,0,0,0,2.86.87,4.9,4.9,0,0,0,3.02-.87,2.9,2.9,0,0,0,1.16-2.47,2.677,2.677,0,0,0-.78-2.04,4.171,4.171,0,0,0-2.34-.96l-1.22-.18a2.034,2.034,0,0,1-1.01-.36.889.889,0,0,1-.31-.72.95.95,0,0,1,.4-.8,1.91,1.91,0,0,1,1.16-.3,2.054,2.054,0,0,1,1.19.3.966.966,0,0,1,.43.84v.06h2.3V-7.5a2.613,2.613,0,0,0-.49-1.55,3.236,3.236,0,0,0-1.38-1.08,5.065,5.065,0,0,0-2.05-.39,4.334,4.334,0,0,0-2.79.87A2.849,2.849,0,0,0,153-7.3a2.621,2.621,0,0,0,.74,2,4.335,4.335,0,0,0,2.3.96l1.1.18a2.562,2.562,0,0,1,1.14.38.877.877,0,0,1,.34.74.961.961,0,0,1-.46.87,2.394,2.394,0,0,1-1.28.29,2.1,2.1,0,0,1-1.23-.33,1.052,1.052,0,0,1-.47-.91v-.04h-2.32v.08A2.838,2.838,0,0,0,153.94-.75Zm13.99-.19A4.336,4.336,0,0,0,171.02.12a4.274,4.274,0,0,0,3-.99,3.494,3.494,0,0,0,1.08-2.71v-.14h-2.36v.12a1.42,1.42,0,0,1-.45,1.12,1.785,1.785,0,0,1-1.23.4,1.737,1.737,0,0,1-1.33-.5,2.421,2.421,0,0,1-.47-1.68V-6.14q0-2.18,1.8-2.18a1.731,1.731,0,0,1,1.23.42,1.509,1.509,0,0,1,.45,1.16v.12h2.36v-.2a3.487,3.487,0,0,0-1.08-2.72,4.3,4.3,0,0,0-3-.98,4.336,4.336,0,0,0-3.09,1.06,4.3,4.3,0,0,0-1.13,3.28v1.94A4.329,4.329,0,0,0,167.93-.94Zm10.1,0A4.336,4.336,0,0,0,181.12.12a4.271,4.271,0,0,0,3.06-1.06,4.352,4.352,0,0,0,1.12-3.3V-6.18a4.322,4.322,0,0,0-1.12-3.28,4.271,4.271,0,0,0-3.06-1.06,4.336,4.336,0,0,0-3.09,1.06,4.3,4.3,0,0,0-1.13,3.28v1.94A4.329,4.329,0,0,0,178.03-.94Zm4.81-3.32q0,2.18-1.72,2.18-1.76,0-1.76-2.18V-6.14q0-2.18,1.76-2.18,1.72,0,1.72,2.18Zm4.44-6.14V0h2.48V-6.48a1.863,1.863,0,0,1,.47-1.36,1.6,1.6,0,0,1,1.19-.48,1.523,1.523,0,0,1,1.18.48,1.94,1.94,0,0,1,.44,1.36V0h2.48V-6.78a4,4,0,0,0-.88-2.74,3.129,3.129,0,0,0-2.48-1,3.486,3.486,0,0,0-1.35.27,3,3,0,0,0-1.11.79v-.94ZM198.47-.95A3.187,3.187,0,0,0,200.94.12a2.939,2.939,0,0,0,2.44-1.08V0h2.42V-13.8h-2.46v4.46a2.82,2.82,0,0,0-2.42-1.18,3.162,3.162,0,0,0-2.47,1.06,4.7,4.7,0,0,0-.95,3.22v2.06A4.677,4.677,0,0,0,198.47-.95Zm4.41-1.69a1.588,1.588,0,0,1-1.3.56q-1.6,0-1.6-2.18V-6.14q0-2.18,1.66-2.18a1.514,1.514,0,0,1,1.25.56,2.535,2.535,0,0,1,.45,1.62v1.88A2.5,2.5,0,0,1,202.88-2.64Zm5.18-7.76V0h2.46V-10.4Zm-.04-3.4v1.98h2.52V-13.8ZM216-8.66h2V-10.4h-2v-2.9l-2.46.86v2.04H212.1v1.74h1.44V-3a2.919,2.919,0,0,0,.83,2.19,3.083,3.083,0,0,0,2.25.81h1.18V-2.1h-.78Q216-2.1,216-3.16Zm3.72-1.74V0h2.46V-10.4Zm-.04-3.4v1.98h2.52V-13.8ZM225.39-.94A4.336,4.336,0,0,0,228.48.12a4.271,4.271,0,0,0,3.06-1.06,4.352,4.352,0,0,0,1.12-3.3V-6.18a4.322,4.322,0,0,0-1.12-3.28,4.271,4.271,0,0,0-3.06-1.06,4.336,4.336,0,0,0-3.09,1.06,4.3,4.3,0,0,0-1.13,3.28v1.94A4.329,4.329,0,0,0,225.39-.94Zm4.81-3.32q0,2.18-1.72,2.18-1.76,0-1.76-2.18V-6.14q0-2.18,1.76-2.18,1.72,0,1.72,2.18Zm4.44-6.14V0h2.48V-6.48a1.863,1.863,0,0,1,.47-1.36,1.6,1.6,0,0,1,1.19-.48,1.523,1.523,0,0,1,1.18.48,1.94,1.94,0,0,1,.44,1.36V0h2.48V-6.78A4,4,0,0,0,242-9.52a3.129,3.129,0,0,0-2.48-1,3.486,3.486,0,0,0-1.35.27,3,3,0,0,0-1.11.79v-.94Z" transform="translate(869 641)"/>
  </g>
</svg>
