<svg id="Composant_65_1" data-name="Composant 65 – 1" xmlns="http://www.w3.org/2000/svg" xmlns:xlink="http://www.w3.org/1999/xlink" width="366" height="50" viewBox="0 0 366 50">
  <defs>
    <linearGradient id="linear-gradient" y1="0.517" x2="1" y2="0.515" gradientUnits="objectBoundingBox">
      <stop offset="0" stop-color="#00e2fe"/>
      <stop offset="0.515" stop-color="blue"/>
      <stop offset="1" stop-color="#f0f"/>
    </linearGradient>
    <clipPath id="clip-path">
      <rect width="9.664" height="6.1" fill="none"/>
    </clipPath>
  </defs>
  <g id="Groupe_2233" data-name="Groupe 2233" transform="translate(-576 -1130)">
    <rect id="Rectangle_1527" data-name="Rectangle 1527" width="366" height="50" rx="25" transform="translate(576 1130)" fill="url(#linear-gradient)"/>
    <rect id="Rectangle_1528" data-name="Rectangle 1528" width="362" height="46" rx="23" transform="translate(578 1132)" fill="#fff"/>
    <path id="Tracé_908" data-name="Tracé 908" d="M2.02-.9A4.823,4.823,0,0,0,5.28.12,5.313,5.313,0,0,0,8.74-.91,3.546,3.546,0,0,0,10-3.82a3.391,3.391,0,0,0-.92-2.54,4.893,4.893,0,0,0-2.66-1.2l-1.6-.28a3.584,3.584,0,0,1-1.85-.79,2.07,2.07,0,0,1-.61-1.59,2.273,2.273,0,0,1,.79-1.83,3.315,3.315,0,0,1,2.21-.67q2.74,0,2.98,2.58H9.78a4.141,4.141,0,0,0-1.39-2.89,4.623,4.623,0,0,0-3.01-.95,4.855,4.855,0,0,0-3.22,1.02A3.5,3.5,0,0,0,.94-10.12a3.249,3.249,0,0,0,.9,2.45A4.734,4.734,0,0,0,4.42-6.52l1.56.26a3.794,3.794,0,0,1,1.94.8,2.2,2.2,0,0,1,.64,1.72,2.333,2.333,0,0,1-.81,1.92,3.678,3.678,0,0,1-2.37.66q-3,0-3.28-2.74H.66A4.3,4.3,0,0,0,2.02-.9ZM13.46-4.8H19.8V-6a4.4,4.4,0,0,0-1.05-3.23,3.771,3.771,0,0,0-2.79-1.05,3.805,3.805,0,0,0-2.8,1.05A4.373,4.373,0,0,0,12.1-6v1.76a4.5,4.5,0,0,0,1.06,3.3A3.838,3.838,0,0,0,16,.12a4.025,4.025,0,0,0,2.73-.86,2.871,2.871,0,0,0,.99-2.28v-.1H18.4v.06a1.791,1.791,0,0,1-.61,1.44,2.524,2.524,0,0,1-1.69.52,2.644,2.644,0,0,1-1.94-.69,3.326,3.326,0,0,1-.7-2.41Zm.68-3.57a2.48,2.48,0,0,1,1.82-.67,2.5,2.5,0,0,1,1.82.64,3.026,3.026,0,0,1,.66,2.22v.36H13.46v-.22A3.211,3.211,0,0,1,14.14-8.37Zm2.3-5.57-1.98,2.5h1.26l2.4-2.5ZM23.12-.68A2.432,2.432,0,0,0,24.98,0h.96V-1.24h-.82a1.208,1.208,0,0,1-.98-.36,1.767,1.767,0,0,1-.3-1.14V-13.8H22.48V-2.66A2.785,2.785,0,0,0,23.12-.68ZM28.98-4.8h6.34V-6a4.4,4.4,0,0,0-1.05-3.23,3.771,3.771,0,0,0-2.79-1.05,3.805,3.805,0,0,0-2.8,1.05A4.373,4.373,0,0,0,27.62-6v1.76a4.5,4.5,0,0,0,1.06,3.3A3.838,3.838,0,0,0,31.52.12a4.025,4.025,0,0,0,2.73-.86,2.871,2.871,0,0,0,.99-2.28v-.1H33.92v.06a1.791,1.791,0,0,1-.61,1.44,2.524,2.524,0,0,1-1.69.52,2.644,2.644,0,0,1-1.94-.69,3.326,3.326,0,0,1-.7-2.41Zm.68-3.57a2.48,2.48,0,0,1,1.82-.67,2.5,2.5,0,0,1,1.82.64,3.026,3.026,0,0,1,.66,2.22v.36H28.98v-.22A3.211,3.211,0,0,1,29.66-8.37Zm9.09,7.5a4.088,4.088,0,0,0,2.89.99A3.907,3.907,0,0,0,44.36-.8a3.15,3.15,0,0,0,1.02-2.46v-.08H44.06v.1a1.988,1.988,0,0,1-.64,1.58,2.582,2.582,0,0,1-1.76.56,2.655,2.655,0,0,1-1.93-.67,3.213,3.213,0,0,1-.69-2.35V-6.04a3.15,3.15,0,0,1,.7-2.33,2.691,2.691,0,0,1,1.94-.67,2.551,2.551,0,0,1,1.74.56,1.988,1.988,0,0,1,.64,1.58v.1h1.32v-.1a3.165,3.165,0,0,0-1.01-2.46,3.929,3.929,0,0,0-2.75-.92,4.034,4.034,0,0,0-2.87,1,4.143,4.143,0,0,0-1.07,3.16v2.08A4.137,4.137,0,0,0,38.75-.87ZM50.2-9.06h2.28v-1.08H50.2V-13.1l-1.38.64v2.32H47.24v1.08h1.58v6.54a2.545,2.545,0,0,0,.65,1.85A2.4,2.4,0,0,0,51.28,0H52.3V-1.2h-.8q-1.3,0-1.3-1.38Zm4.82-1.08V0h1.36V-10.14Zm-.04-3.46v1.8h1.44v-1.8ZM60.28-.87a3.994,3.994,0,0,0,2.84.99,3.878,3.878,0,0,0,2.79-1,4.19,4.19,0,0,0,1.05-3.16V-6.12a4.19,4.19,0,0,0-1.05-3.16,3.878,3.878,0,0,0-2.79-1,3.97,3.97,0,0,0-2.84,1,4.166,4.166,0,0,0-1.06,3.16v2.08A4.161,4.161,0,0,0,60.28-.87Zm4.65-.9a2.446,2.446,0,0,1-1.81.67,2.535,2.535,0,0,1-1.86-.67,3.245,3.245,0,0,1-.68-2.35V-6.04a3.211,3.211,0,0,1,.68-2.33,2.535,2.535,0,0,1,1.86-.67,2.446,2.446,0,0,1,1.81.67,3.244,3.244,0,0,1,.67,2.33v1.92A3.278,3.278,0,0,1,64.93-1.77Zm4.71-8.37V0H71V-6.46a2.631,2.631,0,0,1,.65-1.91,2.3,2.3,0,0,1,1.73-.67,2.245,2.245,0,0,1,1.72.66,2.7,2.7,0,0,1,.62,1.92V0h1.36V-6.66a3.779,3.779,0,0,0-.87-2.65,3.206,3.206,0,0,0-2.49-.95,3.635,3.635,0,0,0-1.59.34A2.779,2.779,0,0,0,70.98-8.9v-1.24Zm10.44,0V0h1.36V-6.46a2.631,2.631,0,0,1,.65-1.91,2.3,2.3,0,0,1,1.73-.67,2.245,2.245,0,0,1,1.72.66,2.7,2.7,0,0,1,.62,1.92V0h1.36V-6.66a3.779,3.779,0,0,0-.87-2.65,3.206,3.206,0,0,0-2.49-.95,3.635,3.635,0,0,0-1.59.34A2.779,2.779,0,0,0,81.42-8.9v-1.24ZM91.56-4.8H97.9V-6a4.4,4.4,0,0,0-1.05-3.23,3.771,3.771,0,0,0-2.79-1.05,3.805,3.805,0,0,0-2.8,1.05A4.373,4.373,0,0,0,90.2-6v1.76a4.5,4.5,0,0,0,1.06,3.3A3.838,3.838,0,0,0,94.1.12a4.025,4.025,0,0,0,2.73-.86,2.871,2.871,0,0,0,.99-2.28v-.1H96.5v.06a1.791,1.791,0,0,1-.61,1.44,2.524,2.524,0,0,1-1.69.52,2.644,2.644,0,0,1-1.94-.69,3.326,3.326,0,0,1-.7-2.41Zm.68-3.57a2.48,2.48,0,0,1,1.82-.67,2.5,2.5,0,0,1,1.82.64,3.026,3.026,0,0,1,.66,2.22v.36H91.56v-.22A3.211,3.211,0,0,1,92.24-8.37Zm8.34-1.77V0h1.36V-6.42a2.7,2.7,0,0,1,.65-1.88,2.171,2.171,0,0,1,1.69-.72,3.27,3.27,0,0,1,1.04.16v-1.36a4.494,4.494,0,0,0-.74-.06,3.227,3.227,0,0,0-1.55.37,2.748,2.748,0,0,0-1.11,1.13v-1.36Z" transform="translate(606 1162)"/>
  </g>
  <g id="Composant_156_1" data-name="Composant 156 – 1" transform="translate(336 22)" clip-path="url(#clip-path)">
    <path id="Tracé_36" data-name="Tracé 36" d="M6.832,8.1,2,3.4,3.439,2,6.832,5.3,10.225,2l1.439,1.4Z" transform="translate(-2 -2)"/>
  </g>
</svg>
