<svg id="Composant_58_1" data-name="Composant 58 – 1" xmlns="http://www.w3.org/2000/svg" width="100" height="100.022" viewBox="0 0 100 100.022">
  <g id="Groupe_31" data-name="Groupe 31">
    <path id="Tracé_76" data-name="Tracé 76" d="M-1512.987,750.092a58.484,58.484,0,0,0-4.918-23.555h-1.911a47.84,47.84,0,0,1,3.483,17.959v2.05h-21.242v3.546Z" transform="translate(1612.987 -650.092)"/>
    <path id="Tracé_77" data-name="Tracé 77" d="M-1691.4,563.076h-3.094v15.958h3.422a27.089,27.089,0,0,1-1.368-8.492A27.258,27.258,0,0,1-1691.4,563.076Z" transform="translate(1716.675 -542.079)"/>
    <path id="Tracé_78" data-name="Tracé 78" d="M-1617.757,584.592a45.6,45.6,0,0,0-4.049-7.487h-36.548V561.957h19.588a44.644,44.644,0,0,0-7.808-3.132,24.94,24.94,0,0,0,13.5-22.214,25.136,25.136,0,0,0-.826-6.4h-12.786v10.8H-1670.5V517.029h11.473v-5.3a24.753,24.753,0,0,0-22.321,17.418,25.1,25.1,0,0,0-1.134,7.466A25.053,25.053,0,0,0-1681,545.1a24.945,24.945,0,0,0,11.038,13.183,44.664,44.664,0,0,0-11.866,4.8v39.467h67.727A45.719,45.719,0,0,0-1617.757,584.592Z" transform="translate(1708.738 -508.147)"/>
    <path id="Tracé_79" data-name="Tracé 79" d="M-1759.891,705.867h24.884v-46.2A55.132,55.132,0,0,0-1759.891,705.867Z" transform="translate(1759.891 -605.905)"/>
    <path id="Tracé_80" data-name="Tracé 80" d="M-1607.376,501.176v8.881h10.32v11.134h17.018A30.087,30.087,0,0,0-1607.376,501.176Z" transform="translate(1659.111 -501.176)"/>
    <path id="Tracé_81" data-name="Tracé 81" d="M-1584.262,665.851H-1605.4V676.9h42.228V665.851Z" transform="translate(1657.805 -609.992)"/>
    <path id="Tracé_82" data-name="Tracé 82" d="M-1621.426,533.4H-1641.2v19.886h19.771V533.4Z" transform="translate(1681.459 -522.471)"/>
  </g>
  <g id="Groupe_32" data-name="Groupe 32" transform="translate(1355.976 -501.154)">
    <path id="Tracé_70" data-name="Tracé 70" d="M-1112.656,726.537h-21V751.69h26.256A62.449,62.449,0,0,0-1112.656,726.537Z" transform="translate(-148.571 -150.514)" fill="#f0f"/>
    <path id="Tracé_71" data-name="Tracé 71" d="M-1284.567,563.076h-6.01v17.04h12.006v-17.04Z" transform="translate(-43.406 -41.173)" fill="#00e0ff"/>
    <path id="Tracé_72" data-name="Tracé 72" d="M-1285.857,558.441a24.771,24.771,0,0,0,13.406-22.063,24.637,24.637,0,0,0-24.525-24.747,24.636,24.636,0,0,0-24.525,24.747,24.775,24.775,0,0,0,12.422,21.527,45.18,45.18,0,0,0-34.222,43.964h89.677A45.207,45.207,0,0,0-1285.857,558.441Z" transform="translate(-8.084 -6.669)" fill="blue"/>
    <path id="Tracé_73" data-name="Tracé 73" d="M-1355.976,709h26.572V659.667A58.869,58.869,0,0,0-1355.976,709Z" transform="translate(0 -107.865)" fill="#9600ff"/>
    <path id="Tracé_74" data-name="Tracé 74" d="M-1174.269,522.548a32.127,32.127,0,0,0-29.192-21.372v21.372Z" transform="translate(-102.1)" fill="#0066e8"/>
    <path id="Tracé_75" data-name="Tracé 75" d="M-1178.914,665.851h-22.572v11.8h45.091v-11.8Z" transform="translate(-105.313 -109.286)" fill="#700ce8"/>
    <rect id="Rectangle_65" data-name="Rectangle 65" width="21.112" height="21.235" transform="translate(-1316.386 512.849)" fill="#4b00ff"/>
  </g>
</svg>
