<svg xmlns="http://www.w3.org/2000/svg" width="174.759" height="210.523" viewBox="0 0 174.759 210.523">
  <g id="Groupe_891" data-name="Groupe 891" transform="translate(3752.021 -396.972)">
    <path id="Tracé_334" data-name="Tracé 334" d="M-3683.278,634.474v45.649a47.059,47.059,0,0,0,7.012,1.014,47.83,47.83,0,0,0,44.874-24.033,73.6,73.6,0,0,1,4.883-7.679,151.38,151.38,0,0,1,11.882-13.909v-1.043Z" transform="translate(-21.347 -73.754)" fill="#f0f"/>
    <path id="Tracé_335" data-name="Tracé 335" d="M-3514.883,485.719a83.729,83.729,0,0,0-12.874-42.846h-23.328V556.941A84.445,84.445,0,0,0-3514.883,485.719Z" transform="translate(-62.399 -14.254)" fill="#4b00ff"/>
    <path id="Tracé_336" data-name="Tracé 336" d="M-3582,476.9a71.629,71.629,0,0,0-70.238-69.776,71.351,71.351,0,0,0-72.446,71.342v.006c0,.115-.016,30.869-6.227,55.158a92.354,92.354,0,0,1-3.34,10.029,43.428,43.428,0,0,0-2.7,19.009,43.561,43.561,0,0,0,40.289,39.784,43.412,43.412,0,0,0,40.731-21.814,66.948,66.948,0,0,1,4.433-6.97c15.832-21.146,38.492-36.261,38.492-36.261l-.1-.014A71.266,71.266,0,0,0-3582,476.9Z" transform="translate(-4.637 -3.15)" fill="blue"/>
    <path id="Tracé_337" data-name="Tracé 337" d="M-3639.5,398a76.726,76.726,0,0,0-11.356-1.016,77.394,77.394,0,0,0-78.581,77.384v.007c0,.047,0,4.821-.367,12.161h90.3Z" transform="translate(-6.898)" fill="#00e0ff"/>
    <rect id="Rectangle_469" data-name="Rectangle 469" width="70.237" height="25.877" transform="translate(-3682.312 444.99)" fill="#0066e8"/>
    <rect id="Rectangle_470" data-name="Rectangle 470" width="57.563" height="15.843" transform="translate(-3752.021 533.71)" fill="#9600ff"/>
    <rect id="Rectangle_471" data-name="Rectangle 471" width="23.764" height="23.764" transform="translate(-3655.379 504.136)" fill="#700ce8"/>
  </g>
</svg>
