<svg xmlns="http://www.w3.org/2000/svg" width="210" height="210" viewBox="0 0 210 210">
  <g id="Groupe_2138" data-name="Groupe 2138" transform="translate(-654 -1143)">
    <g id="Ellipse_5" data-name="Ellipse 5" transform="translate(654 1143)" fill="none" stroke="blue" stroke-width="3">
      <circle cx="105" cy="105" r="105" stroke="none"/>
      <circle cx="105" cy="105" r="103.5" fill="none"/>
    </g>
    <g id="Groupe_1996" data-name="Groupe 1996" transform="translate(-4624.45 212.786)">
      <g id="Groupe_1696" data-name="Groupe 1696" transform="translate(5380.343 964.001)">
        <g id="Groupe_1648" data-name="Groupe 1648" transform="translate(0 40.429)">
          <g id="Groupe_1647" data-name="Groupe 1647">
            <path id="Tracé_602" data-name="Tracé 602" d="M5481.991,1097.222q.209.139.406.3c2.792,2.242,4.207,7.1,7.262,2.864a117.777,117.777,0,0,0,8.663-14.776l0,0a18.087,18.087,0,0,0,1-2.469,4.1,4.1,0,0,0-1.574-4.558,24.792,24.792,0,0,0-9.3,7.18C5484.289,1090.955,5478.922,1095.161,5481.991,1097.222Z" transform="translate(-5481.084 -1078.58)" fill="#c0afe0"/>
          </g>
        </g>
        <g id="Groupe_1689" data-name="Groupe 1689" transform="translate(10.432)">
          <g id="Groupe_1650" data-name="Groupe 1650" transform="translate(3.7 18.139)">
            <g id="Groupe_1649" data-name="Groupe 1649">
              <path id="Tracé_603" data-name="Tracé 603" d="M5521.135,1015.407l.005.5,0,.469v.135l.008.765.039,3.818,1.714,1.466.182.157,1.834,1.568,0,0,0,0q.266-.312.521-.631c.058-.074.114-.146.17-.22.127-.165.25-.332.371-.5.152-.212.3-.427.443-.645.191-.29.375-.589.551-.892a19.739,19.739,0,0,0,1.116-2.218c.042-.1.084-.2.125-.308a.45.45,0,0,0,.029-.072c.046-.112.089-.223.131-.336q.131-.337.246-.681l.141-.421.053-.157.282-.832.044-.133.191-.562-.437-.014-.2-.007-.26-.008h-.05l-.388-.012-.637-.02-.853-.03,0,0-.643-.022h-.062l-.084,0-.713-.022-.531-.018-.294-.011-1.216-.038-1.726-.055Z" transform="translate(-5521.135 -1015.407)" fill="#d47c74"/>
            </g>
          </g>
          <g id="Groupe_1686" data-name="Groupe 1686">
            <g id="Groupe_1652" data-name="Groupe 1652" transform="translate(0.143 1.995)">
              <g id="Groupe_1651" data-name="Groupe 1651">
                <path id="Tracé_604" data-name="Tracé 604" d="M5523.5,969.656l10.071,10.451-14.308,13.787-8.211-12.243Z" transform="translate(-5511.055 -969.656)" fill="#07496d"/>
              </g>
            </g>
            <g id="Groupe_1654" data-name="Groupe 1654" transform="translate(0.143 0.203)">
              <g id="Groupe_1653" data-name="Groupe 1653">
                <rect id="Rectangle_500" data-name="Rectangle 500" width="19.87" height="14.514" transform="matrix(0.72, -0.694, 0.694, 0.72, 0, 13.787)" fill="#fff"/>
              </g>
            </g>
            <g id="Groupe_1656" data-name="Groupe 1656" transform="translate(0.143 0.203)">
              <g id="Groupe_1655" data-name="Groupe 1655">
                <rect id="Rectangle_501" data-name="Rectangle 501" width="19.87" height="3.499" transform="translate(0 13.787) rotate(-43.939)" fill="#33d9ff"/>
              </g>
            </g>
            <g id="Groupe_1668" data-name="Groupe 1668" transform="translate(5.803 5.972)" opacity="0.5">
              <g id="Groupe_1658" data-name="Groupe 1658" transform="translate(1.498 1.587)">
                <g id="Groupe_1657" data-name="Groupe 1657">
                  <path id="Tracé_605" data-name="Tracé 605" d="M5531.464,997.47a.125.125,0,0,1-.086-.215l12.242-11.8a.125.125,0,1,1,.173.18l-12.242,11.8A.125.125,0,0,1,5531.464,997.47Z" transform="translate(-5531.339 -985.424)" fill="#009eed"/>
                </g>
              </g>
              <g id="Groupe_1667" data-name="Groupe 1667">
                <g id="Groupe_1660" data-name="Groupe 1660" transform="translate(0 8.17)">
                  <g id="Groupe_1659" data-name="Groupe 1659">
                    <path id="Tracé_606" data-name="Tracé 606" d="M5533.674,1011.027a.125.125,0,0,1-.09-.038l-6.455-6.7a.125.125,0,0,1,.18-.174l6.455,6.7a.125.125,0,0,1-.09.212Z" transform="translate(-5527.095 -1004.079)" fill="#009eed"/>
                  </g>
                </g>
                <g id="Groupe_1662" data-name="Groupe 1662" transform="translate(2.96 5.515)">
                  <g id="Groupe_1661" data-name="Groupe 1661">
                    <path id="Tracé_607" data-name="Tracé 607" d="M5542.064,1003.5a.123.123,0,0,1-.09-.038l-6.455-6.7a.125.125,0,1,1,.18-.173l6.455,6.7a.125.125,0,0,1-.09.212Z" transform="translate(-5535.485 -996.555)" fill="#009eed"/>
                  </g>
                </g>
                <g id="Groupe_1664" data-name="Groupe 1664" transform="translate(5.822 2.758)">
                  <g id="Groupe_1663" data-name="Groupe 1663">
                    <path id="Tracé_608" data-name="Tracé 608" d="M5550.174,995.689a.125.125,0,0,1-.09-.038l-6.455-6.7a.125.125,0,0,1,.18-.173l6.455,6.7a.125.125,0,0,1,0,.177A.123.123,0,0,1,5550.174,995.689Z" transform="translate(-5543.595 -988.741)" fill="#009eed"/>
                  </g>
                </g>
                <g id="Groupe_1666" data-name="Groupe 1666" transform="translate(8.684)">
                  <g id="Groupe_1665" data-name="Groupe 1665">
                    <path id="Tracé_609" data-name="Tracé 609" d="M5558.285,987.874a.124.124,0,0,1-.09-.038l-6.455-6.7a.125.125,0,1,1,.18-.173l6.455,6.7a.125.125,0,0,1,0,.177A.127.127,0,0,1,5558.285,987.874Z" transform="translate(-5551.705 -980.926)" fill="#009eed"/>
                  </g>
                </g>
              </g>
            </g>
            <g id="Groupe_1670" data-name="Groupe 1670" transform="translate(5.007 16.208)">
              <g id="Groupe_1669" data-name="Groupe 1669">
                <path id="Tracé_610" data-name="Tracé 610" d="M5526.4,1010.213a.906.906,0,1,1-1.281-.024A.906.906,0,0,1,5526.4,1010.213Z" transform="translate(-5524.838 -1009.936)" fill="#009eed"/>
              </g>
            </g>
            <g id="Groupe_1672" data-name="Groupe 1672" transform="translate(17.413 11.902)">
              <g id="Groupe_1671" data-name="Groupe 1671">
                <path id="Tracé_611" data-name="Tracé 611" d="M5561.557,998.008a.906.906,0,1,1-1.281-.024A.907.907,0,0,1,5561.557,998.008Z" transform="translate(-5559.998 -997.731)" fill="#ffab40"/>
              </g>
            </g>
            <g id="Groupe_1674" data-name="Groupe 1674" transform="translate(14.551 14.659)">
              <g id="Groupe_1673" data-name="Groupe 1673">
                <path id="Tracé_612" data-name="Tracé 612" d="M5553.447,1005.823a.906.906,0,1,1-1.282-.024A.905.905,0,0,1,5553.447,1005.823Z" transform="translate(-5551.888 -1005.546)" fill="#47c43c"/>
              </g>
            </g>
            <g id="Groupe_1677" data-name="Groupe 1677" transform="translate(7.601 12.469)">
              <g id="Groupe_1676" data-name="Groupe 1676">
                <g id="Groupe_1675" data-name="Groupe 1675">
                  <path id="Tracé_613" data-name="Tracé 613" d="M5533.993,1002.294a.26.26,0,0,1-.154.072l-1.361.139a.26.26,0,0,1-.053-.518l1.116-.114-.11-2.26a.261.261,0,0,1,.521-.025l.122,2.507A.259.259,0,0,1,5533.993,1002.294Z" transform="translate(-5532.191 -999.34)" fill="#cd4e6d"/>
                </g>
              </g>
            </g>
            <g id="Groupe_1680" data-name="Groupe 1680" transform="translate(16.185 4.197)">
              <g id="Groupe_1679" data-name="Groupe 1679">
                <g id="Groupe_1678" data-name="Groupe 1678">
                  <path id="Tracé_614" data-name="Tracé 614" d="M5558.322,978.85a.257.257,0,0,1-.154.071l-1.361.14a.26.26,0,1,1-.053-.518l1.116-.114-.11-2.26a.26.26,0,0,1,.52-.025l.122,2.507A.262.262,0,0,1,5558.322,978.85Z" transform="translate(-5556.52 -975.896)" fill="#47c43c"/>
                </g>
              </g>
            </g>
            <g id="Groupe_1685" data-name="Groupe 1685">
              <g id="Groupe_1682" data-name="Groupe 1682" transform="translate(0 11.205)">
                <g id="Groupe_1681" data-name="Groupe 1681">
                  <path id="Tracé_615" data-name="Tracé 615" d="M5513.462,998.659h0a.406.406,0,0,1-.574-.011l-2.125-2.2a.407.407,0,0,1,.01-.574h0a.406.406,0,0,1,.574.011l2.125,2.2A.406.406,0,0,1,5513.462,998.659Z" transform="translate(-5510.649 -995.756)" fill="#07496d"/>
                </g>
              </g>
              <g id="Groupe_1684" data-name="Groupe 1684" transform="translate(11.628)">
                <g id="Groupe_1683" data-name="Groupe 1683">
                  <path id="Tracé_616" data-name="Tracé 616" d="M5546.416,966.9h0a.406.406,0,0,0,.011-.574l-2.125-2.2a.407.407,0,0,0-.575-.011h0a.406.406,0,0,0-.01.574l2.124,2.2A.406.406,0,0,0,5546.416,966.9Z" transform="translate(-5543.604 -964.001)" fill="#07496d"/>
                </g>
              </g>
            </g>
          </g>
          <g id="Groupe_1688" data-name="Groupe 1688" transform="translate(1.858 17.263)">
            <g id="Groupe_1687" data-name="Groupe 1687">
              <path id="Tracé_617" data-name="Tracé 617" d="M5515.917,1013.326c.045.581.539,1.5.722,2.481.289,1.554.317,3.25.479,3.845.033.129.07.263.11.406l.085.283c.127.422.272.866.405,1.257.221.655.4,1.161.4,1.161l3.422-.08h0a.006.006,0,0,1,0,0l0,0a2.973,2.973,0,0,0,.256-.843c.006-.036.012-.073.016-.111a4.07,4.07,0,0,0-.117-1.6,4.957,4.957,0,0,0-.342-.9,5.722,5.722,0,0,0-1.685-1.783.005.005,0,0,1,0,0c-.2-.146-.371-.267-.5-.362a1.645,1.645,0,0,0-.382-.21c-.289-.1-.4-.482-.518-.97-.034-.147-.07-.3-.111-.464a4.7,4.7,0,0,0-.4-1.126c-.012-.024-.024-.048-.037-.069a3.109,3.109,0,0,0-1.32-1.271.327.327,0,0,0-.345.033A.368.368,0,0,0,5515.917,1013.326Z" transform="translate(-5515.915 -1012.926)" fill="#f6a49d"/>
            </g>
          </g>
        </g>
        <g id="Groupe_1691" data-name="Groupe 1691" transform="translate(14.094 25.446)">
          <g id="Groupe_1690" data-name="Groupe 1690">
            <path id="Tracé_618" data-name="Tracé 618" d="M5521.027,1036.605c.221.655.4,1.161.4,1.161l3.422-.08h0a.005.005,0,0,1,0,0l0,0q.266-.312.521-.631a3.376,3.376,0,0,0-.264-.211,3.776,3.776,0,0,0-2.018-.717c-.027,0-.052,0-.079,0A3.761,3.761,0,0,0,5521.027,1036.605Z" transform="translate(-5521.027 -1036.116)" fill="#d47c74"/>
          </g>
        </g>
        <g id="Groupe_1693" data-name="Groupe 1693" transform="translate(6.525 25.754)">
          <g id="Groupe_1692" data-name="Groupe 1692">
            <path id="Tracé_619" data-name="Tracé 619" d="M5499.577,1059.867a19.554,19.554,0,0,0,3.487-11.041c.035-2,1.07-6.055,1.725-8.9a3.784,3.784,0,0,1,3.9-2.929h0a3.785,3.785,0,0,1,3.571,3.988l-.794,14.409Z" transform="translate(-5499.577 -1036.99)" fill="#c0afe0"/>
          </g>
        </g>
        <g id="Groupe_1695" data-name="Groupe 1695" transform="translate(1.313 47.458)">
          <g id="Groupe_1694" data-name="Groupe 1694">
            <path id="Tracé_620" data-name="Tracé 620" d="M5484.805,1110.411c2.792,2.242,4.207,7.1,7.262,2.864a117.777,117.777,0,0,0,8.663-14.776,17.15,17.15,0,0,0-5.051,4.031c-1.685,2.283-1.007,2.2-5.1,4.035A24.52,24.52,0,0,0,5484.805,1110.411Z" transform="translate(-5484.805 -1098.5)" fill="#ae9fd3"/>
          </g>
        </g>
      </g>
      <g id="Groupe_1746" data-name="Groupe 1746" transform="translate(5352.623 964.051)">
        <g id="Groupe_1737" data-name="Groupe 1737" transform="translate(2.654 0)">
          <g id="Groupe_1698" data-name="Groupe 1698" transform="translate(2.031 14.909)">
            <g id="Groupe_1697" data-name="Groupe 1697">
              <path id="Tracé_621" data-name="Tracé 621" d="M5418.389,1015.662l1.278-2.046a6.67,6.67,0,0,0,1.006-3.228l.183-3.95s-2.144-.008-2.146-.04-2.907,5.037-2.907,5.037l.27,3.949Z" transform="translate(-5415.803 -1006.398)" fill="#d47c74"/>
            </g>
          </g>
          <g id="Groupe_1720" data-name="Groupe 1720">
            <g id="Groupe_1700" data-name="Groupe 1700" transform="translate(0.383 0.386)" opacity="0.5">
              <g id="Groupe_1699" data-name="Groupe 1699">
                <ellipse id="Ellipse_11" data-name="Ellipse 11" cx="5.283" cy="5.207" rx="5.283" ry="5.207" transform="translate(0 10.561) rotate(-88.387)" fill="#b3eaff"/>
              </g>
            </g>
            <g id="Groupe_1713" data-name="Groupe 1713" transform="translate(4.373 11.058)">
              <g id="Groupe_1703" data-name="Groupe 1703" transform="translate(0.416 1.028)">
                <g id="Groupe_1702" data-name="Groupe 1702">
                  <g id="Groupe_1701" data-name="Groupe 1701">
                    <path id="Tracé_622" data-name="Tracé 622" d="M5425.08,998.437l-.011.387-.044,1.533-1.4-.041.048-1.54.011-.38Z" transform="translate(-5423.62 -998.396)" fill="#33d9ff"/>
                  </g>
                </g>
              </g>
              <g id="Groupe_1706" data-name="Groupe 1706" transform="translate(0.195 2.788)">
                <g id="Groupe_1705" data-name="Groupe 1705">
                  <g id="Groupe_1704" data-name="Groupe 1704">
                    <path id="Tracé_623" data-name="Tracé 623" d="M5423.674,1011.689h0a.7.7,0,0,1-.681-.722l.227-7.584,1.4.042-.227,7.584A.7.7,0,0,1,5423.674,1011.689Z" transform="translate(-5422.993 -1003.383)" fill="#009eed"/>
                  </g>
                </g>
              </g>
              <g id="Groupe_1709" data-name="Groupe 1709" transform="translate(0.464 1.028)">
                <g id="Groupe_1708" data-name="Groupe 1708">
                  <g id="Groupe_1707" data-name="Groupe 1707">
                    <path id="Tracé_624" data-name="Tracé 624" d="M5425.167,998.437l-.011.387a.718.718,0,0,1-.155.015l-1.076-.03a.49.49,0,0,1-.163-.03s0,0-.007,0l.011-.38Z" transform="translate(-5423.756 -998.396)" fill="#009eed"/>
                  </g>
                </g>
              </g>
              <g id="Groupe_1712" data-name="Groupe 1712">
                <g id="Groupe_1711" data-name="Groupe 1711">
                  <g id="Groupe_1710" data-name="Groupe 1710">
                    <path id="Tracé_625" data-name="Tracé 625" d="M5424.839,995.553l-.015.519a.3.3,0,0,1-.015.1.65.65,0,0,1-.5.516.791.791,0,0,1-.162.015l-1.076-.03a.488.488,0,0,1-.162-.029.641.641,0,0,1-.464-.545.456.456,0,0,1-.007-.1l.015-.519Z" transform="translate(-5422.44 -995.483)" fill="#33d9ff"/>
                  </g>
                </g>
              </g>
            </g>
            <g id="Groupe_1716" data-name="Groupe 1716" transform="translate(4.373 11.058)">
              <g id="Groupe_1715" data-name="Groupe 1715">
                <g id="Groupe_1714" data-name="Groupe 1714">
                  <path id="Tracé_626" data-name="Tracé 626" d="M5422.455,995.483l-.015.519a.456.456,0,0,0,.007.1,5.46,5.46,0,0,0,1.183.162h.173a5.647,5.647,0,0,0,1.006-.089.3.3,0,0,0,.015-.1l.015-.519Z" transform="translate(-5422.44 -995.483)" fill="#009eed"/>
                </g>
              </g>
            </g>
            <g id="Groupe_1719" data-name="Groupe 1719">
              <g id="Groupe_1718" data-name="Groupe 1718">
                <g id="Groupe_1717" data-name="Groupe 1717">
                  <path id="Tracé_627" data-name="Tracé 627" d="M5415.784,975.769l-.173,0a5.74,5.74,0,1,1,.173,0Zm0-10.565a4.681,4.681,0,1,0,.141,0Z" transform="translate(-5410.048 -964.143)" fill="#33d9ff"/>
                </g>
              </g>
            </g>
          </g>
          <g id="Groupe_1722" data-name="Groupe 1722" transform="translate(1.252 13.64)">
            <g id="Groupe_1721" data-name="Groupe 1721">
              <path id="Tracé_628" data-name="Tracé 628" d="M5413.616,1008.372l.318,3.183.048.486.079.8,1.33.609v0l0,0,.208.094a.723.723,0,0,0,.194-.057,1.188,1.188,0,0,0,.354-.254,2.246,2.246,0,0,0,.522-.979,4.138,4.138,0,0,0,.106-.459c.011-.063.021-.129.029-.193a5.246,5.246,0,0,0-.037-1.366,7.758,7.758,0,0,0-.468-1.688,4.8,4.8,0,0,0-.413-.85c-.308-.466.349-1.663,1.06-2.738a1.93,1.93,0,0,0,.135-.239,1.96,1.96,0,0,0,.145-.412v0a1.731,1.731,0,0,0,.037-.216,1.882,1.882,0,0,0,.005-.25,2.013,2.013,0,0,0-.016-.224v0a2.092,2.092,0,0,0-.112-.451.086.086,0,0,0-.011-.031s0,0,0,0a1.876,1.876,0,0,0-.154-.333l-2.4,2.636A3.792,3.792,0,0,0,5413.616,1008.372Z" transform="translate(-5413.596 -1002.801)" fill="#f6a49d"/>
            </g>
          </g>
          <g id="Groupe_1724" data-name="Groupe 1724" transform="translate(5.04 13.407)">
            <g id="Groupe_1723" data-name="Groupe 1723">
              <path id="Tracé_629" data-name="Tracé 629" d="M5426.919,1004.751a15.774,15.774,0,0,1-2.265-1.608c0-.008-.009-.017-.014-.027a5.439,5.439,0,0,1-.3-.861.091.091,0,0,1,.117-.112,8.773,8.773,0,0,1,2.374,1.075,2.457,2.457,0,0,1,.124,1.052C5426.941,1004.541,5426.919,1004.751,5426.919,1004.751Z" transform="translate(-5424.333 -1002.139)" fill="#f6a49d"/>
            </g>
          </g>
          <g id="Groupe_1726" data-name="Groupe 1726" transform="translate(5.348 14.384)">
            <g id="Groupe_1725" data-name="Groupe 1725">
              <path id="Tracé_630" data-name="Tracé 630" d="M5427.484,1006.544a15.774,15.774,0,0,1-2.265-1.608c0-.008-.009-.017-.014-.027a23.087,23.087,0,0,1,2.31,1.155C5427.506,1006.334,5427.484,1006.544,5427.484,1006.544Z" transform="translate(-5425.205 -1004.909)" fill="#d47c74"/>
            </g>
          </g>
          <g id="Groupe_1728" data-name="Groupe 1728" transform="translate(4.791 14.452)">
            <g id="Groupe_1727" data-name="Groupe 1727">
              <path id="Tracé_631" data-name="Tracé 631" d="M5426.85,1008.879s-1.363-1.062-2.382-1.99a3.047,3.047,0,0,1-.42-.465,1.982,1.982,0,0,1-.421-1.234.09.09,0,0,1,.126-.081c.55.239,2.931,1.291,3.1,1.681a3.563,3.563,0,0,1,.069,1.23C5426.9,1008.479,5426.85,1008.879,5426.85,1008.879Z" transform="translate(-5423.626 -1005.103)" fill="#f6a49d"/>
            </g>
          </g>
          <g id="Groupe_1730" data-name="Groupe 1730" transform="translate(5.213 15.774)">
            <g id="Groupe_1729" data-name="Groupe 1729">
              <path id="Tracé_632" data-name="Tracé 632" d="M5427.624,1011.3s-1.362-1.062-2.381-1.99a3.058,3.058,0,0,1-.421-.465,8.6,8.6,0,0,1,2.878,1.6C5427.673,1010.9,5427.624,1011.3,5427.624,1011.3Z" transform="translate(-5424.821 -1008.849)" fill="#d47c74"/>
            </g>
          </g>
          <g id="Groupe_1732" data-name="Groupe 1732" transform="translate(4.892 15.894)">
            <g id="Groupe_1731" data-name="Groupe 1731">
              <path id="Tracé_633" data-name="Tracé 633" d="M5426.708,1013.577l-.575-1.6a9.1,9.1,0,0,1-1.6-1.185c-.031-.028-.061-.056-.089-.084a1.419,1.419,0,0,1-.488-1.453.089.089,0,0,1,.115-.058c.515.18,3.275,1.193,3.358,2.259a2.939,2.939,0,0,1-.362,1.57A3.258,3.258,0,0,1,5426.708,1013.577Z" transform="translate(-5423.912 -1009.189)" fill="#f6a49d"/>
            </g>
          </g>
          <g id="Groupe_1734" data-name="Groupe 1734" transform="translate(5.427 17.41)">
            <g id="Groupe_1733" data-name="Groupe 1733">
              <path id="Tracé_634" data-name="Tracé 634" d="M5427.69,1016.357l-.574-1.6a9.1,9.1,0,0,1-1.6-1.185c-.031-.028-.061-.056-.089-.084.882.345,2.584,1.113,2.647,1.914a1.569,1.569,0,0,1-.023.4A3.258,3.258,0,0,1,5427.69,1016.357Z" transform="translate(-5425.429 -1013.485)" fill="#d47c74"/>
            </g>
          </g>
          <g id="Groupe_1736" data-name="Groupe 1736" transform="translate(3.047 17.506)">
            <g id="Groupe_1735" data-name="Groupe 1735">
              <path id="Tracé_635" data-name="Tracé 635" d="M5418.682,1020.541v0l0,0,.4.037,1.547.139.7-1.01.216-.31,1.484-2.131a2.284,2.284,0,0,0,.5-.715l0,0h0a1.572,1.572,0,0,0,.124-.515v0a1.124,1.124,0,0,0,0-.2c-.033-.418-.515-.827-1.093-1.172-.264-.156-.547-.3-.816-.426l-.006,0-.027-.012c-.468-.216-.888-.374-1.1-.447-.017-.007-.034-.011-.048-.017a.086.086,0,0,0-.114.058.866.866,0,0,0-.071.389,1.229,1.229,0,0,0,.491.734,3.311,3.311,0,0,0,.8.5c.2.092.381.164.538.225a.267.267,0,0,1,.075.437,2.3,2.3,0,0,1-.646.438c-.4.21-.917.434-1.422.7l-.154.083c-.077.046-.154.089-.231.135a2.107,2.107,0,0,0-.757,1.131c-.058.16-.106.324-.148.486a8.955,8.955,0,0,0-.214,1.158C5418.693,1020.41,5418.684,1020.521,5418.682,1020.541Z" transform="translate(-5418.682 -1013.757)" fill="#f6a49d"/>
            </g>
          </g>
        </g>
        <g id="Groupe_1739" data-name="Groupe 1739" transform="translate(0 37.242)">
          <g id="Groupe_1738" data-name="Groupe 1738">
            <path id="Tracé_636" data-name="Tracé 636" d="M5417.162,1090.8c-.154.067-.3.142-.452.223-3.142,1.719-5.384,6.26-7.651,1.552a117.735,117.735,0,0,1-5.948-16.062l0,0a18.076,18.076,0,0,1-.557-2.606,4.1,4.1,0,0,1,2.347-4.213,24.787,24.787,0,0,1,7.9,8.695C5415.994,1084.228,5420.543,1089.308,5417.162,1090.8Z" transform="translate(-5402.525 -1069.691)" fill="#c0afe0"/>
          </g>
        </g>
        <g id="Groupe_1741" data-name="Groupe 1741" transform="translate(4.292 22.342)">
          <g id="Groupe_1740" data-name="Groupe 1740">
            <path id="Tracé_637" data-name="Tracé 637" d="M5414.69,1028l.079.8,1.33.609v0l0,0,.208.094a.729.729,0,0,0,.194-.057l1.547.139.7-1.01.216-.31a3.273,3.273,0,0,0-.465-.312,3.662,3.662,0,0,0-.986-.391,3.468,3.468,0,0,0-.43-.077,3.727,3.727,0,0,0-.459-.027c-.046,0-.092,0-.136,0a3.688,3.688,0,0,0-1.228.252A3.587,3.587,0,0,0,5414.69,1028Z" transform="translate(-5414.69 -1027.463)" fill="#d47c74"/>
          </g>
        </g>
        <g id="Groupe_1743" data-name="Groupe 1743" transform="translate(0.008 22.952)">
          <g id="Groupe_1742" data-name="Groupe 1742">
            <path id="Tracé_638" data-name="Tracé 638" d="M5413.469,1053.33a19.557,19.557,0,0,1-1.5-11.481c.314-1.975,0-6.149-.143-9.065a3.784,3.784,0,0,0-3.325-3.565h0a3.786,3.786,0,0,0-4.213,3.3l-1.735,14.326Z" transform="translate(-5402.548 -1029.191)" fill="#c0afe0"/>
          </g>
        </g>
        <g id="Groupe_1745" data-name="Groupe 1745" transform="translate(0.586 44.064)">
          <g id="Groupe_1744" data-name="Groupe 1744">
            <path id="Tracé_639" data-name="Tracé 639" d="M5417.784,1103.534c-3.142,1.719-5.384,6.26-7.651,1.551a117.729,117.729,0,0,1-5.948-16.062,17.151,17.151,0,0,1,4.269,4.852c1.26,2.542.607,2.343,4.313,4.863A24.533,24.533,0,0,1,5417.784,1103.534Z" transform="translate(-5404.185 -1089.023)" fill="#ae9fd3"/>
          </g>
        </g>
      </g>
      <g id="Groupe_1836" data-name="Groupe 1836" transform="translate(5325.415 1011.414)">
        <g id="Groupe_1748" data-name="Groupe 1748" transform="translate(7.888 11.784)">
          <g id="Groupe_1747" data-name="Groupe 1747">
            <path id="Tracé_640" data-name="Tracé 640" d="M5347.77,1134.707l.083.017a.013.013,0,0,1,.008,0c.093.019.18.039.233.054.216.056.823.566.983.63.36-.277-.06.052.489-.374l.025-.017c.564-.441,2.01-1.636,2.69-2.251a3.528,3.528,0,0,0-.5-.426c-.042-.035-.09-.073-.14-.11a.219.219,0,0,1-.043-.031c-.148-.11-.31-.222-.439-.318-.063-.048-.1-.066-.15-.1,0,0-.006-.006-.007-.008l-.008-.006a2.705,2.705,0,0,0-.278.045,3.729,3.729,0,0,0-1.347.561.229.229,0,0,0-.048.033,3.565,3.565,0,0,0-.539.45.554.554,0,0,0-.049.048A3.769,3.769,0,0,0,5347.77,1134.707Z" transform="translate(-5347.77 -1131.768)" fill="#d47c74"/>
          </g>
        </g>
        <g id="Groupe_1750" data-name="Groupe 1750" transform="translate(22.359 8.706)">
          <g id="Groupe_1749" data-name="Groupe 1749">
            <path id="Tracé_641" data-name="Tracé 641" d="M5409.262,1130.911a117.664,117.664,0,0,1-13.442,10.616v0a18.457,18.457,0,0,1-2.307,1.336,4.462,4.462,0,0,1-1.373.372,4.171,4.171,0,0,1-3.358-1.3,24.054,24.054,0,0,1,3.719-7.636,24.462,24.462,0,0,1,2.109-2.565c4.573-4.84,8-10.735,10.464-7.979.048.054.1.1.146.156.065.07.135.137.2.2C5408.03,1126.568,5413.041,1127.3,5409.262,1130.911Z" transform="translate(-5388.781 -1123.047)" fill="#c0b6db"/>
          </g>
        </g>
        <g id="Groupe_1829" data-name="Groupe 1829" transform="translate(0 0)">
          <g id="Groupe_1759" data-name="Groupe 1759" transform="translate(2.487 3.979)">
            <g id="Groupe_1753" data-name="Groupe 1753" transform="translate(0 6.316)">
              <g id="Groupe_1752" data-name="Groupe 1752">
                <g id="Groupe_1751" data-name="Groupe 1751">
                  <path id="Tracé_642" data-name="Tracé 642" d="M5336.535,1128.246c-.06.247-.1.467-.148.717-.123.592-.37,2.362-1.282,2.05,0,0,0,0-.006-.006a30,30,0,0,1-2.419-2.2l-.033-.038a.739.739,0,0,1,.934-1.116,5.934,5.934,0,0,0,1.814.826C5335.886,1128.367,5336.094,1128.333,5336.535,1128.246Z" transform="translate(-5332.464 -1127.549)" fill="#f6a49d"/>
                </g>
              </g>
            </g>
            <g id="Groupe_1756" data-name="Groupe 1756" transform="translate(1.548)">
              <g id="Groupe_1755" data-name="Groupe 1755">
                <g id="Groupe_1754" data-name="Groupe 1754">
                  <path id="Tracé_643" data-name="Tracé 643" d="M5345.214,1118.454c-.408.369-1.091.946-1.695,1.445-.4.331-.77.629-1,.805-.007.006-.017.012-.025.018-.549.426-.128.1-.489.374-.16-.065-.767-.575-.983-.63-.053-.015-.14-.035-.233-.055a.018.018,0,0,0-.008,0c-.026-.005-.053-.012-.083-.017a.044.044,0,0,0-.012,0l-.046-.01c-.045-.008-.084-.02-.129-.028s-.075-.017-.113-.021c-.082-.017-.165-.033-.25-.048h0l-.051-.01a6.614,6.614,0,0,1-1.135-.357,3.62,3.62,0,0,1-1.688-.974l0,0v-.007h-.005v0s0,0,0,0v0h0a0,0,0,0,0,0,0v0s0,0-.006-.005,0-.006-.009-.013l0,0c-.038-.048-.082-.106-.128-.175a1.836,1.836,0,0,1-.13-.215,1.115,1.115,0,0,1-.128-.373.594.594,0,0,1,.008-.218,1.532,1.532,0,0,1,.1-.279,1.679,1.679,0,0,1,.153-.281c.007-.015.017-.026.026-.043a2.719,2.719,0,0,1,.2-.256,3.464,3.464,0,0,1,.241-.249s0-.007.007-.007,0,0,0,0,.006-.009.017-.013.042-.038.07-.063l.086-.078s0,0,.007,0l.206-.178s0,0,0,0,.494-.348,1.1-.79c.294-.214.618-.452.928-.687.059-.043.115-.086.17-.128a10.788,10.788,0,0,0,1.179-.986l.015-.018.015-.018a.257.257,0,0,0,.028-.042.007.007,0,0,0,0-.005s0,0,0,0a.491.491,0,0,0,.032-.061.477.477,0,0,0,.025-.068,1.125,1.125,0,0,0,.04-.17,2.389,2.389,0,0,0,.026-.379.211.211,0,0,0,0-.035c0-.065,0-.131,0-.2,0-.033,0-.068,0-.1,0-.068-.007-.138-.014-.206-.023-.314-.057-.63-.068-.893,0-.028,0-.055,0-.082a2,2,0,0,1,.015-.343c.01-.053.021-.107.035-.156s.028-.116.045-.173c.01-.035.023-.066.035-.1a2.093,2.093,0,0,1,.18-.394c.023-.038.046-.077.072-.112s.051-.07.078-.1a1.234,1.234,0,0,1,.085-.095,1.548,1.548,0,0,1,.522-.358c.04-.016.082-.033.125-.047s.086-.026.131-.038c.361-.09.414.125.375.389,0,.022-.006.042-.01.06a.435.435,0,0,1-.012.053c-.042.181-.115.3-.176.5a2.131,2.131,0,0,0-.05.213c0,.026-.01.055-.015.085a1.206,1.206,0,0,0-.01.272,2.218,2.218,0,0,0,.035.295c.005.033.012.068.02.1.015.071.032.145.05.219.009.036.019.075.03.113.2.727.56,1.583.773,2.24.015.043.028.085.04.126.024.081.048.161.066.234.008.038.018.073.025.108a4.51,4.51,0,0,1,.113,1.187c0,.058-.006.115-.011.173s-.012.115-.019.171-.017.115-.027.173-.02.115-.033.171-.023.108-.037.163-.031.123-.051.186-.035.118-.055.178c-.011.035-.022.068-.035.1s-.025.068-.037.1h0s0,0,0,0a.005.005,0,0,1,0,0v0l0,0s0,0,0,0c.032.025.053.043.078.061l.032.021c.026.02.042.032.04.028a.022.022,0,0,0,.006.01l.008,0,.025.017.008.005s.007,0,.007.008c.053.037.086.053.151.1,0,0,0,0,0,0,.128.1.29.208.436.316a.289.289,0,0,0,.042.031c.05.037.1.075.142.11l.032.025A3.157,3.157,0,0,1,5345.214,1118.454Z" transform="translate(-5336.85 -1109.649)" fill="#f6a49d"/>
                </g>
              </g>
            </g>
            <g id="Groupe_1758" data-name="Groupe 1758" transform="translate(6.374 6.988)">
              <g id="Groupe_1757" data-name="Groupe 1757">
                <path id="Tracé_644" data-name="Tracé 644" d="M5350.527,1129.452a2.43,2.43,0,0,0,.694,1.572Z" transform="translate(-5350.527 -1129.452)" fill="#f6a49d"/>
              </g>
            </g>
          </g>
          <g id="Groupe_1811" data-name="Groupe 1811" transform="translate(1.069)">
            <g id="Groupe_1810" data-name="Groupe 1810">
              <g id="Groupe_1761" data-name="Groupe 1761">
                <g id="Groupe_1760" data-name="Groupe 1760">
                  <path id="Tracé_645" data-name="Tracé 645" d="M5329.134,1109.45l-.685-8.739a1.9,1.9,0,0,1,1.743-2.061l3.583-.272a1.932,1.932,0,0,1,2.059,1.786l.685,8.739a1.9,1.9,0,0,1-1.744,2.061l-3.583.272A1.933,1.933,0,0,1,5329.134,1109.45Z" transform="translate(-5328.444 -1098.372)" fill="#07496d"/>
                </g>
              </g>
              <g id="Groupe_1763" data-name="Groupe 1763" transform="translate(0.351 0.38)">
                <g id="Groupe_1762" data-name="Groupe 1762">
                  <path id="Tracé_646" data-name="Tracé 646" d="M5335.4,1111.28l-3.609.274a1.564,1.564,0,0,1-1.667-1.447l-.683-8.711a1.542,1.542,0,0,1,1.412-1.669l3.609-.275a1.565,1.565,0,0,1,1.667,1.447l.683,8.711A1.542,1.542,0,0,1,5335.4,1111.28Z" transform="translate(-5329.438 -1099.449)" fill="#fff"/>
                </g>
              </g>
              <g id="Groupe_1770" data-name="Groupe 1770" transform="translate(2.438 3.85)">
                <g id="Groupe_1765" data-name="Groupe 1765">
                  <g id="Groupe_1764" data-name="Groupe 1764">
                    <path id="Tracé_647" data-name="Tracé 647" d="M5338.387,1110.679a1.511,1.511,0,0,1-1.4,1.623,1.512,1.512,0,1,1,1.4-1.623Z" transform="translate(-5335.354 -1109.282)" fill="#33d9ff"/>
                  </g>
                </g>
                <g id="Groupe_1767" data-name="Groupe 1767" transform="translate(1.015 0.496)">
                  <g id="Groupe_1766" data-name="Groupe 1766">
                    <path id="Tracé_648" data-name="Tracé 648" d="M5339.12,1110.843a.52.52,0,0,1-.672.781.287.287,0,0,1-.088-.075.52.52,0,0,1,.672-.782A.272.272,0,0,1,5339.12,1110.843Z" transform="translate(-5338.23 -1110.689)" fill="#fff"/>
                  </g>
                </g>
                <g id="Groupe_1769" data-name="Groupe 1769" transform="translate(0.787 1.744)">
                  <g id="Groupe_1768" data-name="Groupe 1768">
                    <path id="Tracé_649" data-name="Tracé 649" d="M5339.307,1114.952a1.286,1.286,0,0,1-1.72.2v0a.867.867,0,0,1,1.72-.2Z" transform="translate(-5337.584 -1114.224)" fill="#fff"/>
                  </g>
                </g>
              </g>
              <g id="Groupe_1783" data-name="Groupe 1783" transform="translate(1.819 9.309)">
                <g id="Groupe_1776" data-name="Groupe 1776" transform="translate(0 0.256)">
                  <g id="Groupe_1775" data-name="Groupe 1775">
                    <g id="Groupe_1772" data-name="Groupe 1772">
                      <g id="Groupe_1771" data-name="Groupe 1771">
                        <path id="Tracé_650" data-name="Tracé 650" d="M5335.276,1126.266a.84.84,0,1,1-.891-.783A.836.836,0,0,1,5335.276,1126.266Z" transform="translate(-5333.598 -1125.481)" fill="#47c43c"/>
                      </g>
                    </g>
                    <g id="Groupe_1774" data-name="Groupe 1774" transform="translate(0.368 0.159)">
                      <g id="Groupe_1773" data-name="Groupe 1773">
                        <path id="Tracé_651" data-name="Tracé 651" d="M5335.235,1126.347l-.262.509a.057.057,0,0,1-.075.024l-.068-.035a.056.056,0,0,0-.075.024l-.107.208a.044.044,0,0,0,.025.062.415.415,0,0,0,.5-.2l.247-.479a.406.406,0,0,0-.131-.52.045.045,0,0,0-.065.016l-.107.208a.055.055,0,0,0,.024.074l.068.034A.055.055,0,0,1,5335.235,1126.347Z" transform="translate(-5334.642 -1125.932)" fill="#fff"/>
                      </g>
                    </g>
                  </g>
                </g>
                <g id="Groupe_1782" data-name="Groupe 1782" transform="translate(3.366)">
                  <g id="Groupe_1779" data-name="Groupe 1779">
                    <g id="Groupe_1778" data-name="Groupe 1778">
                      <g id="Groupe_1777" data-name="Groupe 1777">
                        <path id="Tracé_652" data-name="Tracé 652" d="M5344.816,1125.54a.84.84,0,1,1-.891-.783A.836.836,0,0,1,5344.816,1125.54Z" transform="translate(-5343.138 -1124.755)" fill="#cd4e6d"/>
                      </g>
                    </g>
                  </g>
                  <g id="Groupe_1781" data-name="Groupe 1781" transform="translate(0.208 0.622)">
                    <g id="Groupe_1780" data-name="Groupe 1780">
                      <path id="Tracé_653" data-name="Tracé 653" d="M5344.094,1126.755l.55-.031a.053.053,0,0,1,.056.049l0,.072a.052.052,0,0,0,.056.049l.225-.013a.043.043,0,0,0,.04-.05.394.394,0,0,0-.409-.312l-.518.029a.391.391,0,0,0-.37.356.043.043,0,0,0,.045.045l.225-.013a.053.053,0,0,0,.05-.055l0-.072A.053.053,0,0,1,5344.094,1126.755Z" transform="translate(-5343.729 -1126.519)" fill="#fff"/>
                    </g>
                  </g>
                </g>
              </g>
              <g id="Groupe_1788" data-name="Groupe 1788" transform="translate(0.825 1.6)">
                <g id="Groupe_1785" data-name="Groupe 1785">
                  <g id="Groupe_1784" data-name="Groupe 1784">
                    <path id="Tracé_654" data-name="Tracé 654" d="M5336.368,1103.227l-5.413.412a.161.161,0,0,1-.171-.149h0a.158.158,0,0,1,.145-.172l5.414-.412a.161.161,0,0,1,.171.149h0A.159.159,0,0,1,5336.368,1103.227Z" transform="translate(-5330.783 -1102.906)" fill="#33d9ff"/>
                  </g>
                </g>
                <g id="Groupe_1787" data-name="Groupe 1787" transform="translate(1.413 0.901)">
                  <g id="Groupe_1786" data-name="Groupe 1786">
                    <path id="Tracé_655" data-name="Tracé 655" d="M5337.672,1105.781l-2.711.206a.161.161,0,0,1-.172-.149h0a.159.159,0,0,1,.146-.172l2.711-.206a.161.161,0,0,1,.172.149h0A.159.159,0,0,1,5337.672,1105.781Z" transform="translate(-5334.789 -1105.46)" fill="#33d9ff"/>
                  </g>
                </g>
              </g>
              <g id="Groupe_1809" data-name="Groupe 1809" transform="translate(1.877 6.973)">
                <g id="Groupe_1798" data-name="Groupe 1798">
                  <g id="Groupe_1791" data-name="Groupe 1791" transform="translate(0 0.273)">
                    <g id="Groupe_1790" data-name="Groupe 1790">
                      <g id="Groupe_1789" data-name="Groupe 1789">
                        <path id="Tracé_656" data-name="Tracé 656" d="M5334.561,1119.051a.464.464,0,0,1-.61.688.254.254,0,0,1-.079-.07.464.464,0,0,1,.609-.688A.258.258,0,0,1,5334.561,1119.051Z" transform="translate(-5333.763 -1118.908)" fill="#33d9ff"/>
                      </g>
                    </g>
                  </g>
                  <g id="Groupe_1794" data-name="Groupe 1794" transform="translate(1.799 0.137)">
                    <g id="Groupe_1793" data-name="Groupe 1793">
                      <g id="Groupe_1792" data-name="Groupe 1792">
                        <path id="Tracé_657" data-name="Tracé 657" d="M5339.658,1118.663a.464.464,0,0,1-.609.688.249.249,0,0,1-.079-.069.464.464,0,0,1,.609-.688A.253.253,0,0,1,5339.658,1118.663Z" transform="translate(-5338.86 -1118.521)" fill="#33d9ff"/>
                      </g>
                    </g>
                  </g>
                  <g id="Groupe_1797" data-name="Groupe 1797" transform="translate(3.597)">
                    <g id="Groupe_1796" data-name="Groupe 1796">
                      <g id="Groupe_1795" data-name="Groupe 1795">
                        <path id="Tracé_658" data-name="Tracé 658" d="M5344.756,1118.276a.464.464,0,0,1-.609.687.252.252,0,0,1-.08-.07.464.464,0,0,1,.61-.687A.251.251,0,0,1,5344.756,1118.276Z" transform="translate(-5343.958 -1118.133)" fill="#33d9ff"/>
                      </g>
                    </g>
                  </g>
                </g>
                <g id="Groupe_1808" data-name="Groupe 1808" transform="translate(0.094 1.197)">
                  <g id="Groupe_1801" data-name="Groupe 1801" transform="translate(0 0.274)">
                    <g id="Groupe_1800" data-name="Groupe 1800">
                      <g id="Groupe_1799" data-name="Groupe 1799">
                        <path id="Tracé_659" data-name="Tracé 659" d="M5334.826,1122.443a.464.464,0,0,1-.609.688.249.249,0,0,1-.08-.07.464.464,0,0,1,.61-.688A.265.265,0,0,1,5334.826,1122.443Z" transform="translate(-5334.027 -1122.301)" fill="#33d9ff"/>
                      </g>
                    </g>
                  </g>
                  <g id="Groupe_1804" data-name="Groupe 1804" transform="translate(1.799 0.137)">
                    <g id="Groupe_1803" data-name="Groupe 1803">
                      <g id="Groupe_1802" data-name="Groupe 1802">
                        <path id="Tracé_660" data-name="Tracé 660" d="M5339.924,1122.056a.464.464,0,0,1-.61.687.255.255,0,0,1-.079-.07.464.464,0,0,1,.61-.687A.249.249,0,0,1,5339.924,1122.056Z" transform="translate(-5339.125 -1121.913)" fill="#33d9ff"/>
                      </g>
                    </g>
                  </g>
                  <g id="Groupe_1807" data-name="Groupe 1807" transform="translate(3.598)">
                    <g id="Groupe_1806" data-name="Groupe 1806">
                      <g id="Groupe_1805" data-name="Groupe 1805">
                        <path id="Tracé_661" data-name="Tracé 661" d="M5345.022,1121.668a.464.464,0,0,1-.61.688.267.267,0,0,1-.079-.07.464.464,0,0,1,.61-.688A.251.251,0,0,1,5345.022,1121.668Z" transform="translate(-5344.224 -1121.525)" fill="#33d9ff"/>
                      </g>
                    </g>
                  </g>
                </g>
              </g>
            </g>
          </g>
          <g id="Groupe_1813" data-name="Groupe 1813" transform="translate(7.8 3.979)">
            <g id="Groupe_1812" data-name="Groupe 1812">
              <path id="Tracé_662" data-name="Tracé 662" d="M5348.881,1118.82l1.91-1.4c.008.01-.155-.121-.155-.121l-.006-.008a4.383,4.383,0,0,0,.191-2.61c-.2-.948-1.165-2.836-1.029-3.713.07-.478.215-.579.262-.915.037-.265-.016-.478-.376-.39a1.783,1.783,0,0,0-1.307,1.575c-.069.372.076,1.183.076,1.823a2.622,2.622,0,0,1-.026.416.92.92,0,0,1-.1.309.3.3,0,0,1-.028.041,3.4,3.4,0,0,0-.177,4.074A6.955,6.955,0,0,0,5348.881,1118.82Z" transform="translate(-5347.52 -1109.648)" fill="#f6a49d"/>
            </g>
          </g>
          <g id="Groupe_1828" data-name="Groupe 1828" transform="translate(0 2.868)">
            <g id="Groupe_1815" data-name="Groupe 1815" transform="translate(0.483)">
              <g id="Groupe_1814" data-name="Groupe 1814">
                <path id="Tracé_663" data-name="Tracé 663" d="M5326.9,1109.175a15.689,15.689,0,0,0,2.11-1.753c0-.009.008-.018.011-.027a4.207,4.207,0,0,0,.188-.663.191.191,0,0,0-.264-.215,7.733,7.733,0,0,0-2.084,1.168,2.323,2.323,0,0,0-.033,1.028C5326.855,1108.973,5326.9,1109.175,5326.9,1109.175Z" transform="translate(-5326.784 -1106.5)" fill="#f6a49d"/>
              </g>
            </g>
            <g id="Groupe_1817" data-name="Groupe 1817" transform="translate(0.522 0.895)">
              <g id="Groupe_1816" data-name="Groupe 1816">
                <path id="Tracé_664" data-name="Tracé 664" d="M5326.968,1110.817a15.667,15.667,0,0,0,2.109-1.753c0-.009.008-.018.011-.027a23.167,23.167,0,0,0-2.193,1.318C5326.927,1110.615,5326.968,1110.817,5326.968,1110.817Z" transform="translate(-5326.895 -1109.037)" fill="#d47c74"/>
              </g>
            </g>
            <g id="Groupe_1819" data-name="Groupe 1819" transform="translate(0.172 0.982)">
              <g id="Groupe_1818" data-name="Groupe 1818">
                <path id="Tracé_665" data-name="Tracé 665" d="M5326.132,1113.147s1.261-1.146,2.192-2.132a2.979,2.979,0,0,0,.377-.485,1.993,1.993,0,0,0,.323-1.059.191.191,0,0,0-.282-.165,12.188,12.188,0,0,0-2.8,1.821,3.385,3.385,0,0,0,.038,1.2C5326.048,1112.765,5326.132,1113.147,5326.132,1113.147Z" transform="translate(-5325.904 -1109.284)" fill="#f6a49d"/>
              </g>
            </g>
            <g id="Groupe_1821" data-name="Groupe 1821" transform="translate(0.251 2.229)">
              <g id="Groupe_1820" data-name="Groupe 1820">
                <path id="Tracé_666" data-name="Tracé 666" d="M5326.276,1115.433s1.261-1.146,2.192-2.132a2.979,2.979,0,0,0,.377-.485,8.617,8.617,0,0,0-2.719,1.794C5326.193,1115.051,5326.276,1115.433,5326.276,1115.433Z" transform="translate(-5326.127 -1112.816)" fill="#d47c74"/>
              </g>
            </g>
            <g id="Groupe_1823" data-name="Groupe 1823" transform="translate(0 2.364)">
              <g id="Groupe_1822" data-name="Groupe 1822">
                <path id="Tracé_667" data-name="Tracé 667" d="M5326.317,1117.64l.432-1.6a9.009,9.009,0,0,0,1.482-1.285c.029-.03.057-.059.083-.089a1.407,1.407,0,0,0,.4-1.325.191.191,0,0,0-.263-.123c-.681.309-3.045,1.451-3.036,2.431a2.8,2.8,0,0,0,.494,1.487A3.174,3.174,0,0,0,5326.317,1117.64Z" transform="translate(-5325.415 -1113.2)" fill="#f6a49d"/>
              </g>
            </g>
            <g id="Groupe_1825" data-name="Groupe 1825" transform="translate(0.437 3.83)">
              <g id="Groupe_1824" data-name="Groupe 1824">
                <path id="Tracé_668" data-name="Tracé 668" d="M5327.118,1120.328l.432-1.6a9.027,9.027,0,0,0,1.483-1.285c.029-.03.056-.059.082-.089-.846.411-2.469,1.3-2.462,2.081a1.481,1.481,0,0,0,.057.388A3.208,3.208,0,0,0,5327.118,1120.328Z" transform="translate(-5326.653 -1117.353)" fill="#d47c74"/>
              </g>
            </g>
            <g id="Groupe_1827" data-name="Groupe 1827" transform="translate(0.518 3.914)">
              <g id="Groupe_1826" data-name="Groupe 1826">
                <path id="Tracé_669" data-name="Tracé 669" d="M5328.094,1121.19a.172.172,0,0,1-.267.133,1.926,1.926,0,0,1-.943-1.484c-.008-.895,2.128-1.935,2.777-2.23a.191.191,0,0,1,.265.125,1.343,1.343,0,0,1-.449,1.282,8.062,8.062,0,0,1-1.321,1.154Z" transform="translate(-5326.884 -1117.592)" fill="#f6a49d"/>
              </g>
            </g>
          </g>
        </g>
        <g id="Groupe_1831" data-name="Groupe 1831" transform="translate(7.876 11.9)">
          <g id="Groupe_1830" data-name="Groupe 1830">
            <path id="Tracé_670" data-name="Tracé 670" d="M5351.791,1132.581l-1.228,1.846c-.4.331-.77.629-1,.805-.006.006-.017.012-.024.018-.549.426-.128.1-.489.374a11.658,11.658,0,0,0-.982-.63c-.054-.015-.14-.035-.233-.055a.016.016,0,0,0-.008,0c-.026-.005-.053-.012-.083-.017l-.012,0a4.034,4.034,0,0,1,.489-1.008,3.276,3.276,0,0,1,.649-.715,5.34,5.34,0,0,1,1.528-.855l0,0a7.114,7.114,0,0,1,.737-.24c.128.1.289.208.435.316a.294.294,0,0,0,.042.031c.05.037.1.075.142.11Z" transform="translate(-5347.735 -1132.099)" fill="#d47c74"/>
          </g>
        </g>
        <g id="Groupe_1833" data-name="Groupe 1833" transform="translate(8.542 11.93)">
          <g id="Groupe_1832" data-name="Groupe 1832">
            <path id="Tracé_671" data-name="Tracé 671" d="M5372.952,1143.834l-4.1,4.108a4.752,4.752,0,0,1-6.364.32l-11.69-9.56a3.785,3.785,0,0,1,4.73-5.873c1.416.954,7.132,4.551,11.637,7.378.959.6,1.865,1.169,2.663,1.667C5371.683,1143.04,5372.952,1143.834,5372.952,1143.834Z" transform="translate(-5349.625 -1132.184)" fill="#c0b6db"/>
          </g>
        </g>
        <g id="Groupe_1835" data-name="Groupe 1835" transform="translate(21.401 9.566)">
          <g id="Groupe_1834" data-name="Groupe 1834">
            <path id="Tracé_672" data-name="Tracé 672" d="M5407.506,1132.488a117.677,117.677,0,0,1-13.442,10.615l0,0a18.419,18.419,0,0,1-2.306,1.335,4.465,4.465,0,0,1-1.373.372,4.74,4.74,0,0,1-4.316-.886,1.851,1.851,0,0,0,1.806.275,6.016,6.016,0,0,0,3.32-3.079,6.432,6.432,0,0,1,2.214-3.584,2.474,2.474,0,0,1,1.437-.493c2.164,0,4.056-2.956,3.914-6-.106-2.23,3.027-4.528,4.705-5.565.065.069.135.137.2.2C5406.274,1128.145,5411.284,1128.877,5407.506,1132.488Z" transform="translate(-5386.067 -1125.484)" fill="#b6aad6"/>
          </g>
        </g>
      </g>
      <g id="Groupe_1871" data-name="Groupe 1871" transform="translate(5376.761 1000.948)">
        <g id="Groupe_1847" data-name="Groupe 1847" transform="translate(0 10.49)">
          <g id="Groupe_1838" data-name="Groupe 1838" transform="translate(0 8.015)">
            <g id="Groupe_1837" data-name="Groupe 1837">
              <path id="Tracé_673" data-name="Tracé 673" d="M5472.295,1129.02a117.7,117.7,0,0,0,13.442,10.615l0,0a18.364,18.364,0,0,0,2.307,1.335,4.449,4.449,0,0,0,1.372.372,4.165,4.165,0,0,0,3.358-1.3,24.058,24.058,0,0,0-3.719-7.636,24.566,24.566,0,0,0-2.11-2.564c-4.573-4.84-8-10.735-10.463-7.979-.048.054-.1.1-.146.156-.065.069-.135.137-.2.2C5473.527,1124.677,5468.517,1125.409,5472.295,1129.02Z" transform="translate(-5470.933 -1121.156)" fill="#c0b6db"/>
            </g>
          </g>
          <g id="Groupe_1840" data-name="Groupe 1840" transform="translate(29.337)">
            <g id="Groupe_1839" data-name="Groupe 1839">
              <path id="Tracé_674" data-name="Tracé 674" d="M5554.076,1112.649l4.808,1.811.021.01,1.942-2.191.25-.283.164-.183s.291-.152.744-.4c1.507-.809,4.812-2.632,5.324-3.293.67-.86.923-.9.58-1.519s.127-.857.636-1.707-1.093-.967-1.555-1.422,1-1.5,1.916-2.613,2.769-2.434,1.7-2.42-7.671,4.9-7.671,4.9.757-1.245,1.25-2.172a2.76,2.76,0,0,0-.271-2.256l-.867,1.343c-.863,1.341-2.085,2.133-3.756,4.284a6.454,6.454,0,0,0-1.217,4.686l-.044.037-.5.424-.039.033-1.806,1.549Z" transform="translate(-5554.076 -1098.44)" fill="#f6a49d"/>
            </g>
          </g>
          <g id="Groupe_1842" data-name="Groupe 1842" transform="translate(29.337 11.241)">
            <g id="Groupe_1841" data-name="Groupe 1841">
              <path id="Tracé_675" data-name="Tracé 675" d="M5554.076,1133.265l4.808,1.811.021.01,1.942-2.191.25-.283a3.717,3.717,0,0,0-.755-1.149,3.773,3.773,0,0,0-2.807-1.166l-.039.033-1.806,1.549Z" transform="translate(-5554.076 -1130.297)" fill="#d47c74"/>
            </g>
          </g>
          <g id="Groupe_1844" data-name="Groupe 1844" transform="translate(12.332 11.239)">
            <g id="Groupe_1843" data-name="Groupe 1843">
              <path id="Tracé_676" data-name="Tracé 676" d="M5505.883,1141.943l4.1,4.108a4.752,4.752,0,0,0,6.364.32l11.69-9.559a3.785,3.785,0,0,0-4.73-5.873c-1.416.954-7.132,4.551-11.637,7.378-.959.6-1.865,1.17-2.663,1.667C5507.152,1141.149,5505.883,1141.943,5505.883,1141.943Z" transform="translate(-5505.883 -1130.292)" fill="#c0b6db"/>
            </g>
          </g>
          <g id="Groupe_1846" data-name="Groupe 1846" transform="translate(0 8.875)">
            <g id="Groupe_1845" data-name="Groupe 1845">
              <path id="Tracé_677" data-name="Tracé 677" d="M5472.295,1130.6a117.715,117.715,0,0,0,13.442,10.615l0,0a18.345,18.345,0,0,0,2.307,1.335,4.449,4.449,0,0,0,1.372.372,4.74,4.74,0,0,0,4.316-.886,1.852,1.852,0,0,1-1.806.276,6.018,6.018,0,0,1-3.32-3.079,6.435,6.435,0,0,0-2.214-3.584,2.474,2.474,0,0,0-1.437-.493c-2.164,0-4.056-2.956-3.914-6,.106-2.229-3.027-4.528-4.706-5.565-.065.069-.135.137-.2.2C5473.527,1126.254,5468.517,1126.986,5472.295,1130.6Z" transform="translate(-5470.933 -1123.593)" fill="#b6aad6"/>
            </g>
          </g>
        </g>
        <g id="Groupe_1857" data-name="Groupe 1857" transform="translate(41.837 1.918)">
          <g id="Groupe_1849" data-name="Groupe 1849">
            <g id="Groupe_1848" data-name="Groupe 1848">
              <rect id="Rectangle_502" data-name="Rectangle 502" width="14.316" height="8.144" transform="translate(14.316 8.144) rotate(180)" fill="#fff"/>
            </g>
          </g>
          <g id="Groupe_1856" data-name="Groupe 1856" transform="translate(0 0.019)">
            <g id="Groupe_1855" data-name="Groupe 1855">
              <g id="Groupe_1854" data-name="Groupe 1854">
                <g id="Groupe_1851" data-name="Groupe 1851" transform="translate(0 2.526)">
                  <g id="Groupe_1850" data-name="Groupe 1850">
                    <path id="Tracé_678" data-name="Tracé 678" d="M5589.5,1081.363l7.158,3.748,7.158-3.748v5.6H5589.5Z" transform="translate(-5589.502 -1081.363)" fill="#ffab40"/>
                  </g>
                </g>
                <g id="Groupe_1853" data-name="Groupe 1853">
                  <g id="Groupe_1852" data-name="Groupe 1852">
                    <path id="Tracé_679" data-name="Tracé 679" d="M5589.5,1074.2h14.316v1.495l-7.158,3.665-7.158-3.665Z" transform="translate(-5589.502 -1074.203)" fill="#ffab40"/>
                  </g>
                </g>
              </g>
            </g>
          </g>
        </g>
        <g id="Groupe_1864" data-name="Groupe 1864" transform="translate(34.948 2.231)">
          <g id="Groupe_1859" data-name="Groupe 1859" transform="translate(0 6.954)">
            <g id="Groupe_1858" data-name="Groupe 1858">
              <path id="Tracé_680" data-name="Tracé 680" d="M5570.261,1095.306h5.454a.283.283,0,0,0,.283-.283h0a.283.283,0,0,0-.283-.283h-5.454a.283.283,0,0,0-.283.283h0A.284.284,0,0,0,5570.261,1095.306Z" transform="translate(-5569.978 -1094.74)" fill="#33d9ff"/>
            </g>
          </g>
          <g id="Groupe_1861" data-name="Groupe 1861">
            <g id="Groupe_1860" data-name="Groupe 1860">
              <path id="Tracé_681" data-name="Tracé 681" d="M5570.261,1075.6h5.454a.283.283,0,0,0,.283-.283h0a.283.283,0,0,0-.283-.283h-5.454a.283.283,0,0,0-.283.283h0A.283.283,0,0,0,5570.261,1075.6Z" transform="translate(-5569.978 -1075.033)" fill="#33d9ff"/>
            </g>
          </g>
          <g id="Groupe_1863" data-name="Groupe 1863" transform="translate(0 3.477)">
            <g id="Groupe_1862" data-name="Groupe 1862">
              <path id="Tracé_682" data-name="Tracé 682" d="M5570.261,1085.453h5.454a.283.283,0,0,0,.283-.283h0a.283.283,0,0,0-.283-.283h-5.454a.283.283,0,0,0-.283.283h0A.284.284,0,0,0,5570.261,1085.453Z" transform="translate(-5569.978 -1084.886)" fill="#33d9ff"/>
            </g>
          </g>
        </g>
        <g id="Groupe_1870" data-name="Groupe 1870" transform="translate(53.567 0)">
          <g id="Groupe_1866" data-name="Groupe 1866" transform="translate(0 0.009)">
            <g id="Groupe_1865" data-name="Groupe 1865">
              <path id="Tracé_683" data-name="Tracé 683" d="M5626.564,1070.664a1.91,1.91,0,1,1-1.892-1.927A1.909,1.909,0,0,1,5626.564,1070.664Z" transform="translate(-5622.746 -1068.737)" fill="#fff"/>
            </g>
          </g>
          <g id="Groupe_1869" data-name="Groupe 1869" transform="translate(0.525)">
            <g id="Groupe_1868" data-name="Groupe 1868">
              <g id="Groupe_1867" data-name="Groupe 1867">
                <path id="Tracé_684" data-name="Tracé 684" d="M5625.7,1071.354a.287.287,0,0,1-.179-.063l-1.18-.943a.287.287,0,1,1,.358-.449l.967.773,1.661-1.864a.287.287,0,1,1,.429.382l-1.842,2.068A.287.287,0,0,1,5625.7,1071.354Z" transform="translate(-5624.234 -1068.711)" fill="#47c43c"/>
              </g>
            </g>
          </g>
        </g>
      </g>
      <g id="Groupe_1995" data-name="Groupe 1995" transform="translate(5342.496 991.043)">
        <g id="Groupe_1904" data-name="Groupe 1904" transform="translate(18.043 0)">
          <g id="Groupe_1876" data-name="Groupe 1876">
            <g id="Groupe_1873" data-name="Groupe 1873">
              <g id="Groupe_1872" data-name="Groupe 1872">
                <path id="Tracé_685" data-name="Tracé 685" d="M5424.958,1053.048c-.055,3.717,4.462,7.526,7.215,9.379l3.039,2.044,8.925-10.509s7.491-1.884,5.943-8.941a5.211,5.211,0,0,0-4.269-4.188c-3.9-.846-9.336,1.223-11.866,3.93a21.759,21.759,0,0,0-3.161,4.225s-4.472-1.145-5.655,2.911A4.324,4.324,0,0,0,5424.958,1053.048Z" transform="translate(-5424.958 -1040.641)" fill="#24292f"/>
              </g>
            </g>
            <g id="Groupe_1875" data-name="Groupe 1875" transform="translate(0.001)">
              <g id="Groupe_1874" data-name="Groupe 1874">
                <path id="Tracé_686" data-name="Tracé 686" d="M5424.959,1053.048a15.955,15.955,0,0,0,3.953.907c8.44.841,16-5.031,16.9-13.122-3.9-.846-9.336,1.223-11.866,3.93a21.759,21.759,0,0,0-3.161,4.225s-4.472-1.145-5.655,2.911A4.324,4.324,0,0,0,5424.959,1053.048Z" transform="translate(-5424.959 -1040.641)" fill="#3a3e49"/>
              </g>
            </g>
          </g>
          <g id="Groupe_1878" data-name="Groupe 1878" transform="translate(6.071 19.102)">
            <g id="Groupe_1877" data-name="Groupe 1877">
              <path id="Tracé_687" data-name="Tracé 687" d="M5457.006,1105.493a4.4,4.4,0,0,1-1.163,2.43c-1.1,1.262-3.226,4.5-8.358,3.161s-5.322-5.719-5.322-5.719c1-.238,2.256-.3,2.715-.827.573-.656.3-5.8.126-8.342-.058-.855-.1-1.417-.1-1.417l8.468,2.989s-.083,2.1-.119,3.806c-.021,1.01-.027,1.88.011,2.092C5453.517,1105.091,5457.006,1105.493,5457.006,1105.493Z" transform="translate(-5442.163 -1094.778)" fill="#f6a49d"/>
            </g>
          </g>
          <g id="Groupe_1880" data-name="Groupe 1880" transform="translate(8.807 19.102)">
            <g id="Groupe_1879" data-name="Groupe 1879">
              <path id="Tracé_688" data-name="Tracé 688" d="M5458.386,1097.767s-.083,2.1-.119,3.806a4.938,4.938,0,0,1-1.793.283c-4.493-.276-6.557-7.078-6.557-7.078Z" transform="translate(-5449.918 -1094.778)" fill="#d47c74"/>
            </g>
          </g>
          <g id="Groupe_1882" data-name="Groupe 1882" transform="translate(5.313 15.97)">
            <g id="Groupe_1881" data-name="Groupe 1881">
              <path id="Tracé_689" data-name="Tracé 689" d="M5445.817,1088.714c-.281.711-1.8.818-3.4.238s-2.579-1.582-2.381-2.338c.261-1,1.8-.818,3.4-.238S5446.1,1088,5445.817,1088.714Z" transform="translate(-5440.014 -1085.901)" fill="#d47c74"/>
            </g>
          </g>
          <g id="Groupe_1884" data-name="Groupe 1884" transform="translate(8.274 11.041)">
            <g id="Groupe_1883" data-name="Groupe 1883">
              <path id="Tracé_690" data-name="Tracé 690" d="M5448.408,1076.548c.059,5.089,2.838,9.181,6.508,9.142,2.671-.028,4.823-1.956,5.773-4.967a11.175,11.175,0,0,0,.439-2.078,13.111,13.111,0,0,0,.089-1.708,27.733,27.733,0,0,0-.413-5.006c-.5.151-1.239.355-2.318.616-2.784.672-3.724-.088-6.518-.273-.452-.03-.931-.116-1.376-.167a1.645,1.645,0,0,0-1.8,1.182A12.41,12.41,0,0,0,5448.408,1076.548Z" transform="translate(-5448.407 -1071.931)" fill="#f6a49d"/>
            </g>
          </g>
          <g id="Groupe_1903" data-name="Groupe 1903" transform="translate(9.678 12.701)">
            <g id="Groupe_1886" data-name="Groupe 1886" transform="translate(3.339 7.907)">
              <g id="Groupe_1885" data-name="Groupe 1885">
                <path id="Tracé_691" data-name="Tracé 691" d="M5466.894,1099.059a7.88,7.88,0,0,1-5.046-.014,2.661,2.661,0,0,0,3.023,1.934A2.232,2.232,0,0,0,5466.894,1099.059Z" transform="translate(-5461.848 -1099.045)" fill="#fff"/>
              </g>
            </g>
            <g id="Groupe_1888" data-name="Groupe 1888" transform="translate(5.51 4.085)">
              <g id="Groupe_1887" data-name="Groupe 1887">
                <path id="Tracé_692" data-name="Tracé 692" d="M5468.423,1090.279l.377.011c.255.008.46-.15.441-.34l-.142-1.432a.4.4,0,0,0-.419-.3h0a.4.4,0,0,0-.439.277l-.236,1.421C5467.975,1090.1,5468.168,1090.271,5468.423,1090.279Z" transform="translate(-5468.002 -1088.215)" fill="#d47c74"/>
              </g>
            </g>
            <g id="Groupe_1890" data-name="Groupe 1890" transform="translate(2.034 2.011)">
              <g id="Groupe_1889" data-name="Groupe 1889">
                <path id="Tracé_693" data-name="Tracé 693" d="M5458.151,1082.987a.525.525,0,1,0,.506-.652A.593.593,0,0,0,5458.151,1082.987Z" transform="translate(-5458.151 -1082.335)" fill="#0c1b3c"/>
              </g>
            </g>
            <g id="Groupe_1892" data-name="Groupe 1892" transform="translate(0.463)">
              <g id="Groupe_1891" data-name="Groupe 1891">
                <path id="Tracé_694" data-name="Tracé 694" d="M5457.414,1077.662a.776.776,0,0,0-.09-.161,1.73,1.73,0,0,0-.329-.362,1.974,1.974,0,0,0-.272-.193,2.307,2.307,0,0,0-.342-.165,2.36,2.36,0,0,0-.829-.144,2.579,2.579,0,0,0-.429.046,3.7,3.7,0,0,0-.4.119c-.121.054-.232.116-.336.173a2.165,2.165,0,0,0-.265.2,1.2,1.2,0,0,0-.2.192c-.054.061-.1.119-.131.166a1.492,1.492,0,0,0-.1.152s.071-.013.184-.043c.056-.016.124-.033.2-.058a2.53,2.53,0,0,1,.248-.066c.091-.021.182-.056.282-.075s.2-.042.306-.066.213-.03.321-.044c.109,0,.217-.025.327-.016a2.72,2.72,0,0,1,.327.009c.109,0,.215.023.322.034s.208.034.306.056.194.042.282.068c.178.044.33.092.44.126Z" transform="translate(-5453.698 -1076.637)" fill="#0c1b3c"/>
              </g>
            </g>
            <g id="Groupe_1894" data-name="Groupe 1894" transform="translate(8.777 2.011)">
              <g id="Groupe_1893" data-name="Groupe 1893">
                <path id="Tracé_695" data-name="Tracé 695" d="M5477.26,1082.987a.525.525,0,1,0,.506-.652A.593.593,0,0,0,5477.26,1082.987Z" transform="translate(-5477.26 -1082.335)" fill="#0c1b3c"/>
              </g>
            </g>
            <g id="Groupe_1896" data-name="Groupe 1896" transform="translate(7.205)">
              <g id="Groupe_1895" data-name="Groupe 1895">
                <path id="Tracé_696" data-name="Tracé 696" d="M5476.522,1077.662a.807.807,0,0,0-.09-.161,1.73,1.73,0,0,0-.329-.362,1.98,1.98,0,0,0-.272-.193,2.278,2.278,0,0,0-.342-.165,2.36,2.36,0,0,0-.829-.144,2.579,2.579,0,0,0-.429.046,3.7,3.7,0,0,0-.4.119c-.121.054-.232.116-.336.173a2.165,2.165,0,0,0-.265.2,1.2,1.2,0,0,0-.2.192c-.054.061-.1.119-.131.166a1.458,1.458,0,0,0-.1.152s.071-.013.184-.043c.056-.016.124-.033.2-.058a2.53,2.53,0,0,1,.248-.066c.091-.021.181-.056.282-.075s.2-.042.306-.066.213-.03.32-.044c.11,0,.218-.025.327-.016a2.728,2.728,0,0,1,.327.009c.109,0,.215.023.321.034s.208.034.306.056.194.042.282.068c.178.044.33.092.44.126Z" transform="translate(-5472.806 -1076.637)" fill="#0c1b3c"/>
              </g>
            </g>
            <g id="Groupe_1899" data-name="Groupe 1899" transform="translate(0 3.943)" opacity="0.5">
              <g id="Groupe_1898" data-name="Groupe 1898">
                <g id="Groupe_1897" data-name="Groupe 1897">
                  <path id="Tracé_697" data-name="Tracé 697" d="M5452.387,1089.224a1.521,1.521,0,1,0,1.567-1.412A1.485,1.485,0,0,0,5452.387,1089.224Z" transform="translate(-5452.386 -1087.811)" fill="#d47c74"/>
                </g>
              </g>
            </g>
            <g id="Groupe_1902" data-name="Groupe 1902" transform="translate(8.747 3.943)" opacity="0.5">
              <g id="Groupe_1901" data-name="Groupe 1901">
                <g id="Groupe_1900" data-name="Groupe 1900">
                  <path id="Tracé_698" data-name="Tracé 698" d="M5477.178,1089.223a1.486,1.486,0,0,0,1.471,1.505,1.352,1.352,0,0,0,.792-.186,10.561,10.561,0,0,0,.367-2.274,1.162,1.162,0,0,0-1.063-.456A1.494,1.494,0,0,0,5477.178,1089.223Z" transform="translate(-5477.177 -1087.812)" fill="#d47c74"/>
                </g>
              </g>
            </g>
          </g>
        </g>
        <g id="Groupe_1913" data-name="Groupe 1913" transform="translate(0 67.72)">
          <g id="Groupe_1906" data-name="Groupe 1906" transform="translate(0 68.02)">
            <g id="Groupe_1905" data-name="Groupe 1905">
              <path id="Tracé_699" data-name="Tracé 699" d="M5391.052,1425.961a44.816,44.816,0,0,0,0,8.04,38.264,38.264,0,0,1,.516,4.549h-17.745s.452-2.8,6.582-4.3,5.614-8.912,5.614-8.912Z" transform="translate(-5373.823 -1425.338)" fill="#24292f"/>
            </g>
          </g>
          <g id="Groupe_1908" data-name="Groupe 1908" transform="translate(37.362 66.172)">
            <g id="Groupe_1907" data-name="Groupe 1907">
              <path id="Tracé_700" data-name="Tracé 700" d="M5481.065,1421.949a33.363,33.363,0,0,1-.581,7.292,29.266,29.266,0,0,0-.774,5.92H5495s-.163-2.929-4.5-3.926-3.694-6.482-3.952-9.785S5481.065,1421.949,5481.065,1421.949Z" transform="translate(-5479.71 -1420.102)" fill="#24292f"/>
            </g>
          </g>
          <g id="Groupe_1910" data-name="Groupe 1910" transform="translate(8.906)">
            <g id="Groupe_1909" data-name="Groupe 1909">
              <path id="Tracé_701" data-name="Tracé 701" d="M5399.063,1302.455a25.047,25.047,0,0,0,3.145.454h0c.691.058,1.464.1,2.281.1a21.414,21.414,0,0,0,2.786-.172h0a16.076,16.076,0,0,0,1.978-.381,118.793,118.793,0,0,1,3.486-14.084,68.388,68.388,0,0,0,3.354-15.207c.129-2.618,6.067-21.19,7.485-25.8l1.937.125h0s0,.014.005.031c.008.043.024.127.046.247.012.057.022.123.036.2,0,.019.007.04.011.061.006.041.015.084.023.128l.02.106a.315.315,0,0,0,.007.037c0,.025.009.049.014.075.023.128.047.27.074.424l0,.018c.008.05.019.1.026.157s.024.142.038.216.024.139.036.213.024.146.038.223.025.152.039.233c.033.2.067.409.1.629,0,.023.006.048.011.072.016.1.033.212.051.32.01.049.016.1.024.151s.016.094.023.142c.03.19.061.386.091.588.015.1.029.2.047.306s.035.239.053.362c.022.141.043.283.064.429.045.31.091.632.138.961,0,.019,0,.04.007.061.012.088.025.177.038.265,0,.028.008.057.012.085.008.061.016.123.024.185.014.1.027.2.042.308.061.453.12.921.179,1.4.013.107.027.216.039.324l.077.642c.009.089.019.178.031.269a.029.029,0,0,0,0,.01l.024.228c.008.071.017.141.024.213.012.117.025.235.038.354,0,.046.009.093.013.139.009.082.017.162.027.243,0,0,0,.009,0,.014.012.1.021.205.032.308.008.076.015.152.022.229.032.324.063.651.092.978.015.167.028.334.042.5.01.121.02.242.03.363.015.2.031.4.045.6,0,.035.006.068.008.1.014.18.026.359.038.538q.045.669.077,1.331c.008.186.018.373.025.558l0,.089c.008.176.014.351.019.526,0,.026,0,.053,0,.079,0,.085.005.17.008.256.005.18.009.358.012.535,0,.086,0,.173,0,.261,0,.058,0,.115,0,.172s0,.114,0,.17c0,.1,0,.194,0,.289,0,.257,0,.516,0,.776q0,.293,0,.588c0,.066,0,.132,0,.2,0,.142,0,.285-.005.428q-.01.719-.026,1.448t-.037,1.469c0,.058,0,.117,0,.175q-.012.517-.031,1.037-.026.765-.055,1.534c-.012.348-.027.7-.04,1.042s-.03.681-.044,1.022c0,.047,0,.094-.005.142-.011.254-.023.507-.034.761,0,.111-.01.221-.016.332,0,.044,0,.089-.006.133-.054,1.188-.111,2.366-.169,3.524-.014.266-.027.531-.039.8-.028.561-.056,1.116-.083,1.662-.015.291-.028.58-.042.866,0,.08-.008.159-.012.238,0,.063-.005.125-.008.188-.015.3-.029.6-.041.889-.007.149-.014.3-.021.443s-.014.293-.019.439c-.005.1-.008.191-.013.287q-.018.391-.033.772c-.006.16-.013.32-.019.479,0,.1-.008.2-.011.3l0,.066c0,.023,0,.045,0,.067l-.012.338c0,.084-.005.167-.009.249-.005.168-.011.333-.017.5,0,.083-.005.163-.007.244,0,.054,0,.107,0,.161,0,.1-.005.193-.008.287,0,.063,0,.125,0,.187s0,.1,0,.157,0,.1,0,.155l0,.1c0,.042,0,.085,0,.128,0,.023,0,.047,0,.072v.006c-.129,6.482-.258,10.344-.258,10.344a21.346,21.346,0,0,0,2.462.486h0a17.916,17.916,0,0,0,5.557.006,8.694,8.694,0,0,0,2.3-.74s1-15.722,1.319-24.938h0c.037-1.024.064-1.968.082-2.8.007-.381.012-.739.015-1.071q0-.318,0-.6v-.079c0-.068,0-.138,0-.211,0-.689.01-1.553.024-2.555v0c.074-5.858.271-16.446-.1-24.535-.076-1.619-.171-3.138-.295-4.5q-.067-.708-.14-1.354c-.034-.3-.07-.591-.109-.869a15.57,15.57,0,0,0-.681-3.142v0a2.44,2.44,0,0,0-.511-.893c-.489-.473-1.742-.762-3.432-.921h-.006c-.4-.037-.817-.068-1.256-.093-1.1-.059-2.318-.079-3.6-.069q-.331,0-.666.006c-.777.009-1.569.031-2.365.058h-.012c-1.09.039-2.187.09-3.254.152-.222.012-.446.024-.666.039-.2.01-.392.022-.587.035a70.85,70.85,0,0,1-8.63-.033l-.149.633c-.219.935-.611,2.616-.686,3-.7,3.511-2.088,10.881-2.829,18.135-.343,3.354-.972,7.964-1.824,13.223-.122.762-.251,1.538-.383,2.325-.015.088-.03.175-.044.261-.043.252-.085.5-.129.758-.039.226-.078.454-.117.683q-.245,1.41-.506,2.862C5403.586,1283.761,5401.45,1293.821,5399.063,1302.455Z" transform="translate(-5399.063 -1232.565)" fill="#3a3e49"/>
            </g>
          </g>
          <g id="Groupe_1912" data-name="Groupe 1912" transform="translate(35.362 14.922)">
            <g id="Groupe_1911" data-name="Groupe 1911">
              <path id="Tracé_702" data-name="Tracé 702" d="M5476.105,1293.8c0,8.226-.774,18.2-.9,24.679a65.009,65.009,0,0,1,2.318-13.212c2.124-7.85.65-14.458,0-22.187s-3.479-8.226-3.479-8.226A121.991,121.991,0,0,1,5476.105,1293.8Z" transform="translate(-5474.041 -1274.854)" fill="#24292f"/>
            </g>
          </g>
        </g>
        <g id="Groupe_1941" data-name="Groupe 1941" transform="translate(39.921 28.409)">
          <g id="Groupe_1916" data-name="Groupe 1916" transform="translate(17.389 38.483)">
            <g id="Groupe_1915" data-name="Groupe 1915">
              <g id="Groupe_1914" data-name="Groupe 1914">
                <path id="Tracé_703" data-name="Tracé 703" d="M5536.244,1234.511c.009.029.018.059.025.089.014.046.028.091.041.136a13.749,13.749,0,0,0,.613,1.667.012.012,0,0,1,0,.009c.127.282.273.574.441.888a13.133,13.133,0,0,0,1.093,1.7,19.059,19.059,0,0,1,2.649,4.334c.2.389.369.551.508.56a.082.082,0,0,0,.047,0c.38-.066.515-1.323.46-2.081-.082-1.133-1.332-2.629-.785-4.32a1.78,1.78,0,0,1,.066-.173c.608-1.33,2.235,1.113,2.056,2.162a5.736,5.736,0,0,0,.248,3.59c.533.929,1.614,1.357,1.589,1.031-.127-1.6-.253-1.88-.25-3.073.167.171.683,1.987,1.108,1.566a28.025,28.025,0,0,0-.3-6.749c-.257-1.311-2.816-3.645-4.992-4.562a5.038,5.038,0,0,0-1.2-.357c-.715-.107-.469-.669-.979-.7C5537.546,1230.079,5536.444,1233.828,5536.244,1234.511Z" transform="translate(-5536.244 -1230.219)" fill="#f6a49d"/>
              </g>
            </g>
          </g>
          <g id="Groupe_1931" data-name="Groupe 1931" transform="translate(8.618 44.629)">
            <g id="Groupe_1918" data-name="Groupe 1918" transform="translate(3.11 4.469)">
              <g id="Groupe_1917" data-name="Groupe 1917">
                <path id="Tracé_704" data-name="Tracé 704" d="M5523.714,1287.376l28.415-2.765a2.007,2.007,0,0,0,1.8-2.127l-1.437-20.424a1.88,1.88,0,0,0-2.069-1.75L5522,1263.075a2.007,2.007,0,0,0-1.8,2.127l1.437,20.424A1.881,1.881,0,0,0,5523.714,1287.376Z" transform="translate(-5520.203 -1260.301)" fill="#543845"/>
              </g>
            </g>
            <g id="Groupe_1920" data-name="Groupe 1920" transform="translate(0 4.771)">
              <g id="Groupe_1919" data-name="Groupe 1919">
                <path id="Tracé_705" data-name="Tracé 705" d="M5511.393,1266.059l1.437,20.424a1.881,1.881,0,0,0,2.069,1.75l28.415-2.765a2.006,2.006,0,0,0,1.8-2.127l-1.436-20.424a1.881,1.881,0,0,0-2.069-1.751l-28.415,2.766a2.009,2.009,0,0,0-1.788,1.763A1.965,1.965,0,0,0,5511.393,1266.059Z" transform="translate(-5511.388 -1261.158)" fill="#805568"/>
              </g>
            </g>
            <g id="Groupe_1922" data-name="Groupe 1922" transform="translate(9.123)">
              <g id="Groupe_1921" data-name="Groupe 1921">
                <path id="Tracé_706" data-name="Tracé 706" d="M5542.989,1262.124h0c-2.3,0-5.4-.537-5.725-5.184a8.75,8.75,0,0,1,7.826-9.263c.275-.027.554-.04.828-.04a8.224,8.224,0,0,1,8.261,7.729c.4,5.722-6.091,6.354-8.864,6.624C5544.366,1262.081,5543.626,1262.124,5542.989,1262.124Zm2.929-11.833c-.189,0-.381.01-.571.028a6.078,6.078,0,0,0-5.435,6.434c.15,2.132.812,2.716,3.077,2.716h0c.549,0,1.207-.039,2.069-.123,5.556-.541,6.6-1.908,6.472-3.795A5.591,5.591,0,0,0,5545.918,1250.291Z" transform="translate(-5537.243 -1247.636)" fill="#543845"/>
              </g>
            </g>
            <g id="Groupe_1924" data-name="Groupe 1924" transform="translate(7.705 0.138)">
              <g id="Groupe_1923" data-name="Groupe 1923">
                <path id="Tracé_707" data-name="Tracé 707" d="M5538.973,1262.515h0c-2.3,0-5.4-.538-5.725-5.184a8.75,8.75,0,0,1,7.826-9.263c.274-.027.554-.04.828-.04a8.223,8.223,0,0,1,8.261,7.728c.4,5.722-6.091,6.354-8.864,6.624C5540.349,1262.472,5539.61,1262.515,5538.973,1262.515Zm2.929-11.833c-.189,0-.381.009-.571.028a6.077,6.077,0,0,0-5.435,6.434c.15,2.132.812,2.716,3.077,2.716h0c.549,0,1.207-.039,2.068-.123,5.556-.541,6.605-1.908,6.473-3.795A5.592,5.592,0,0,0,5541.9,1250.682Z" transform="translate(-5533.226 -1248.027)" fill="#805568"/>
              </g>
            </g>
            <g id="Groupe_1926" data-name="Groupe 1926" transform="translate(0.013 4.771)">
              <g id="Groupe_1925" data-name="Groupe 1925">
                <path id="Tracé_708" data-name="Tracé 708" d="M5511.425,1265.7l16.851,9.005,15.441-11.513-.019-.27a1.881,1.881,0,0,0-2.069-1.751l-28.415,2.766A2.009,2.009,0,0,0,5511.425,1265.7Z" transform="translate(-5511.425 -1261.158)" fill="#915e77"/>
              </g>
            </g>
            <g id="Groupe_1928" data-name="Groupe 1928" transform="translate(14.88 16.369)">
              <g id="Groupe_1927" data-name="Groupe 1927">
                <path id="Tracé_709" data-name="Tracé 709" d="M5555.271,1297.943l2.154-.21a1.616,1.616,0,0,0,1.446-1.712l-.04-.576a1.515,1.515,0,0,0-1.667-1.409l-2.155.21a1.616,1.616,0,0,0-1.446,1.712l.041.576A1.514,1.514,0,0,0,5555.271,1297.943Z" transform="translate(-5553.56 -1294.028)" fill="#f5911f"/>
              </g>
            </g>
            <g id="Groupe_1930" data-name="Groupe 1930" transform="translate(14.228 16.433)">
              <g id="Groupe_1929" data-name="Groupe 1929">
                <path id="Tracé_710" data-name="Tracé 710" d="M5553.423,1298.122l2.154-.209a1.616,1.616,0,0,0,1.447-1.712l-.041-.576a1.514,1.514,0,0,0-1.667-1.41l-2.154.21a1.616,1.616,0,0,0-1.447,1.712l.041.576A1.514,1.514,0,0,0,5553.423,1298.122Z" transform="translate(-5551.712 -1294.207)" fill="#ffab40"/>
              </g>
            </g>
          </g>
          <g id="Groupe_1934" data-name="Groupe 1934" transform="translate(17.451 40.2)">
            <g id="Groupe_1933" data-name="Groupe 1933">
              <g id="Groupe_1932" data-name="Groupe 1932">
                <path id="Tracé_711" data-name="Tracé 711" d="M5541.237,1246.479a19,19,0,0,0-2.649-4.333,12.949,12.949,0,0,1-1.091-1.7,14.238,14.238,0,0,1-.692-1.426,11.75,11.75,0,0,1-.384-1.135l3.787-2.7.141-.1c2.3.34,1.663,3.86,1.119,5.553s.705,3.186.786,4.321C5542.328,1246.01,5542.037,1248.025,5541.237,1246.479Z" transform="translate(-5536.42 -1235.085)" fill="#f6a49d"/>
              </g>
            </g>
          </g>
          <g id="Groupe_1936" data-name="Groupe 1936" transform="translate(16.982 38.482)">
            <g id="Groupe_1935" data-name="Groupe 1935">
              <path id="Tracé_712" data-name="Tracé 712" d="M5535.091,1233.549a8.756,8.756,0,0,0,.444,1.05c.069,0,.14.006.208.009a4.447,4.447,0,0,0,4.1-2.586,4.3,4.3,0,0,0,.266-.742,5.039,5.039,0,0,0-1.2-.357c-.715-.107-.469-.669-.979-.7C5536.785,1230.075,5535.27,1232.939,5535.091,1233.549Z" transform="translate(-5535.091 -1230.215)" fill="#d47c74"/>
            </g>
          </g>
          <g id="Groupe_1938" data-name="Groupe 1938">
            <g id="Groupe_1937" data-name="Groupe 1937">
              <path id="Tracé_713" data-name="Tracé 713" d="M5507.583,1162.612h0a4.451,4.451,0,0,1-6.558-1.5c-1.455-2.734-3.375-6.215-5.152-9.043a34.873,34.873,0,0,1-2.958-5.324c-1.1-3.284-4.9-9.576-5.755-12.337-.39-1.266-.142-4.161.241-6.922.451-3.258,1.09-6.331,1.09-6.331s5.114,2.343,7.635,9.369,3.158,10.73,5.752,13.722c1.755,2.024,5.1,8.72,7.086,12.841A4.452,4.452,0,0,1,5507.583,1162.612Z" transform="translate(-5486.963 -1121.155)" fill="#cbc0e0"/>
            </g>
          </g>
          <g id="Groupe_1940" data-name="Groupe 1940" transform="translate(0 3.172)" opacity="0.69">
            <g id="Groupe_1939" data-name="Groupe 1939">
              <path id="Tracé_714" data-name="Tracé 714" d="M5495.872,1157.887a34.873,34.873,0,0,1-2.958-5.324c-1.1-3.284-4.9-9.576-5.755-12.337-.39-1.266-.142-4.161.241-6.922a27.182,27.182,0,0,1,1.313-3.159s4.192,5.441,3.944,9.762.041,6.566,1.778,9.988C5495.567,1152.126,5495.828,1155.682,5495.872,1157.887Z" transform="translate(-5486.963 -1130.145)" fill="#b8a9db"/>
            </g>
          </g>
        </g>
        <g id="Groupe_1943" data-name="Groupe 1943" transform="translate(20.156 27.585)">
          <g id="Groupe_1942" data-name="Groupe 1942">
            <path id="Tracé_715" data-name="Tracé 715" d="M5430.947,1120.342s.281,6.525.628,13.513c.167,3.411.353,6.856.53,9.554.031.489.064.954.095,1.389.037.526.071,1.021.094,1.476.062,1.039.089,1.873.07,2.418-.035,1-.1,1.935-.146,2.8-.127,2.135-.189,3.859.418,5.06a2.844,2.844,0,0,0,.693.9v0c.072.062.148.124.228.179.757.534,3.877,1.2,7.6,1.613h0c.195.023.39.042.586.063.22.023.441.045.667.064,1.846.172,3.79.274,5.628.264.225,0,.447,0,.667-.01.723-.013,1.424-.048,2.089-.1.077-.01.152-.016.229-.021a1.1,1.1,0,0,0,.111-.012l.071-.006c.044,0,.087-.007.133-.013a.3.3,0,0,1,.041,0c.06-.006.115-.011.173-.019l.054-.006c.042,0,.085-.01.129-.015l.169-.019c.069-.01.142-.019.212-.031.027,0,.054-.006.083-.01s.084-.013.127-.019l.207-.033.117-.017c.062-.012.125-.021.185-.033.166-.029.33-.064.488-.095a.758.758,0,0,1,.094-.021.867.867,0,0,1,.092-.021c.016,0,.033-.008.048-.013h0c.106-.023.212-.05.312-.075.029-.008.058-.017.089-.023l.085-.025c.088-.023.175-.048.256-.075.058-.017.11-.035.164-.054l.083-.025c.025-.01.052-.019.079-.027.106-.039.207-.077.3-.118.027-.01.052-.021.075-.031s.048-.021.073-.029.046-.021.07-.033c.046-.021.092-.044.136-.066a.48.48,0,0,0,.067-.033.513.513,0,0,0,.06-.031c.025-.012.046-.025.071-.037l.124-.071.062-.035c.048-.033.1-.062.143-.092a3.041,3.041,0,0,0,.378-.3c.025-.021.048-.044.073-.069a1.445,1.445,0,0,0,.1-.108c.011-.013.019-.025.031-.037s.042-.052.062-.077a.2.2,0,0,1,.025-.037,1.471,1.471,0,0,0,.133-.22c.011-.021.019-.04.031-.061a6.162,6.162,0,0,0,.358-1.031c.015-.058.031-.112.044-.17.056-.229.106-.474.152-.73.012-.063.021-.129.033-.195,0-.031.011-.065.015-.1.012-.066.021-.133.031-.2v0c.015-.1.029-.2.042-.308l.012-.108c.015-.133.031-.268.044-.4.006-.046.01-.095.014-.141.01-.092.018-.187.027-.281.023-.285.04-.582.056-.885v0c.039-.723.054-1.5.05-2.307,0-.056,0-.112,0-.168q0-.518-.017-1.05v-.037l-.005-.258a.224.224,0,0,1,0-.041c0-.073-.005-.144-.008-.219-.008-.266-.019-.536-.032-.807,0-.083-.006-.166-.012-.25s-.008-.183-.012-.274-.009-.177-.015-.266c-.01-.181-.018-.362-.031-.545,0-.058-.008-.117-.011-.173a.787.787,0,0,0,0-.079c0-.052-.007-.106-.009-.158l-.013-.2c-.006-.07-.01-.143-.016-.216-.006-.108-.016-.218-.021-.328-.008-.062-.009-.121-.015-.181-.008-.11-.015-.218-.025-.326s-.014-.189-.021-.285c-.035-.472-.077-.944-.121-1.422l-.035-.4c-.025-.253-.048-.5-.073-.758-.019-.191-.036-.379-.06-.57-.037-.385-.079-.771-.123-1.156-.018-.165-.035-.329-.054-.495-.058-.528-.121-1.058-.185-1.586-.006-.057-.014-.111-.019-.168s-.013-.111-.02-.166c-.009-.073-.019-.142-.027-.212-.025-.181-.046-.36-.069-.542-.041-.312-.081-.628-.119-.938-.023-.16-.043-.318-.064-.476a.049.049,0,0,1,0-.023c-.015-.1-.027-.208-.04-.308-.072-.513-.141-1.019-.212-1.521-.023-.174-.048-.343-.071-.514-.021-.127-.038-.252-.056-.376q-.139-.954-.275-1.856c-.056-.372-.114-.736-.17-1.092v0c-.07-.455-.141-.9-.208-1.322-.009-.056-.017-.11-.027-.164a43.8,43.8,0,0,0-2.94-8.873l-5.166-.622-1.106-.123a10.963,10.963,0,0,1-3.835.8h-.135a6.433,6.433,0,0,1-2.887-.669l-.441-.229-1.965.3Z" transform="translate(-5430.947 -1118.82)" fill="#cbc0e0"/>
          </g>
        </g>
        <g id="Groupe_1945" data-name="Groupe 1945" transform="translate(34.432 37.464)">
          <g id="Groupe_1944" data-name="Groupe 1944">
            <path id="Tracé_716" data-name="Tracé 716" d="M5471.406,1177.013s.159.03.446.076c.479.076,1.32.2,2.366.321l.667.07c.646.065,1.353.122,2.089.164l.229-.023c.038,0,.075-.006.112-.01s.046,0,.07-.009c.044,0,.088-.008.134-.015l.04,0c.06-.006.117-.013.172-.021l.055-.006.13-.017c.057-.006.112-.015.169-.023l.213-.031.081-.013c.042-.006.086-.013.128-.021l.207-.034.117-.023c.063-.01.125-.023.185-.034.167-.034.33-.068.488-.105l.095-.023.092-.023.053-.013c.105-.027.208-.057.312-.084.029-.009.058-.019.088-.028l.086-.025c.087-.027.171-.055.255-.084.057-.017.11-.038.165-.057.026-.011.055-.021.082-.03l.079-.032c.1-.04.207-.084.305-.129.024-.01.048-.021.073-.034s.048-.021.073-.034.046-.023.07-.034l.136-.072.068-.038.059-.032.071-.042c.042-.025.083-.053.123-.078a.69.69,0,0,0,.062-.04,3,3,0,0,0,.594-.511c.035-.04.068-.08.1-.12.011-.013.022-.028.031-.04.022-.029.042-.057.062-.086a.315.315,0,0,1,.024-.04,1.835,1.835,0,0,0,.134-.243c.011-.021.02-.044.031-.068a7.738,7.738,0,0,0,.361-1.142c.013-.061.028-.122.042-.186.055-.253.106-.524.152-.806l.033-.214c.006-.038.011-.074.015-.112.011-.072.02-.145.031-.219v0c.016-.112.028-.226.042-.342,0-.04.009-.08.013-.118.022-.2.04-.4.058-.6v0c.035-.411.063-.842.083-1.29v0c.026-.561.042-1.15.046-1.762q0-.517-.018-1.049v-.038c0-.086,0-.171-.007-.258a.278.278,0,0,1,0-.04l-.007-.219c-.009-.266-.02-.536-.033-.808,0-.082-.006-.164-.011-.249s-.009-.184-.013-.274-.009-.177-.016-.266c-.009-.181-.018-.363-.031-.544,0-.059-.007-.118-.011-.175,0-.028,0-.053,0-.078,0-.053-.007-.105-.009-.158l-.014-.2c-.006-.07-.011-.142-.015-.215-.007-.108-.016-.218-.022-.327-.007-.061-.009-.122-.015-.182-.007-.11-.016-.217-.024-.325s-.013-.19-.022-.285c-.035-.473-.077-.946-.121-1.423-.011-.133-.024-.266-.035-.4-.024-.253-.048-.5-.073-.758-.02-.19-.037-.38-.06-.57-.037-.386-.079-.77-.123-1.157-.018-.164-.035-.329-.055-.494-.058-.53-.121-1.059-.185-1.587-.007-.057-.013-.112-.02-.167s-.013-.112-.02-.167c-.009-.072-.018-.141-.027-.211-.024-.182-.046-.361-.068-.543-.042-.312-.082-.627-.121-.937-.022-.16-.042-.319-.064-.477a.087.087,0,0,1,0-.023c-.016-.1-.028-.207-.042-.308q-.106-.769-.211-1.52c-.024-.173-.048-.344-.072-.515-.021-.127-.038-.251-.055-.376q-.138-.953-.275-1.855c-.057-.372-.114-.737-.169-1.094l0,0q-.106-.684-.209-1.323a19.024,19.024,0,0,0-1.069,2.309,20.546,20.546,0,0,0-.437,7.708c.644,4-5.08,5.7-6.809,10.479a31.04,31.04,0,0,0-1.619,7.9c-.009.118-.015.23-.024.338-.018.268-.029.507-.038.707C5471.4,1176.74,5471.406,1177.013,5471.406,1177.013Z" transform="translate(-5471.406 -1146.817)" fill="#b8a9db"/>
          </g>
        </g>
        <g id="Groupe_1947" data-name="Groupe 1947" transform="translate(21.314 52.175)">
          <g id="Groupe_1946" data-name="Groupe 1946">
            <path id="Tracé_717" data-name="Tracé 717" d="M5434.341,1196.6c-.127,2.135-.189,3.859.418,5.06a13.414,13.414,0,0,0,1.9-4.1c.449-2.378,2.376-1.607,4.786-1.864s6.39-4.027,6.39-4.027l-13.606-3.158c.031.489.064.954.095,1.389.037.526.071,1.021.094,1.476.062,1.039.089,1.873.07,2.418C5434.452,1194.788,5434.391,1195.726,5434.341,1196.6Z" transform="translate(-5434.229 -1188.508)" fill="#b8a9db"/>
          </g>
        </g>
        <g id="Groupe_1954" data-name="Groupe 1954" transform="translate(21.314 64.923)">
          <g id="Groupe_1949" data-name="Groupe 1949" transform="translate(0 0.029)">
            <g id="Groupe_1948" data-name="Groupe 1948">
              <rect id="Rectangle_503" data-name="Rectangle 503" width="25.902" height="4.171" rx="2.086" transform="translate(25.902 4.171) rotate(180)" fill="#24292f"/>
            </g>
          </g>
          <g id="Groupe_1951" data-name="Groupe 1951" transform="translate(8.966)">
            <g id="Groupe_1950" data-name="Groupe 1950">
              <path id="Tracé_718" data-name="Tracé 718" d="M5466.295,1228.93h-5.343a1.316,1.316,0,0,1-1.314-1.314v-1.663a1.315,1.315,0,0,1,1.314-1.314h5.343a1.316,1.316,0,0,1,1.314,1.314v1.663A1.316,1.316,0,0,1,5466.295,1228.93Zm-5.343-3.622a.646.646,0,0,0-.646.645v1.663a.646.646,0,0,0,.646.645h5.343a.646.646,0,0,0,.646-.645v-1.663a.646.646,0,0,0-.646-.645Z" transform="translate(-5459.638 -1224.639)" fill="#fbd163"/>
            </g>
          </g>
          <g id="Groupe_1953" data-name="Groupe 1953" transform="translate(9.664 0.639)">
            <g id="Groupe_1952" data-name="Groupe 1952">
              <path id="Tracé_719" data-name="Tracé 719" d="M5467.547,1229.463h-5.283a.646.646,0,0,1-.646-.646v-1.72a.646.646,0,0,1,.646-.646h5.283a.646.646,0,0,1,.645.646v1.72A.646.646,0,0,1,5467.547,1229.463Zm-5.26-.669h5.236v-1.675h-5.236Z" transform="translate(-5461.618 -1226.451)" fill="#ffb000"/>
            </g>
          </g>
        </g>
        <g id="Groupe_1956" data-name="Groupe 1956" transform="translate(31.301 25.896)">
          <g id="Groupe_1955" data-name="Groupe 1955">
            <path id="Tracé_720" data-name="Tracé 720" d="M5466.431,1114.034l2.031,2.02-5.5,3.62-.431-3.635Z" transform="translate(-5462.532 -1114.034)" fill="#fff"/>
          </g>
        </g>
        <g id="Groupe_1958" data-name="Groupe 1958" transform="translate(25.192 25.878)">
          <g id="Groupe_1957" data-name="Groupe 1957">
            <path id="Tracé_721" data-name="Tracé 721" d="M5447.2,1113.981l-1.976,2.127,5.713,3.531.4-3.635Z" transform="translate(-5445.22 -1113.981)" fill="#fff"/>
          </g>
        </g>
        <g id="Groupe_1960" data-name="Groupe 1960" transform="translate(23.355 38.04)">
          <g id="Groupe_1959" data-name="Groupe 1959">
            <path id="Tracé_722" data-name="Tracé 722" d="M5440.014,1148.449s5.029,1.366,6.563,4.792,5.532,4.132,6.937,4,3.724,4,3.724,4l-16.465-2.841Z" transform="translate(-5440.014 -1148.449)" fill="#b8a9db"/>
          </g>
        </g>
        <g id="Groupe_1978" data-name="Groupe 1978" transform="translate(28.278 34.836)">
          <g id="Groupe_1971" data-name="Groupe 1971" transform="translate(0 0)">
            <g id="Groupe_1962" data-name="Groupe 1962" transform="translate(7.373)">
              <g id="Groupe_1961" data-name="Groupe 1961">
                <path id="Tracé_723" data-name="Tracé 723" d="M5500.451,1141.02l.081,14.161a1.636,1.636,0,0,1-1.029,1.537,1.574,1.574,0,0,1-.59.113l-22.331,0a1.648,1.648,0,0,1-1.635-1.551c0-.033,0-.066,0-.1l-.081-14.162a1.628,1.628,0,0,1,1.62-1.65l22.331,0a1.58,1.58,0,0,1,.591.113A1.659,1.659,0,0,1,5500.451,1141.02Z" transform="translate(-5474.862 -1139.37)" fill="#b8bbbc"/>
              </g>
            </g>
            <g id="Groupe_1964" data-name="Groupe 1964" transform="translate(8.626)">
              <g id="Groupe_1963" data-name="Groupe 1963">
                <path id="Tracé_724" data-name="Tracé 724" d="M5504,1141.02l.081,14.161a1.627,1.627,0,0,1-1.62,1.65l-22.331,0a1.646,1.646,0,0,1-1.633-1.551c0-.033,0-.066,0-.1l-.081-14.161a1.627,1.627,0,0,1,1.618-1.65h22.331A1.65,1.65,0,0,1,5504,1141.02Z" transform="translate(-5478.411 -1139.37)" fill="#d6d7d8"/>
              </g>
            </g>
            <g id="Groupe_1966" data-name="Groupe 1966" transform="translate(0 15.911)">
              <g id="Groupe_1965" data-name="Groupe 1965">
                <path id="Tracé_725" data-name="Tracé 725" d="M5467.845,1185.26a.789.789,0,0,1-.535.755.759.759,0,0,1-.247.041h-12.308a.788.788,0,0,1-.558-.232.81.81,0,0,1-.233-.563.786.786,0,0,1,.781-.8h12.308a.784.784,0,0,1,.556.232A.807.807,0,0,1,5467.845,1185.26Z" transform="translate(-5453.965 -1184.464)" fill="#b8bbbc"/>
              </g>
            </g>
            <g id="Groupe_1968" data-name="Groupe 1968" transform="translate(0.566 15.911)">
              <g id="Groupe_1967" data-name="Groupe 1967">
                <path id="Tracé_726" data-name="Tracé 726" d="M5469.448,1185.26a.789.789,0,0,1-.535.755.761.761,0,0,1-.247.041h-12.308a.783.783,0,0,1-.557-.232.806.806,0,0,1-.234-.563.786.786,0,0,1,.781-.8h12.308a.79.79,0,0,1,.558.232A.812.812,0,0,1,5469.448,1185.26Z" transform="translate(-5455.569 -1184.464)" fill="#d6d7d8"/>
              </g>
            </g>
            <g id="Groupe_1970" data-name="Groupe 1970" transform="translate(18.989 6.229)">
              <g id="Groupe_1969" data-name="Groupe 1969">
                <path id="Tracé_727" data-name="Tracé 727" d="M5512.723,1159.526a2.469,2.469,0,0,1-2.456,2.5,2.5,2.5,0,0,1-2.484-2.5,2.47,2.47,0,0,1,2.456-2.5A2.5,2.5,0,0,1,5512.723,1159.526Z" transform="translate(-5507.782 -1157.024)" fill="#fff"/>
              </g>
            </g>
          </g>
          <g id="Groupe_1973" data-name="Groupe 1973" transform="translate(12.902 0.001)" opacity="0.3">
            <g id="Groupe_1972" data-name="Groupe 1972">
              <path id="Tracé_728" data-name="Tracé 728" d="M5491.977,1139.373l.1,17.461h-.539a.758.758,0,0,1-.247.041h-.662l-.1-17.5Z" transform="translate(-5490.53 -1139.373)" fill="#fff"/>
            </g>
          </g>
          <g id="Groupe_1975" data-name="Groupe 1975" transform="translate(31.191)" opacity="0.3">
            <g id="Groupe_1974" data-name="Groupe 1974">
              <path id="Tracé_729" data-name="Tracé 729" d="M5543.085,1139.37l.1,17.461h-.724l-.1-17.461Z" transform="translate(-5542.362 -1139.37)" fill="#fff"/>
            </g>
          </g>
          <g id="Groupe_1977" data-name="Groupe 1977" transform="translate(28.013 0)" opacity="0.3">
            <g id="Groupe_1976" data-name="Groupe 1976">
              <path id="Tracé_730" data-name="Tracé 730" d="M5535.759,1139.37l.1,17.461h-2.4l-.1-17.461Z" transform="translate(-5533.357 -1139.37)" fill="#fff"/>
            </g>
          </g>
        </g>
        <g id="Groupe_1980" data-name="Groupe 1980" transform="translate(40.741 48.707)">
          <g id="Groupe_1979" data-name="Groupe 1979">
            <path id="Tracé_731" data-name="Tracé 731" d="M5489.287,1181.491l.3,3.164s1.185.339,2.657.651a15.418,15.418,0,0,0,4.345.5c2.453-.307,3.243-1.762,3.437-2.413a.978.978,0,0,0-.235-.79.664.664,0,0,0,.555-.259.793.793,0,0,0-.292-1.293s1.627-.915,1.622-1.621c-.012-1.343-3.706-.594-6.2.117-1.97.563-4.341,1.5-4.341,1.5C5490.056,1181.3,5489.287,1181.491,5489.287,1181.491Z" transform="translate(-5489.287 -1178.681)" fill="#f6a49d"/>
          </g>
        </g>
        <g id="Groupe_1983" data-name="Groupe 1983" transform="translate(40.741 51.072)">
          <g id="Groupe_1982" data-name="Groupe 1982">
            <g id="Groupe_1981" data-name="Groupe 1981">
              <path id="Tracé_732" data-name="Tracé 732" d="M5489.287,1185.829l.3,3.164s1.185.339,2.657.651c.033-.075.066-.15.095-.229a3.547,3.547,0,0,0,.222-1.3c0-.065-.006-.127-.01-.189a3.47,3.47,0,0,0-.168-.844h0a3.447,3.447,0,0,0-1.187-1.655.547.547,0,0,0-.056-.038C5490.056,1185.638,5489.287,1185.829,5489.287,1185.829Z" transform="translate(-5489.287 -1185.384)" fill="#d47c74"/>
            </g>
          </g>
        </g>
        <g id="Groupe_1986" data-name="Groupe 1986" transform="translate(15.746 29.107)">
          <g id="Groupe_1985" data-name="Groupe 1985">
            <g id="Groupe_1984" data-name="Groupe 1984">
              <path id="Tracé_733" data-name="Tracé 733" d="M5419.667,1147.338c2,2.746,12.988,4.087,19.176,3.881a12.129,12.129,0,0,0,5.157-1.267h0a3.588,3.588,0,0,0,1.451-1.784,3.52,3.52,0,0,0,.222-1.305c0-.064,0-.127-.01-.189a3.444,3.444,0,0,0-.168-.843v0a3.449,3.449,0,0,0-1.187-1.654c-1.892-1.437-16-2.949-15.352-4.261.12-.246,1.038-5.908-.712-10.161-1.428-3.471-5.387-6.618-5.387-6.618a9.423,9.423,0,0,0-2.8,4.914C5418.2,1134.851,5417.8,1144.78,5419.667,1147.338Z" transform="translate(-5418.448 -1123.134)" fill="#cbc0e0"/>
            </g>
          </g>
        </g>
        <g id="Groupe_1988" data-name="Groupe 1988" transform="translate(40.723 101.506)">
          <g id="Groupe_1987" data-name="Groupe 1987">
            <ellipse id="Ellipse_12" data-name="Ellipse 12" cx="3.669" cy="1.923" rx="3.669" ry="1.923" fill="#24292f"/>
          </g>
        </g>
        <g id="Groupe_1990" data-name="Groupe 1990" transform="translate(16.508 101.506)">
          <g id="Groupe_1989" data-name="Groupe 1989">
            <ellipse id="Ellipse_13" data-name="Ellipse 13" cx="3.669" cy="1.923" rx="3.669" ry="1.923" fill="#24292f"/>
          </g>
        </g>
        <g id="Groupe_1992" data-name="Groupe 1992" transform="translate(22.4 45.707)">
          <g id="Groupe_1991" data-name="Groupe 1991">
            <path id="Tracé_734" data-name="Tracé 734" d="M5441.16,1170.358s-4.662-.722-3.73.723C5438.223,1172.313,5441.16,1170.358,5441.16,1170.358Z" transform="translate(-5437.306 -1170.177)" fill="#b8a9db"/>
          </g>
        </g>
        <g id="Groupe_1994" data-name="Groupe 1994" transform="translate(25.014 45.887)">
          <g id="Groupe_1993" data-name="Groupe 1993">
            <path id="Tracé_735" data-name="Tracé 735" d="M5445.954,1170.688s-.133,2.254-.977,1.912C5444.026,1172.214,5445.954,1170.688,5445.954,1170.688Z" transform="translate(-5444.713 -1170.688)" fill="#b8a9db"/>
          </g>
        </g>
      </g>
    </g>
  </g>
</svg>
