<svg xmlns="http://www.w3.org/2000/svg" width="210" height="210" viewBox="0 0 210 210">
  <g id="Groupe_2140" data-name="Groupe 2140" transform="translate(-1447 -1143)">
    <g id="Ellipse_7" data-name="Ellipse 7" transform="translate(1447 1143)" fill="none" stroke="#f0f" stroke-width="3">
      <circle cx="105" cy="105" r="105" stroke="none"/>
      <circle cx="105" cy="105" r="103.5" fill="none"/>
    </g>
    <g id="Groupe_2136" data-name="Groupe 2136" transform="translate(-5967.335 110.905)">
      <g id="Groupe_2133" data-name="Groupe 2133" transform="translate(7437.335 1112.766)">
        <g id="Groupe_2029" data-name="Groupe 2029" transform="translate(58.119 11.817)">
          <g id="Groupe_2001" data-name="Groupe 2001">
            <g id="Groupe_1998" data-name="Groupe 1998">
              <g id="Groupe_1997" data-name="Groupe 1997">
                <path id="Tracé_736" data-name="Tracé 736" d="M7593.954,1159.05c.146,4.027,5.061,7.915,8.031,9.777l3.277,2.054,8.723-11.846s7.7-2.432,5.7-9.992a5.54,5.54,0,0,0-4.677-4.311c-4.113-.712-9.66,1.813-12.147,4.877a23.566,23.566,0,0,0-3.062,4.74s-4.722-1.006-5.732,3.447A4.873,4.873,0,0,0,7593.954,1159.05Z" transform="translate(-7593.95 -1144.61)" fill="#24292f"/>
              </g>
            </g>
            <g id="Groupe_2000" data-name="Groupe 2000">
              <g id="Groupe_1999" data-name="Groupe 1999">
                <path id="Tracé_737" data-name="Tracé 737" d="M7593.954,1159.05a16.087,16.087,0,0,0,21.057-14.318c-4.113-.712-9.66,1.813-12.147,4.877a23.566,23.566,0,0,0-3.062,4.74s-4.722-1.006-5.732,3.447A4.873,4.873,0,0,0,7593.954,1159.05Z" transform="translate(-7593.95 -1144.61)" fill="#3a3e49"/>
              </g>
            </g>
          </g>
          <g id="Groupe_2003" data-name="Groupe 2003" transform="translate(5.978 20.877)">
            <g id="Groupe_2002" data-name="Groupe 2002">
              <path id="Tracé_738" data-name="Tracé 738" d="M7625.51,1213.172a4.869,4.869,0,0,1-1.359,2.563c-1.228,1.3-3.634,4.683-8.9,2.935a7.083,7.083,0,0,1-5.195-6.5c1.058-.2,2.369-.194,2.878-.737.636-.677.665-6.258.639-9.022-.008-.929-.023-1.54-.023-1.54l8.639,3.728s-.214,2.27-.355,4.112c-.084,1.092-.142,2.034-.115,2.265C7621.9,1212.534,7625.51,1213.172,7625.51,1213.172Z" transform="translate(-7610.058 -1200.869)" fill="#f6a49d"/>
            </g>
          </g>
          <g id="Groupe_2005" data-name="Groupe 2005" transform="translate(9.471 20.877)">
            <g id="Groupe_2004" data-name="Groupe 2004">
              <path id="Tracé_739" data-name="Tracé 739" d="M7628.111,1204.6s-.214,2.27-.355,4.112a4.97,4.97,0,0,1-1.885.2c-4.663-.56-6.4-8.043-6.4-8.043Z" transform="translate(-7619.473 -1200.869)" fill="#d47c74"/>
            </g>
          </g>
          <g id="Groupe_2007" data-name="Groupe 2007" transform="translate(5.781 17.949)">
            <g id="Groupe_2006" data-name="Groupe 2006">
              <path id="Tracé_740" data-name="Tracé 740" d="M7615.68,1195.79c-.253.785-1.833.98-3.527.435s-2.772-1.578-2.608-2.407c.218-1.1,1.832-.98,3.527-.436S7615.934,1195,7615.68,1195.79Z" transform="translate(-7609.528 -1192.978)" fill="#d47c74"/>
            </g>
          </g>
          <g id="Groupe_2009" data-name="Groupe 2009" transform="translate(8.774 11.877)">
            <g id="Groupe_2008" data-name="Groupe 2008">
              <path id="Tracé_741" data-name="Tracé 741" d="M7617.621,1182.265c.34,5.507,3.46,9.792,7.28,9.558,2.781-.17,4.918-2.37,5.744-5.68a12.522,12.522,0,0,0,.344-2.273,14.773,14.773,0,0,0,0-1.854,31.258,31.258,0,0,0-.7-5.4c-.513.189-1.271.449-2.382.788-2.863.874-3.884.1-6.806.046-.472-.009-.976-.076-1.442-.109a1.719,1.719,0,0,0-1.808,1.374A14.012,14.012,0,0,0,7617.621,1182.265Z" transform="translate(-7617.594 -1176.617)" fill="#f6a49d"/>
            </g>
          </g>
          <g id="Groupe_2028" data-name="Groupe 2028" transform="translate(10.395 14.014)">
            <g id="Groupe_2011" data-name="Groupe 2011" transform="translate(3.66 8.496)">
              <g id="Groupe_2010" data-name="Groupe 2010">
                <path id="Tracé_742" data-name="Tracé 742" d="M7637.09,1205.269a7.926,7.926,0,0,1-5.265,0,2.811,2.811,0,0,0,3.168,2.086A2.377,2.377,0,0,0,7637.09,1205.269Z" transform="translate(-7631.825 -1205.269)" fill="#fff"/>
              </g>
            </g>
            <g id="Groupe_2013" data-name="Groupe 2013" transform="translate(5.766 4.337)">
              <g id="Groupe_2012" data-name="Groupe 2012">
                <path id="Tracé_743" data-name="Tracé 743" d="M7637.956,1196.308l.394-.007c.266,0,.471-.187.441-.391l-.226-1.543a.423.423,0,0,0-.454-.307h0a.423.423,0,0,0-.442.323l-.168,1.55C7637.479,1196.139,7637.69,1196.313,7637.956,1196.308Z" transform="translate(-7637.5 -1194.06)" fill="#d47c74"/>
              </g>
            </g>
            <g id="Groupe_2015" data-name="Groupe 2015" transform="translate(1.932 2.251)">
              <g id="Groupe_2014" data-name="Groupe 2014">
                <ellipse id="Ellipse_14" data-name="Ellipse 14" cx="0.532" cy="0.704" rx="0.532" ry="0.704" transform="matrix(0.998, -0.056, 0.056, 0.998, 0, 0.06)" fill="#0c1b3c"/>
              </g>
            </g>
            <g id="Groupe_2017" data-name="Groupe 2017" transform="translate(0.246 0.112)">
              <g id="Groupe_2016" data-name="Groupe 2016">
                <path id="Tracé_744" data-name="Tracé 744" d="M7626.5,1183.692a.922.922,0,0,0-.1-.17,1.874,1.874,0,0,0-.362-.375,2.071,2.071,0,0,0-.295-.194,2.354,2.354,0,0,0-.365-.161,2.371,2.371,0,0,0-.872-.112,2.6,2.6,0,0,0-.444.072,3.765,3.765,0,0,0-.405.149c-.123.065-.235.137-.34.2a2.256,2.256,0,0,0-.266.228,1.314,1.314,0,0,0-.194.218c-.053.069-.093.134-.126.187a1.645,1.645,0,0,0-.1.17s.074-.017.189-.057c.058-.02.127-.042.2-.073a2.553,2.553,0,0,1,.256-.085c.093-.027.186-.07.289-.1s.208-.056.315-.087.221-.043.333-.064c.113,0,.225-.038.34-.035a2.61,2.61,0,0,1,.341-.007c.113,0,.225.014.336.02s.219.026.322.045.2.035.3.058c.188.038.35.082.466.114Z" transform="translate(-7622.625 -1182.676)" fill="#0c1b3c"/>
              </g>
            </g>
            <g id="Groupe_2019" data-name="Groupe 2019" transform="translate(9.007 2.168)">
              <g id="Groupe_2018" data-name="Groupe 2018">
                <path id="Tracé_745" data-name="Tracé 745" d="M7646.236,1188.951c.021.389.277.69.57.673a.637.637,0,0,0,.492-.733c-.022-.388-.278-.69-.571-.673A.636.636,0,0,0,7646.236,1188.951Z" transform="translate(-7646.235 -1188.217)" fill="#0c1b3c"/>
              </g>
            </g>
            <g id="Groupe_2021" data-name="Groupe 2021" transform="translate(7.283)">
              <g id="Groupe_2020" data-name="Groupe 2020">
                <path id="Tracé_746" data-name="Tracé 746" d="M7645.459,1183.39a.914.914,0,0,0-.1-.17,1.851,1.851,0,0,0-.363-.375,2.006,2.006,0,0,0-.294-.195,2.354,2.354,0,0,0-.365-.161,2.377,2.377,0,0,0-.872-.112,2.6,2.6,0,0,0-.445.072,3.765,3.765,0,0,0-.405.149c-.123.065-.235.137-.34.2a2.268,2.268,0,0,0-.266.228,1.271,1.271,0,0,0-.194.218c-.053.069-.093.134-.127.187a1.727,1.727,0,0,0-.1.17s.074-.017.189-.057c.057-.02.127-.042.2-.073a2.572,2.572,0,0,1,.255-.085c.093-.027.186-.07.289-.1s.209-.056.315-.087.221-.043.332-.065c.114,0,.225-.038.34-.035a2.614,2.614,0,0,1,.341-.007c.114,0,.225.014.336.02s.219.026.322.045.2.035.3.058c.188.038.349.082.465.114Z" transform="translate(-7641.588 -1182.374)" fill="#0c1b3c"/>
              </g>
            </g>
            <g id="Groupe_2024" data-name="Groupe 2024" transform="translate(0 4.424)" opacity="0.5">
              <g id="Groupe_2023" data-name="Groupe 2023">
                <g id="Groupe_2022" data-name="Groupe 2022">
                  <path id="Tracé_747" data-name="Tracé 747" d="M7621.963,1195.907a1.586,1.586,0,1,0,1.556-1.611A1.584,1.584,0,0,0,7621.963,1195.907Z" transform="translate(-7621.962 -1194.296)" fill="#d47c74"/>
                </g>
              </g>
            </g>
            <g id="Groupe_2027" data-name="Groupe 2027" transform="translate(8.94 4.509)" opacity="0.5">
              <g id="Groupe_2026" data-name="Groupe 2026">
                <g id="Groupe_2025" data-name="Groupe 2025">
                  <path id="Tracé_748" data-name="Tracé 748" d="M7646.054,1196.133a1.587,1.587,0,0,0,2.49,1.271,12.518,12.518,0,0,0,.344-2.273,1.586,1.586,0,0,0-2.834,1Z" transform="translate(-7646.053 -1194.523)" fill="#d47c74"/>
                </g>
              </g>
            </g>
          </g>
        </g>
        <g id="Groupe_2042" data-name="Groupe 2042" transform="translate(77.022 31.921)">
          <g id="Groupe_2034" data-name="Groupe 2034" transform="translate(30.683)">
            <g id="Groupe_2031" data-name="Groupe 2031" transform="translate(0.824 1.545)">
              <g id="Groupe_2030" data-name="Groupe 2030">
                <path id="Tracé_749" data-name="Tracé 749" d="M7737.574,1207.1c-.709,1.27-2.87,4.258-4.127,5.971-.557.758-.938,1.269-.938,1.269l-2.379-.957a8.265,8.265,0,0,1-.168-.851,14.667,14.667,0,0,1-.167-1.917,12.938,12.938,0,0,1,.756-4.717,6.5,6.5,0,0,1,1.345-2.353,2.535,2.535,0,0,1,.38-.315,1.5,1.5,0,0,1,2.131.414,8.618,8.618,0,0,1,2.883,1.837A1.356,1.356,0,0,1,7737.574,1207.1Z" transform="translate(-7729.792 -1202.949)" fill="#d47c74"/>
              </g>
            </g>
            <g id="Groupe_2033" data-name="Groupe 2033">
              <g id="Groupe_2032" data-name="Groupe 2032">
                <path id="Tracé_750" data-name="Tracé 750" d="M7730.077,1199.587a2.672,2.672,0,0,1,.422,1.342,16.769,16.769,0,0,0,.9,4.592c.524,1.359-.266,2.883-.952,3.857a8.735,8.735,0,0,1-.818,1l-.786-.324a1.8,1.8,0,0,1-.278-.141,2.041,2.041,0,0,1-.992-1.748q0-.191,0-.422c0-.031,0-.065,0-.1,0-2.31.948-3.444,1.239-5.582a5.717,5.717,0,0,0-.281-2.809.345.345,0,0,1,.438-.451A2.51,2.51,0,0,1,7730.077,1199.587Z" transform="translate(-7727.571 -1198.785)" fill="#f6a49d"/>
              </g>
            </g>
          </g>
          <g id="Groupe_2037" data-name="Groupe 2037" transform="translate(30.683 8.962)">
            <g id="Groupe_2036" data-name="Groupe 2036">
              <g id="Groupe_2035" data-name="Groupe 2035">
                <path id="Tracé_751" data-name="Tracé 751" d="M7732.05,1225.644c-.557.758-.938,1.269-.938,1.269l-2.378-.957a8.4,8.4,0,0,1-.169-.851,2.04,2.04,0,0,1-.992-1.747q0-.191,0-.422Z" transform="translate(-7727.571 -1222.934)" fill="#d47c74"/>
              </g>
            </g>
          </g>
          <g id="Groupe_2039" data-name="Groupe 2039" transform="translate(0 10.632)">
            <g id="Groupe_2038" data-name="Groupe 2038">
              <path id="Tracé_752" data-name="Tracé 752" d="M7668.935,1245.062c-.039.052-.087.108-.134.16-.021.026-.048.047-.069.073a4.056,4.056,0,0,1-2.123.979,2.686,2.686,0,0,1-.559,0,16.571,16.571,0,0,1-3.015-.693c-1.607-.49-3.53-1.192-5.48-1.963-4.973-1.971-10.133-4.406-10.792-4.995a5.449,5.449,0,0,1-.979-1.14,3.339,3.339,0,0,1-.256-.437,5.512,5.512,0,0,1-.355-.84c-1.191-3.687,1.538-8.335,4.6-8.742.078-.009.156-.017.238-.022a2.177,2.177,0,0,1,.294,0c.044,0,.083,0,.122,0h.008a.24.24,0,0,1,.044.009c.4.13,2.751,1.486,4.6,2.556.688.4,1.3.767,1.729,1.009,3.726,2.153,7.862,4.622,8.482,5.307.026.034.047.06.061.082.221.381.438.762.654,1.139.229.4.455.8.671,1.191C7668.324,1241.644,7669.589,1244.148,7668.935,1245.062Z" transform="translate(-7644.887 -1227.436)" fill="#cbc0e0"/>
            </g>
          </g>
          <g id="Groupe_2041" data-name="Groupe 2041" transform="translate(15.593 9.561)">
            <g id="Groupe_2040" data-name="Groupe 2040">
              <path id="Tracé_753" data-name="Tracé 753" d="M7706.161,1227.427s-4.026,6.382-7.413,11.148c-1.885,2.651-3.576,4.806-4.261,5.078a.449.449,0,0,1-.069.024.534.534,0,0,1-.069.014l0,0c-1.557.292-5.081-3.7-6.654-5.59-.487-.582-.786-.966-.786-.966l4.054-3.406,10.931-9.182.128.084.862.583.193.127,1.3.88Z" transform="translate(-7686.905 -1224.549)" fill="#b8a9db"/>
            </g>
          </g>
        </g>
        <g id="Groupe_2044" data-name="Groupe 2044" transform="translate(77.022 42.554)">
          <g id="Groupe_2043" data-name="Groupe 2043">
            <path id="Tracé_754" data-name="Tracé 754" d="M7667.375,1246.119a.421.421,0,0,1-.073,0,3.682,3.682,0,0,1-.693.161,2.686,2.686,0,0,1-.559,0,16.571,16.571,0,0,1-3.015-.693c-1.607-.49-3.53-1.192-5.48-1.963-4.973-1.971-10.133-4.406-10.792-4.995a5.449,5.449,0,0,1-.979-1.14,3.339,3.339,0,0,1-.256-.437,5.512,5.512,0,0,1-.355-.84c-1.191-3.687,1.538-8.335,4.6-8.742.078-.009.156-.017.238-.022a2.177,2.177,0,0,1,.294,0c.044,0,.083,0,.122,0h.008a.24.24,0,0,1,.044.009c.4.13,2.751,1.486,4.6,2.556.688.4,1.3.767,1.729,1.009,3.726,2.153,7.862,4.622,8.482,5.307.026.034.047.06.061.082l2.521-.806C7669,1236.645,7668.111,1246.128,7667.375,1246.119Z" transform="translate(-7644.887 -1227.436)" fill="#b8a9db"/>
          </g>
        </g>
        <g id="Groupe_2046" data-name="Groupe 2046" transform="translate(58.744 41.325)">
          <g id="Groupe_2045" data-name="Groupe 2045">
            <path id="Tracé_755" data-name="Tracé 755" d="M7619.591,1255.829c0,3.327-.017,5.688-.043,6.13-.182,2.881-12.806,3.717-19.49,2.725-2.279-.338-4.436-.541-4.423-1.516.048-3.626.46-13.118.637-21.327.026-1.17.061-2.326.1-3.444.2-5.074.569-10.666.653-11.972a.361.361,0,0,1,.3-.331l7.738-1.352.446.282c.9.559,4.445-.9,4.493-.9,0,0,1.373,1.6,2.655,1.149l6.187.078.658.009s.048,6.966.069,14.764C7619.587,1245.6,7619.6,1251.523,7619.591,1255.829Z" transform="translate(-7595.635 -1224.126)" fill="#cbc0e0"/>
          </g>
        </g>
        <g id="Groupe_2048" data-name="Groupe 2048" transform="translate(73.114 39.927)">
          <g id="Groupe_2047" data-name="Groupe 2047">
            <path id="Tracé_756" data-name="Tracé 756" d="M7637.165,1220.359l1.307,2.559-3.886,2.774-.229-3.935Z" transform="translate(-7634.357 -1220.359)" fill="#fff"/>
          </g>
        </g>
        <g id="Groupe_2050" data-name="Groupe 2050" transform="translate(65.948 39.459)">
          <g id="Groupe_2049" data-name="Groupe 2049">
            <path id="Tracé_757" data-name="Tracé 757" d="M7616.642,1219.1l-1.6,2.871,6.533,2.906.633-3.911Z" transform="translate(-7615.046 -1219.097)" fill="#fff"/>
          </g>
        </g>
        <g id="Groupe_2052" data-name="Groupe 2052" transform="translate(58.743 59.042)">
          <g id="Groupe_2051" data-name="Groupe 2051">
            <path id="Tracé_758" data-name="Tracé 758" d="M7600.057,1294.708c-2.278-.337-4.437-1.209-4.424-2.185.046-3.623.462-12.449.638-20.655a12.374,12.374,0,0,1,4.082,6.77c1.073,5.3,3.7,3.337,5.683,5.837s4.182,5.034,4.637,7.807C7610.911,1293.745,7605.358,1294.409,7600.057,1294.708Z" transform="translate(-7595.633 -1271.868)" fill="#b8a9db"/>
          </g>
        </g>
        <g id="Groupe_2056" data-name="Groupe 2056" transform="translate(100.703 113.493)">
          <g id="Groupe_2055" data-name="Groupe 2055">
            <g id="Groupe_2054" data-name="Groupe 2054">
              <g id="Groupe_2053" data-name="Groupe 2053">
                <path id="Tracé_759" data-name="Tracé 759" d="M7709.31,1418.731l-.607,13.725h18.155s-.624-5.56-4.632-6.159-5.187.415-6.6-1.155c-.812-.9-.571-6.542-.571-6.542Z" transform="translate(-7708.702 -1418.6)" fill="#24292f"/>
              </g>
            </g>
          </g>
        </g>
        <g id="Groupe_2058" data-name="Groupe 2058" transform="translate(73.603 80.366)">
          <g id="Groupe_2057" data-name="Groupe 2057">
            <path id="Tracé_760" data-name="Tracé 760" d="M7669.8,1335.215c-1.074,3.73-4.141,8.237-8.907,9.061-.091.018-.182.031-.277.049-3.69.648-9.353,1.795-14.356,2.848-4.492.94-8.443,1.8-9.942,2.128-.416.085-.641.135-.641.135L7636.6,1331l.021-.463.018-.338.021-.45,5.818-.135.459-.009s.675-.027,1.815-.063l.451-.014c5.276-.162,18.277-.463,22.8.284a4.39,4.39,0,0,1,1.36.387C7670.367,1330.789,7670.488,1332.845,7669.8,1335.215Z" transform="translate(-7635.676 -1329.33)" fill="#3a3e49"/>
          </g>
        </g>
        <g id="Groupe_2060" data-name="Groupe 2060" transform="translate(71.723 79.159)">
          <g id="Groupe_2059" data-name="Groupe 2059">
            <path id="Tracé_761" data-name="Tracé 761" d="M7643.073,1345.127c-4.492.942-8.443,1.8-9.942,2.127l-.455.826s-.208,1.449-.606,3.662c-.893.171-1.46.252-1.46.252v-20.081l.52-2.935.147-.821.178-1.009.19-1.068,1.338.072.463.027,3.327.179,2.5.135.459.027,1.4.076s.165.139.42.395c.134.13.291.3.459.494a8.221,8.221,0,0,1,2.27,5.438C7644.17,1336.511,7640.791,1340.4,7643.073,1345.127Z" transform="translate(-7630.61 -1326.078)" fill="#24292f"/>
          </g>
        </g>
        <g id="Groupe_2073" data-name="Groupe 2073" transform="translate(26.58 81.018)">
          <g id="Groupe_2062" data-name="Groupe 2062" transform="translate(0 29.822)">
            <g id="Groupe_2061" data-name="Groupe 2061">
              <path id="Tracé_762" data-name="Tracé 762" d="M7509.307,1411.451l-.346,16.655h5.482a12.817,12.817,0,0,0,.809-1.772c1.253-4.295-1-8.468.716-9.684.984-.7,6.317,2.019,6.317,2.019l1.011-6.941Z" transform="translate(-7508.961 -1411.451)" fill="#24292f"/>
            </g>
          </g>
          <g id="Groupe_2064" data-name="Groupe 2064" transform="translate(7.584 0.218)">
            <g id="Groupe_2063" data-name="Groupe 2063">
              <path id="Tracé_763" data-name="Tracé 763" d="M7571.419,1331.676v15.567l-1.94,3.531-.455.826s-.208,1.45-.606,3.662c-1,5.591-3.192,16.074-6.208,20.521a4.642,4.642,0,0,1-2.27,2,6.31,6.31,0,0,1-2.253.1c-6.42-.6-20.387-6.628-25.94-9.118-1.469-.655-2.348-1.068-2.348-1.068v-9.563s.914-.027,2.348-.044c4.475-.063,13.838.363,16.388,1.256a11.749,11.749,0,0,1,3.572,1.931s-1.406-9.438-.864-16.187a40.6,40.6,0,0,1,3.574-12.646v0c.229-.494.368-.767.368-.767Z" transform="translate(-7529.398 -1331.676)" fill="#3a3e49"/>
            </g>
          </g>
          <g id="Groupe_2066" data-name="Groupe 2066" transform="translate(9.589 26.633)">
            <g id="Groupe_2065" data-name="Groupe 2065">
              <rect id="Rectangle_504" data-name="Rectangle 504" width="0.685" height="10.68" fill="#24292f"/>
            </g>
          </g>
          <g id="Groupe_2068" data-name="Groupe 2068" transform="translate(7.562 0.061)">
            <g id="Groupe_2067" data-name="Groupe 2067">
              <path id="Tracé_764" data-name="Tracé 764" d="M7554.76,1366.392c-1.462,0-4.672-2.147-7.945-4.489-2.063-1.476-12.305-1.237-17.432-.906l-.044-.684c.615-.04,15.1-.953,17.875,1.032,1.745,1.249,6.379,4.568,7.637,4.355.087-.015.108-.045.115-.054.441-.676.47-8.071.49-13.471.013-3.2.024-6.223.1-8.346a34.2,34.2,0,0,1,3.437-12.577l.608.316a33.458,33.458,0,0,0-3.36,12.284c-.072,2.112-.084,5.13-.1,8.325-.031,8.128-.088,13.117-.616,13.864a.83.83,0,0,1-.56.334A1.226,1.226,0,0,1,7554.76,1366.392Z" transform="translate(-7529.338 -1331.253)" fill="#24292f"/>
            </g>
          </g>
          <g id="Groupe_2070" data-name="Groupe 2070" transform="translate(33.978)">
            <g id="Groupe_2069" data-name="Groupe 2069">
              <path id="Tracé_765" data-name="Tracé 765" d="M7600.747,1345.047l-.223-.648a16.883,16.883,0,0,0,4.947-3.231c2.742-2.43,3.832-10,3.842-10.081l.678.1c-.045.321-1.137,7.9-4.066,10.5A17.168,17.168,0,0,1,7600.747,1345.047Z" transform="translate(-7600.523 -1331.088)" fill="#24292f"/>
            </g>
          </g>
          <g id="Groupe_2072" data-name="Groupe 2072" transform="translate(35.428 40.663)">
            <g id="Groupe_2071" data-name="Groupe 2071">
              <path id="Tracé_766" data-name="Tracé 766" d="M7609.4,1444.326a4.629,4.629,0,0,1-2.271,2,6.289,6.289,0,0,1-2.252.1c-.03-.087-.061-.179-.086-.271-.741-2.518-.295-4.944.987-5.414C7607.04,1440.282,7608.643,1441.88,7609.4,1444.326Z" transform="translate(-7604.429 -1440.663)" fill="#24292f"/>
            </g>
          </g>
        </g>
        <g id="Groupe_2080" data-name="Groupe 2080" transform="translate(58.723 77.225)">
          <g id="Groupe_2075" data-name="Groupe 2075">
            <g id="Groupe_2074" data-name="Groupe 2074">
              <path id="Tracé_767" data-name="Tracé 767" d="M7596.539,1325.81l22.119-.195a.954.954,0,0,0,.883-1.023l-.044-2.718a.971.971,0,0,0-.917-1.007l-22.119.195a.953.953,0,0,0-.883,1.023l.044,2.718A.971.971,0,0,0,7596.539,1325.81Z" transform="translate(-7595.578 -1320.867)" fill="#24292f"/>
            </g>
          </g>
          <g id="Groupe_2077" data-name="Groupe 2077" transform="translate(15.024 0.023)">
            <g id="Groupe_2076" data-name="Groupe 2076">
              <path id="Tracé_768" data-name="Tracé 768" d="M7637.394,1325.781a1.368,1.368,0,0,1-1.3-1.4l-.032-1.989a1.47,1.47,0,0,1,.4-1.046,1.219,1.219,0,0,1,.866-.377l4.852-.043a1.369,1.369,0,0,1,1.309,1.4l.033,1.989a1.466,1.466,0,0,1-.4,1.047,1.217,1.217,0,0,1-.865.377l-4.852.043Zm4.8-4.166-4.856.043a.536.536,0,0,0-.38.17.777.777,0,0,0-.208.557l.032,1.989a.684.684,0,0,0,.613.722v.343l.005-.343,4.852-.043a.533.533,0,0,0,.38-.17.779.779,0,0,0,.209-.557l-.032-1.989A.684.684,0,0,0,7642.194,1321.615Z" transform="translate(-7636.063 -1320.93)" fill="#fbd163"/>
            </g>
          </g>
          <g id="Groupe_2079" data-name="Groupe 2079" transform="translate(15.46 0.602)">
            <g id="Groupe_2078" data-name="Groupe 2078">
              <path id="Tracé_769" data-name="Tracé 769" d="M7637.967,1326.183a.723.723,0,0,1-.694-.731l-.035-2.168a.764.764,0,0,1,.211-.545.659.659,0,0,1,.47-.2l5.174-.045a.723.723,0,0,1,.7.73l.035,2.169a.763.763,0,0,1-.211.544.66.66,0,0,1-.47.2l-5.174.045Zm.014-2.909.031,2.167v0l5.073-.044-.031-2.166v0Z" transform="translate(-7637.238 -1322.49)" fill="#ffb000"/>
            </g>
          </g>
        </g>
        <g id="Groupe_2082" data-name="Groupe 2082" transform="translate(98.386 80.97)">
          <g id="Groupe_2081" data-name="Groupe 2081">
            <path id="Tracé_770" data-name="Tracé 770" d="M7712.857,1367.289h-8.513s-1.277-12.533-1.729-21.94a53.23,53.23,0,0,1,.061-9.245c.676-3.666,4.38-5.286,7.234-5.137a5.682,5.682,0,0,1,1.456.256,3.182,3.182,0,0,1,1.49.932,6.307,6.307,0,0,1,1.07,2.308C7716.35,1343.148,7712.857,1367.289,7712.857,1367.289Z" transform="translate(-7702.46 -1330.957)" fill="#3a3e49"/>
          </g>
        </g>
        <g id="Groupe_2084" data-name="Groupe 2084" transform="translate(100.062 115.299)">
          <g id="Groupe_2083" data-name="Groupe 2083">
            <rect id="Rectangle_505" data-name="Rectangle 505" width="9.007" height="0.672" fill="#24292f"/>
          </g>
        </g>
        <g id="Groupe_2086" data-name="Groupe 2086" transform="translate(104.549 80.848)">
          <g id="Groupe_2085" data-name="Groupe 2085">
            <path id="Tracé_771" data-name="Tracé 771" d="M7724.371,1334.256a6.281,6.281,0,0,1-2.127,1.777,2.3,2.3,0,0,1-2.465,0c-1.144-.9-.883-3.257.576-5.272a.3.3,0,0,1,.031-.045c.022-.027.043-.058.065-.085a4.39,4.39,0,0,1,1.36.387,3.181,3.181,0,0,1,1.49.931A6.309,6.309,0,0,1,7724.371,1334.256Z" transform="translate(-7719.065 -1330.63)" fill="#24292f"/>
          </g>
        </g>
        <g id="Groupe_2088" data-name="Groupe 2088" transform="translate(60.157 51.667)">
          <g id="Groupe_2087" data-name="Groupe 2087">
            <path id="Tracé_772" data-name="Tracé 772" d="M7621.985,1273.355c-2.218-.282-4.25-.8-4.839-1.759-1.464-2.383-4.925-1.625-5.687-5.415s-4.869-1.733-8.274-5.848a16.479,16.479,0,0,1-3.743-8.339l2.351.453a26.092,26.092,0,0,1,6.3,2.074,8.118,8.118,0,0,1,4.368,5.443h0a2.9,2.9,0,0,0,2.206,2.154l7.318,1.576C7621.985,1273.355,7621.993,1269.049,7621.985,1273.355Z" transform="translate(-7599.441 -1251.994)" fill="#b8a9db"/>
          </g>
        </g>
        <g id="Groupe_2109" data-name="Groupe 2109">
          <g id="Groupe_2091" data-name="Groupe 2091">
            <g id="Groupe_2090" data-name="Groupe 2090">
              <g id="Groupe_2089" data-name="Groupe 2089">
                <path id="Tracé_773" data-name="Tracé 773" d="M7466.438,1228.48l-16.024,10.094a25.47,25.47,0,0,0,37.645-25.518l2.2-1.393,80.5-50.684,2.2-1.393a25.458,25.458,0,0,0,39.272-22.921l-16.025,10.094a12.217,12.217,0,1,1-13.021-20.676l16.024-10.094a25.457,25.457,0,0,0-37.641,25.507l0,.011-2.2,1.382-80.5,50.694-2.188,1.387-.011,0,0,.011a25.468,25.468,0,0,0-39.283,22.917l16.036-10.089a12.217,12.217,0,1,1,13.021,20.676Zm40.781-44.552,31.2-19.644a3.732,3.732,0,0,1,3.88-.069,3.5,3.5,0,0,1,1.292,1.248,3.658,3.658,0,0,1,.568,1.716,3.732,3.732,0,0,1-1.747,3.455l-31.2,19.644a3.741,3.741,0,0,1-3.879.069l-.011,0a3.855,3.855,0,0,1-1.281-1.243,3.665,3.665,0,0,1-.568-1.717A3.751,3.751,0,0,1,7507.219,1183.928Z" transform="translate(-7437.335 -1112.766)" fill="#b4bbd7"/>
              </g>
            </g>
          </g>
          <g id="Groupe_2093" data-name="Groupe 2093" transform="translate(101.08 50.73)">
            <g id="Groupe_2092" data-name="Groupe 2092">
              <path id="Tracé_774" data-name="Tracé 774" d="M7709.718,1250.258l.57-.366a2.737,2.737,0,0,1,3.31.3A3.733,3.733,0,0,0,7709.718,1250.258Z" transform="translate(-7709.718 -1249.47)" fill="#fff"/>
            </g>
          </g>
          <g id="Groupe_2095" data-name="Groupe 2095" transform="translate(105.073 54.413)">
            <g id="Groupe_2094" data-name="Groupe 2094">
              <path id="Tracé_775" data-name="Tracé 775" d="M7721.06,1262.489l-.58.361a3.757,3.757,0,0,0,1.5-1.807,3.713,3.713,0,0,0,.246-1.648A2.732,2.732,0,0,1,7721.06,1262.489Z" transform="translate(-7720.479 -1259.395)" fill="#fff"/>
            </g>
          </g>
          <g id="Groupe_2097" data-name="Groupe 2097" transform="translate(68.025 71.162)">
            <g id="Groupe_2096" data-name="Groupe 2096">
              <path id="Tracé_776" data-name="Tracé 776" d="M7620.756,1307.984a2.734,2.734,0,0,1,1.166-3.093l.581-.361A3.75,3.75,0,0,0,7620.756,1307.984Z" transform="translate(-7620.644 -1304.529)" fill="#fff"/>
            </g>
          </g>
          <g id="Groupe_2099" data-name="Groupe 2099" transform="translate(69.997 77.512)">
            <g id="Groupe_2098" data-name="Groupe 2098">
              <path id="Tracé_777" data-name="Tracé 777" d="M7625.959,1321.709a3.742,3.742,0,0,0,3.88-.069l-.57.366A2.742,2.742,0,0,1,7625.959,1321.709Z" transform="translate(-7625.959 -1321.64)" fill="#fff"/>
            </g>
          </g>
          <g id="Groupe_2102" data-name="Groupe 2102" transform="translate(64.964 47.912)">
            <g id="Groupe_2101" data-name="Groupe 2101">
              <g id="Groupe_2100" data-name="Groupe 2100">
                <path id="Tracé_778" data-name="Tracé 778" d="M7621.516,1274.3l33.454-21.078c2.612-1.634,3.229-5.345,1.4-8.259s-5.462-3.953-8.063-2.315l-33.46,21.063c-2.605,1.649-3.233,5.356-1.394,8.274S7618.9,1275.939,7621.516,1274.3Zm-4.1-2.764a3.855,3.855,0,0,1-1.281-1.243,3.665,3.665,0,0,1-.568-1.717,3.751,3.751,0,0,1,1.747-3.455l31.2-19.644a3.732,3.732,0,0,1,3.88-.069,3.5,3.5,0,0,1,1.292,1.248,3.658,3.658,0,0,1,.568,1.716,3.732,3.732,0,0,1-1.747,3.455l-31.2,19.644a3.741,3.741,0,0,1-3.879.069Z" transform="translate(-7612.396 -1241.875)" fill="#9197ad"/>
              </g>
            </g>
          </g>
          <g id="Groupe_2105" data-name="Groupe 2105" transform="translate(122.034 28.741)">
            <g id="Groupe_2104" data-name="Groupe 2104">
              <g id="Groupe_2103" data-name="Groupe 2103">
                <path id="Tracé_779" data-name="Tracé 779" d="M7779.778,1208.293a25.743,25.743,0,0,1-11.395-18.079l-2.2,1.382a28.133,28.133,0,0,0,11.39,18.09Z" transform="translate(-7766.185 -1190.214)" fill="#9197ad"/>
              </g>
            </g>
          </g>
          <g id="Groupe_2108" data-name="Groupe 2108" transform="translate(39.333 80.817)">
            <g id="Groupe_2107" data-name="Groupe 2107">
              <g id="Groupe_2106" data-name="Groupe 2106">
                <path id="Tracé_780" data-name="Tracé 780" d="M7556.921,1348.626a28.171,28.171,0,0,0-11.394-18.079l-2.2,1.382.011,0a25.73,25.73,0,0,1,11.38,18.086Z" transform="translate(-7543.327 -1330.547)" fill="#9197ad"/>
              </g>
            </g>
          </g>
        </g>
        <g id="Groupe_2132" data-name="Groupe 2132" transform="translate(54.82 43.281)">
          <g id="Groupe_2125" data-name="Groupe 2125" transform="translate(24.221 22.651)">
            <g id="Groupe_2112" data-name="Groupe 2112" transform="translate(0 1.254)">
              <g id="Groupe_2111" data-name="Groupe 2111">
                <g id="Groupe_2110" data-name="Groupe 2110">
                  <path id="Tracé_781" data-name="Tracé 781" d="M7650.331,1300.849a14.289,14.289,0,0,0,2.246,2.3,8.7,8.7,0,0,0,.978.677,4,4,0,0,0,2.283.656c2.313-.182,5.463-3.086,6.194-3.793l.008-.006c.094-.095.149-.147.149-.147l-.551-1.771-.1-.328-.456-1.463-.033-.108-.479-1.545,0,0-.058-.188-.408-1.313s-4.849,5.687-5.141,5.516c-.165-.1-.333-.2-.491-.3-.426-.278-.78-.541-.78-.541Z" transform="translate(-7650.331 -1293.814)" fill="#f6a49d"/>
                </g>
              </g>
            </g>
            <g id="Groupe_2115" data-name="Groupe 2115" transform="translate(10.09 5.484)">
              <g id="Groupe_2114" data-name="Groupe 2114">
                <g id="Groupe_2113" data-name="Groupe 2113">
                  <path id="Tracé_782" data-name="Tracé 782" d="M7677.522,1306.526l2.483-1.22a.924.924,0,0,1,.421-.095l3.063.039a.294.294,0,0,1,.237.464c-.274.385-.686.888-1.021.966-.556.13-1.614.093-1.978.178a18.511,18.511,0,0,0-2.24,1.452Z" transform="translate(-7677.522 -1305.211)" fill="#f6a49d"/>
                </g>
              </g>
            </g>
            <g id="Groupe_2118" data-name="Groupe 2118" transform="translate(10.517 2.979)">
              <g id="Groupe_2117" data-name="Groupe 2117">
                <g id="Groupe_2116" data-name="Groupe 2116">
                  <path id="Tracé_783" data-name="Tracé 783" d="M7678.673,1300.046a13.783,13.783,0,0,1,2.894-1.571,25.241,25.241,0,0,1,3.321.229.294.294,0,0,1,.18.5,1.95,1.95,0,0,1-1.129.647c-.889.111-2.174-.239-2.773.162s-2.21,1.662-2.21,1.662Z" transform="translate(-7678.673 -1298.461)" fill="#f6a49d"/>
                </g>
              </g>
            </g>
            <g id="Groupe_2121" data-name="Groupe 2121" transform="translate(9.925 1.162)">
              <g id="Groupe_2120" data-name="Groupe 2120">
                <g id="Groupe_2119" data-name="Groupe 2119">
                  <path id="Tracé_784" data-name="Tracé 784" d="M7677.075,1295.127a25.994,25.994,0,0,1,2.693-1.485,21.639,21.639,0,0,1,4.337.149.293.293,0,0,1,.2.476,1.56,1.56,0,0,1-.947.586c-.853.144-2.815-.031-3.346.275s-2.484,1.841-2.484,1.841Z" transform="translate(-7677.075 -1293.565)" fill="#f6a49d"/>
                </g>
              </g>
            </g>
            <g id="Groupe_2124" data-name="Groupe 2124" transform="translate(9.77)">
              <g id="Groupe_2123" data-name="Groupe 2123">
                <g id="Groupe_2122" data-name="Groupe 2122">
                  <path id="Tracé_785" data-name="Tracé 785" d="M7676.659,1291.688l1.807-1.086a1.184,1.184,0,0,1,.819-.15l2.132.384a1.184,1.184,0,0,1,.68.384l.725.829a2.434,2.434,0,0,1-1.357.055c-.511-.218-1.611-.394-1.813-.484a19.683,19.683,0,0,0-2.785,1.752Z" transform="translate(-7676.659 -1290.433)" fill="#f6a49d"/>
                </g>
              </g>
            </g>
          </g>
          <g id="Groupe_2127" data-name="Groupe 2127">
            <g id="Groupe_2126" data-name="Groupe 2126">
              <path id="Tracé_786" data-name="Tracé 786" d="M7594.169,1258.048a1.618,1.618,0,0,1-.212.011.92.92,0,0,1-.1,0,3.9,3.9,0,0,1-2.158-.891,2.572,2.572,0,0,1-.38-.41,16.429,16.429,0,0,1-1.541-2.683c-.734-1.514-3.432-6.457-4.434-11.673-1.787-9.3,5.433-14.531,6.116-12.609,1.441,4.054,6.729,18.735,6.647,19.654a.524.524,0,0,1-.018.1q-.2.63-.394,1.251c-.139.442-.277.878-.415,1.3C7596.263,1255.28,7595.283,1257.907,7594.169,1258.048Z" transform="translate(-7585.061 -1229.396)" fill="#cbc0e0"/>
            </g>
          </g>
          <g id="Groupe_2129" data-name="Groupe 2129" transform="translate(26.468 28.578)">
            <g id="Groupe_2128" data-name="Groupe 2128">
              <path id="Tracé_787" data-name="Tracé 787" d="M7657.5,1306.405l-1.111,4.658a8.72,8.72,0,0,0,.978.677l.914-4.793C7657.85,1306.668,7657.5,1306.405,7657.5,1306.405Z" transform="translate(-7656.384 -1306.405)" fill="#d47c74"/>
            </g>
          </g>
          <g id="Groupe_2131" data-name="Groupe 2131" transform="translate(7.023 18.846)">
            <g id="Groupe_2130" data-name="Groupe 2130">
              <path id="Tracé_788" data-name="Tracé 788" d="M7624.847,1288.964l-.979,6.315s-18.251-4.189-19.632-5.717a.791.791,0,0,1-.088-.117h0c-.817-1.359,1.687-6.056,2.909-8.192.376-.658.632-1.071.632-1.071h0a12.7,12.7,0,0,1,6.977,2.088Z" transform="translate(-7603.986 -1280.181)" fill="#cbc0e0"/>
            </g>
          </g>
        </g>
      </g>
      <g id="Groupe_2135" data-name="Groupe 2135" transform="translate(7548.228 1145.849)">
        <g id="Groupe_2134" data-name="Groupe 2134">
          <path id="Tracé_789" data-name="Tracé 789" d="M7736.306,1203.1a.625.625,0,0,1,.343-1.011,5.547,5.547,0,0,1,4.417.714c1.429.99-.539,3.458-1.722,3.085C7738.526,1205.628,7737.105,1204.047,7736.306,1203.1Z" transform="translate(-7736.16 -1201.916)" fill="#f6a49d"/>
        </g>
      </g>
    </g>
  </g>
</svg>
