<svg xmlns="http://www.w3.org/2000/svg" width="210" height="210" viewBox="0 0 210 210">
  <g id="Groupe_2139" data-name="Groupe 2139" transform="translate(-1050 -1143)">
    <g id="Ellipse_6" data-name="Ellipse 6" transform="translate(1050 1143)" fill="none" stroke="#9600ff" stroke-width="3">
      <circle cx="105" cy="105" r="105" stroke="none"/>
      <circle cx="105" cy="105" r="103.5" fill="none"/>
    </g>
    <g id="Groupe_1152" data-name="Groupe 1152" transform="translate(-3703.817 729.169)">
      <g id="Groupe_1145" data-name="Groupe 1145" transform="translate(4758.817 453.408)">
        <g id="Groupe_1009" data-name="Groupe 1009" transform="translate(111.588 4.794)">
          <g id="Groupe_1008" data-name="Groupe 1008">
            <g id="Groupe_910" data-name="Groupe 910" transform="translate(36.91 2.297)">
              <g id="Groupe_909" data-name="Groupe 909">
                <path id="Tracé_373" data-name="Tracé 373" d="M5170.237,499.335a11.944,11.944,0,0,1-4.309,0,22.124,22.124,0,0,1-1.216,3.166c-.207.027-2.972,1.153-3.188,0-.2-1.049,1.334-3.2,1.649-4.394a12.612,12.612,0,0,1-1.288-.965c-2.183-.5-6.4-1.029-7.881-3.248q-.111-.24-.213-.468c-.066-.147-.129-.291-.188-.429l-.025-.059v0a11.447,11.447,0,0,1-.589-1.62c-1.175-4.831,1.494-7.3,4.069-7.876.071-.016.142-.031.213-.044.107-.021.215-.037.321-.051.087-.012.173-.02.26-.028a2.394,2.394,0,0,1,1.575.337,2.715,2.715,0,0,1,.91,2.328s2.017-5.4,5.26-3.962c3.107,1.381,1.033,6.6.857,7.032.134-.284,1.313-2.543,3.682.028,2.521,2.738-2.233,6.628-2.233,6.628s.019.016.053.048A8.564,8.564,0,0,1,5170.237,499.335Z" transform="translate(-5152.703 -481.782)" fill="#172f59"/>
              </g>
            </g>
            <g id="Groupe_912" data-name="Groupe 912" transform="translate(53.23 21.964)">
              <g id="Groupe_911" data-name="Groupe 911">
                <path id="Tracé_374" data-name="Tracé 374" d="M5195.993,536.108l1.318-2.16A5.077,5.077,0,0,1,5195.993,536.108Z" transform="translate(-5195.993 -533.948)" fill="#172f59"/>
              </g>
            </g>
            <g id="Groupe_914" data-name="Groupe 914" transform="translate(36.91 3.865)">
              <g id="Groupe_913" data-name="Groupe 913">
                <path id="Tracé_375" data-name="Tracé 375" d="M5170.391,503.741c-.01.085-.024.17-.04.257-.577,3.026-8.343,7.424-8.343,7.424s-3.987-7.415-6.675-12.74a38.442,38.442,0,0,1-2.345-4.77c-1.257-5.166,1.884-7.626,4.6-7.97-.02,2.287.265,6.553,2.422,9.194a9.424,9.424,0,0,0,5.246,2.788,21.293,21.293,0,0,0,2.695.43,8.842,8.842,0,0,1,2.167,3.2,5.294,5.294,0,0,1,.257,1.03A4.346,4.346,0,0,1,5170.391,503.741Z" transform="translate(-5152.703 -485.942)" fill="#0c1b3c"/>
              </g>
            </g>
            <g id="Groupe_916" data-name="Groupe 916" transform="translate(43.764 23.019)">
              <g id="Groupe_915" data-name="Groupe 915">
                <path id="Tracé_376" data-name="Tracé 376" d="M5170.911,539.759c.248.937,2.084,1.264,4.1.731s3.345-1.68,3.205-2.663c-.186-1.3-2.084-1.264-4.1-.731S5170.663,538.822,5170.911,539.759Z" transform="translate(-5170.883 -536.747)" fill="#805568"/>
              </g>
            </g>
            <g id="Groupe_918" data-name="Groupe 918" transform="translate(37.699 25.018)">
              <g id="Groupe_917" data-name="Groupe 917">
                <path id="Tracé_377" data-name="Tracé 377" d="M5163.515,542.051l-.159,3.423-.417,8.968-8.141.576.36-6.785.145-2.725Z" transform="translate(-5154.797 -542.051)" fill="#805568"/>
              </g>
            </g>
            <g id="Groupe_920" data-name="Groupe 920" transform="translate(38.06 25.019)">
              <g id="Groupe_919" data-name="Groupe 919">
                <path id="Tracé_378" data-name="Tracé 378" d="M5164.11,542.051s-2.2,7.222-7.433,6.647a2.218,2.218,0,0,1-.924-.464l.144-2.725Z" transform="translate(-5155.753 -542.051)" fill="#543845"/>
              </g>
            </g>
            <g id="Groupe_922" data-name="Groupe 922" transform="translate(32.943 9.54)">
              <g id="Groupe_921" data-name="Groupe 921">
                <ellipse id="Ellipse_9" data-name="Ellipse 9" cx="9.798" cy="6.415" rx="9.798" ry="6.415" transform="matrix(0.337, -0.941, 0.941, 0.337, 0, 18.449)" fill="#805568"/>
              </g>
            </g>
            <g id="Groupe_931" data-name="Groupe 931" transform="translate(22.12 75.984)">
              <g id="Groupe_924" data-name="Groupe 924" transform="translate(36.09 73.268)">
                <g id="Groupe_923" data-name="Groupe 923">
                  <path id="Tracé_379" data-name="Tracé 379" d="M5209.737,872.249a50.251,50.251,0,0,1,0,8.66,42.8,42.8,0,0,0-.534,4.9h18.346s-.467-3.021-6.8-4.632-5.8-9.6-5.8-9.6Z" transform="translate(-5209.203 -871.578)" fill="#24292f"/>
                </g>
              </g>
              <g id="Groupe_926" data-name="Groupe 926" transform="translate(0 71.278)">
                <g id="Groupe_925" data-name="Groupe 925">
                  <path id="Tracé_380" data-name="Tracé 380" d="M5127.883,868.289a37.437,37.437,0,0,0,.6,7.854,32.778,32.778,0,0,1,.8,6.377h-15.81s.168-3.155,4.653-4.229,3.818-6.981,4.085-10.54S5127.883,868.289,5127.883,868.289Z" transform="translate(-5113.474 -866.299)" fill="#24292f"/>
                </g>
              </g>
              <g id="Groupe_928" data-name="Groupe 928" transform="translate(4.654)">
                <g id="Groupe_927" data-name="Groupe 927">
                  <path id="Tracé_381" data-name="Tracé 381" d="M5166.394,752.518a24.914,24.914,0,0,1-3.253.49,23.85,23.85,0,0,1-5.241-.079,16.347,16.347,0,0,1-2.046-.411,132.338,132.338,0,0,0-3.6-15.171,76.5,76.5,0,0,1-3.468-16.38c-.133-2.82-6.271-22.823-7.739-27.792l-2,.135s-2.135,11.546-2.135,20.408.8,19.6.934,26.583.268,11.143.268,11.143a21.616,21.616,0,0,1-2.547.522,17.805,17.805,0,0,1-5.744.006h0a8.732,8.732,0,0,1-2.382-.8s-1.27-20.91-1.447-29.88c-.013-.673-.021-1.279-.021-1.8v-.311c-.016-5.548-.439-21.608.219-31.9.084-1.3.185-2.508.305-3.591.3-2.734.733-4.67,1.344-5.285,1.242-1.249,7.216-1.308,12.988-1.044,6.006.275,11.793.9,11.793.9s.756,3.333.865,3.913c.72,3.781,2.674,10.974,3.44,18.788.411,4.2,1.22,10.213,2.327,17.029q.126.768.255,1.551C5161.25,730.053,5163.663,742.228,5166.394,752.518Z" transform="translate(-5125.818 -677.237)" fill="#3a3e49"/>
                </g>
              </g>
              <g id="Groupe_930" data-name="Groupe 930" transform="translate(13.138 16.074)">
                <g id="Groupe_929" data-name="Groupe 929">
                  <path id="Tracé_382" data-name="Tracé 382" d="M5150.928,740.28c0,8.861.8,19.6.934,26.583a72.716,72.716,0,0,0-2.4-14.231c-2.2-8.456-.672-15.574,0-23.9s3.6-8.861,3.6-8.861S5150.928,731.419,5150.928,740.28Z" transform="translate(-5148.322 -719.873)" fill="#24292f"/>
                </g>
              </g>
            </g>
            <g id="Groupe_933" data-name="Groupe 933" transform="translate(27.141 75.261)">
              <g id="Groupe_932" data-name="Groupe 932">
                <path id="Tracé_383" data-name="Tracé 383" d="M5152.473,677.883c-.542.094-1.68,4.38-15.982,6.807-4.336.736-7.478,1.157-9.7,1.4.084-1.3.185-2.508.3-3.591.3-2.734.855-6.031,1.466-6.646,1.242-1.249,7.095.054,12.867.317C5147.282,677.036,5152.473,677.883,5152.473,677.883Z" transform="translate(-5126.793 -675.318)" fill="#071123"/>
              </g>
            </g>
            <g id="Groupe_942" data-name="Groupe 942" transform="translate(51.349 38.15)">
              <g id="Groupe_935" data-name="Groupe 935" transform="translate(21.375 39.387)">
                <g id="Groupe_934" data-name="Groupe 934">
                  <path id="Tracé_384" data-name="Tracé 384" d="M5258.459,693.654c-4.5-2.2-6.029-4.019-6.891-3.932s-.68,1.171-1.568,3.177c-.82,1.863-1.87,1.688-1.72.683a9.4,9.4,0,0,0-.107-4.807,14.129,14.129,0,0,1-.358-1.837,13.192,13.192,0,0,1-.075-2.8c3.3-3.4,4.449-2.728,4.449-2.728s.238.377.622.972c1.236,1.916,4,6.1,5.313,7.3,1.72,1.58,5.262,3.418,4.94,3.561a4.5,4.5,0,0,1-2.264-.26,26.908,26.908,0,0,0,2.726,1.8C5264.309,695.251,5261.564,695.176,5258.459,693.654Z" transform="translate(-5247.7 -681.354)" fill="#805568"/>
                </g>
              </g>
              <g id="Groupe_937" data-name="Groupe 937" transform="translate(21.375 39.387)">
                <g id="Groupe_936" data-name="Groupe 936">
                  <path id="Tracé_385" data-name="Tracé 385" d="M5252.811,682.38a10.3,10.3,0,0,1-5,4.559,13.192,13.192,0,0,1-.075-2.8c3.3-3.4,4.449-2.728,4.449-2.728S5252.427,681.785,5252.811,682.38Z" transform="translate(-5247.7 -681.354)" fill="#543845"/>
                </g>
              </g>
              <g id="Groupe_939" data-name="Groupe 939" transform="translate(19.633 36.413)">
                <g id="Groupe_938" data-name="Groupe 938">
                  <path id="Tracé_386" data-name="Tracé 386" d="M5243.081,678.208l1.328,2.9a24.228,24.228,0,0,0,6.206-4.9l-2.033-2.737Z" transform="translate(-5243.081 -673.466)" fill="#fef2fc"/>
                </g>
              </g>
              <g id="Groupe_941" data-name="Groupe 941">
                <g id="Groupe_940" data-name="Groupe 940">
                  <path id="Tracé_387" data-name="Tracé 387" d="M5217.49,613.984l-6.853,5.563s-6.989-9.046-9-13.936l-.045-.112c-1.932-4.829-8.054-9.693-9.514-12.3-.012-.02-.021-.038-.032-.056-1.4-2.593-.99-16.262-.99-16.262a14.457,14.457,0,0,1,8.987,8.338c2.917,6.843,5.439,8.335,7.6,10.579S5217.49,613.984,5217.49,613.984Z" transform="translate(-5191.004 -576.882)" fill="#cbc0e0"/>
                </g>
              </g>
            </g>
            <g id="Groupe_944" data-name="Groupe 944" transform="translate(52.183 41.609)">
              <g id="Groupe_943" data-name="Groupe 943">
                <path id="Tracé_388" data-name="Tracé 388" d="M5203.019,611.328c-.016-.038-.03-.075-.045-.112-1.932-4.829-8.054-9.693-9.514-12.3a90.406,90.406,0,0,1-.015-12.859s4.905,6.667,4.6,10.44,3.4,4.617,4.754,7.553C5203.794,606.2,5203.338,609.63,5203.019,611.328Z" transform="translate(-5193.214 -586.058)" fill="#c0afe0"/>
              </g>
            </g>
            <g id="Groupe_960" data-name="Groupe 960">
              <g id="Groupe_951" data-name="Groupe 951">
                <g id="Groupe_946" data-name="Groupe 946">
                  <g id="Groupe_945" data-name="Groupe 945">
                    <path id="Tracé_389" data-name="Tracé 389" d="M5055.954,489.871l1.213,2.7.2.444,2.666,5.941,4.822-2.435-2.8-5-.973-1.737-.291-.519a13.532,13.532,0,0,0,1.366-3.915,17.059,17.059,0,0,1,.966-3.754s-1.364.1-1.766.9-.665,2.311-1.153,1.56c-.249-.383.625-3.292.187-5.3a5.028,5.028,0,0,0-2.159-2.947.465.465,0,0,0-.676.042,1.745,1.745,0,0,0-.422.907,10.076,10.076,0,0,0,.108,1.883l-.591-.829a.29.29,0,0,0-.505.06,1.152,1.152,0,0,0-.034.752,7.513,7.513,0,0,1-.893,4.217C5054.709,483.85,5054.39,488.459,5055.954,489.871Z" transform="translate(-5054.801 -475.69)" fill="#805568"/>
                  </g>
                </g>
                <g id="Groupe_948" data-name="Groupe 948" transform="translate(2.366 14.101)">
                  <g id="Groupe_947" data-name="Groupe 947">
                    <path id="Tracé_390" data-name="Tracé 390" d="M5061.077,515.877l3.916-2.785.973,1.737-4.69,1.491Z" transform="translate(-5061.077 -513.092)" fill="#543845"/>
                  </g>
                </g>
                <g id="Groupe_950" data-name="Groupe 950" transform="translate(1.381 14.892)">
                  <g id="Groupe_949" data-name="Groupe 949">
                    <path id="Tracé_391" data-name="Tracé 391" d="M5058.465,517.632s6.084,13.621,13,19.907c2.6,2.363,11.466,9.039,13.948,10.9l.022.017.629.471.672-1.425,5.692-8.679,1.314-1.251s-13.609-7.174-16.753-9.632c-3.8-2.973-12.355-12.749-12.355-12.749l-.679.268-4.488,1.775Z" transform="translate(-5058.465 -515.191)" fill="#cbc0e0"/>
                  </g>
                </g>
              </g>
              <g id="Groupe_953" data-name="Groupe 953" transform="translate(0.866 6.767)">
                <g id="Groupe_952" data-name="Groupe 952">
                  <path id="Tracé_392" data-name="Tracé 392" d="M5057.179,494.328a.081.081,0,0,1-.045-.147,3.552,3.552,0,0,1,1.713-.526c.969-.04,1.673.008,1.68.009a.08.08,0,0,1,.075.086.079.079,0,0,1-.086.075,16.4,16.4,0,0,0-1.662-.008,3.437,3.437,0,0,0-1.629.5A.085.085,0,0,1,5057.179,494.328Z" transform="translate(-5057.098 -493.639)" fill="#543845"/>
                </g>
              </g>
              <g id="Groupe_955" data-name="Groupe 955" transform="translate(2.093 3.194)">
                <g id="Groupe_954" data-name="Groupe 954">
                  <path id="Tracé_393" data-name="Tracé 393" d="M5060.436,487.336a.094.094,0,0,1-.024,0c-.058-.015-.063-.058-.055-.105h0a.448.448,0,0,1,.009-.044c.116-.5.222-1.025.312-1.571a3.329,3.329,0,0,0-.077-1.346.081.081,0,0,1,.154-.046,3.424,3.424,0,0,1,.081,1.419c-.091.55-.2,1.082-.314,1.582h0a.066.066,0,0,1,0,.024C5060.511,487.273,5060.493,487.336,5060.436,487.336Z" transform="translate(-5060.354 -484.163)" fill="#543845"/>
                </g>
              </g>
              <g id="Groupe_957" data-name="Groupe 957" transform="translate(3.688 0.792)">
                <g id="Groupe_956" data-name="Groupe 956">
                  <path id="Tracé_394" data-name="Tracé 394" d="M5064.823,482.943h-.007a.08.08,0,0,1-.073-.087l.115-1.283a3.1,3.1,0,0,0-.053-.91c-.06-.29-.141-.715-.186-1.091a10.6,10.6,0,0,1,0-1.707.081.081,0,0,1,.086-.074.08.08,0,0,1,.074.087,10.688,10.688,0,0,0,0,1.675c.044.371.124.791.183,1.078a3.255,3.255,0,0,1,.056.958l-.115,1.283A.081.081,0,0,1,5064.823,482.943Z" transform="translate(-5064.583 -477.789)" fill="#543845"/>
                </g>
              </g>
              <g id="Groupe_959" data-name="Groupe 959" transform="translate(1.301 8.751)">
                <g id="Groupe_958" data-name="Groupe 958">
                  <path id="Tracé_395" data-name="Tracé 395" d="M5059.568,503.263a.079.079,0,0,1-.078-.062,1.357,1.357,0,0,1-.029-.221,17.028,17.028,0,0,0-.416-2.118,8.321,8.321,0,0,0-.781-1.839.08.08,0,0,1,.026-.11.081.081,0,0,1,.111.027,8.5,8.5,0,0,1,.8,1.879c.125.442.224.932.3,1.349a5.691,5.691,0,0,1,.2-.861,3.216,3.216,0,0,1,2.266-1.907.081.081,0,0,1,.036.157,3.112,3.112,0,0,0-2.148,1.8,4.474,4.474,0,0,0-.224,1.621c.017.123.025.2.025.2a.081.081,0,0,1-.066.089Z" transform="translate(-5058.252 -498.902)" fill="#543845"/>
                </g>
              </g>
            </g>
            <g id="Groupe_962" data-name="Groupe 962" transform="translate(27.683 37.122)">
              <g id="Groupe_961" data-name="Groupe 961">
                <path id="Tracé_396" data-name="Tracé 396" d="M5128.232,596.9c0,.306,0,.612.006.917.058,6.941.363,13.365,1,15.2,1.513,4.323,4.963,5.769,14.291,4.831.755-.076,1.456-.147,2.109-.219,7.429-.809,8.6-1.653,9.449-9.665.918-8.718.084-30.352-1.717-31.937-.952-.839-3.138-1.315-4.981-1.576-1.643-.234-3.015-.3-3.015-.3h-7.144s-.627.068-1.554.207c-.382.058-.815.127-1.276.21-2.411.427-5.583,1.191-6.235,2.321a19.909,19.909,0,0,0-.6,4.82c-.057.943-.106,1.99-.15,3.113h0q-.012.3-.022.615h0C5128.273,588.875,5128.213,592.944,5128.232,596.9Z" transform="translate(-5128.229 -574.155)" fill="#cbc0e0"/>
              </g>
            </g>
            <g id="Groupe_964" data-name="Groupe 964" transform="translate(37.688 9.232)">
              <g id="Groupe_963" data-name="Groupe 963">
                <path id="Tracé_397" data-name="Tracé 397" d="M5167.782,508.112a15.716,15.716,0,0,1-.567,2.687,22.124,22.124,0,0,1-1.216,3.166c-.207.027-2.972,1.153-3.188,0-.2-1.049,1.334-3.2,1.649-4.394a1.568,1.568,0,0,0,.055-.32c.014-.271-.52-.456-1.343-.645-2.183-.5-6.4-1.029-7.881-3.248a3.066,3.066,0,0,1-.427-.956v0c-.563-2.222,1.411-3.588,3.771-4.049a7.678,7.678,0,0,1,5.419.736C5166.864,503.032,5168.106,505.193,5167.782,508.112Z" transform="translate(-5154.767 -500.177)" fill="#172f59"/>
              </g>
            </g>
            <g id="Groupe_966" data-name="Groupe 966" transform="translate(36.664 37.092)">
              <g id="Groupe_965" data-name="Groupe 965">
                <path id="Tracé_398" data-name="Tracé 398" d="M5163.233,574.4l-7.121,15.48-4.062-15.627c1.58-.281,1.024-.151,1.024-.151h7.143S5161.591,574.17,5163.233,574.4Z" transform="translate(-5152.051 -574.076)" fill="#fef2fc"/>
              </g>
            </g>
            <g id="Groupe_968" data-name="Groupe 968" transform="translate(36.973 34.176)">
              <g id="Groupe_967" data-name="Groupe 967">
                <path id="Tracé_399" data-name="Tracé 399" d="M5153.362,566.341l4.467,1.009-.288,5.511-4.67-2.307Z" transform="translate(-5152.871 -566.341)" fill="#fef2fc"/>
              </g>
            </g>
            <g id="Groupe_970" data-name="Groupe 970" transform="translate(41.805 34.176)">
              <g id="Groupe_969" data-name="Groupe 969">
                <path id="Tracé_400" data-name="Tracé 400" d="M5170.153,566.341l-4.467,1.009.289,5.511,4.67-2.307Z" transform="translate(-5165.687 -566.341)" fill="#fef2fc"/>
              </g>
            </g>
            <g id="Groupe_972" data-name="Groupe 972" transform="translate(26.923 117.04)">
              <g id="Groupe_971" data-name="Groupe 971">
                <path id="Tracé_401" data-name="Tracé 401" d="M5133.356,788.36c-.052,1.125-1.815,1.958-3.938,1.859a5.285,5.285,0,0,1-3.185-1.081c-.013-.673-.02-1.279-.02-1.8q0-.15,0-.312a5.081,5.081,0,0,1,3.394-.88C5131.729,786.241,5133.408,787.234,5133.356,788.36Z" transform="translate(-5126.213 -786.135)" fill="#24292f"/>
              </g>
            </g>
            <g id="Groupe_974" data-name="Groupe 974" transform="translate(52.972 115.866)">
              <g id="Groupe_973" data-name="Groupe 973">
                <path id="Tracé_402" data-name="Tracé 402" d="M5202.8,785.448a4.567,4.567,0,0,1-3.45,1.671c-2.114.212-3.919-.524-4.032-1.646s1.511-2.2,3.625-2.414a4.8,4.8,0,0,1,3.6.838Q5202.667,784.665,5202.8,785.448Z" transform="translate(-5195.309 -783.023)" fill="#24292f"/>
              </g>
            </g>
            <g id="Groupe_976" data-name="Groupe 976" transform="translate(48.521 15.847)">
              <g id="Groupe_975" data-name="Groupe 975">
                <path id="Tracé_403" data-name="Tracé 403" d="M5189.566,522.39a24.411,24.411,0,0,1-3.107,1.474l-2.36.922-.6.234.945-7.3a21.308,21.308,0,0,0,2.694.43,8.829,8.829,0,0,1,2.168,3.2A5.26,5.26,0,0,1,5189.566,522.39Z" transform="translate(-5183.501 -517.725)" fill="#172f59"/>
              </g>
            </g>
            <g id="Groupe_978" data-name="Groupe 978" transform="translate(37.565 3.826)">
              <g id="Groupe_977" data-name="Groupe 977">
                <path id="Tracé_404" data-name="Tracé 404" d="M5160.509,486.187l-.252,4.719-2.655,4.065-2.726.985-.039.014a3.586,3.586,0,0,1-.15-.443,8.505,8.505,0,0,1,1.136-6.625,15.93,15.93,0,0,1,2.318-2.93,5.3,5.3,0,0,1,.534-.094c.087-.012.173-.02.26-.028A2.393,2.393,0,0,1,5160.509,486.187Z" transform="translate(-5154.441 -485.838)" fill="#172f59"/>
              </g>
            </g>
            <g id="Groupe_980" data-name="Groupe 980" transform="translate(36.91 3.916)">
              <g id="Groupe_979" data-name="Groupe 979">
                <path id="Tracé_405" data-name="Tracé 405" d="M5161.887,499.82c-2.183-.5-6.4-1.029-7.881-3.248a3.066,3.066,0,0,1-.427-.956h0a11.449,11.449,0,0,1-.589-1.62c-1.175-4.831,1.494-7.3,4.069-7.876.071-.016.142-.031.213-.044a21.847,21.847,0,0,0,.016,4.976c.018.173.038.345.062.514A13.18,13.18,0,0,0,5161.887,499.82Z" transform="translate(-5152.703 -486.076)" fill="#0c1b3c"/>
              </g>
            </g>
            <g id="Groupe_982" data-name="Groupe 982" transform="translate(45.715 18.625)">
              <g id="Groupe_981" data-name="Groupe 981">
                <path id="Tracé_406" data-name="Tracé 406" d="M5184.929,526.979a5.293,5.293,0,0,0-.257-1.03,10.236,10.236,0,0,1-2.988.433,8.034,8.034,0,0,1-1.988-.284c-.121-.042-.241-.086-.358-.136a10.48,10.48,0,0,1-1.612-.871c-.315,1.193-1.847,3.345-1.649,4.394.216,1.152,2.981.027,3.188,0,0,0,.023-.047.065-.135l.134.025a6.319,6.319,0,0,0,1.017.11,42.6,42.6,0,0,0,4.462-1.355A4.346,4.346,0,0,0,5184.929,526.979Z" transform="translate(-5176.058 -525.092)" fill="#0c1b3c"/>
              </g>
            </g>
            <g id="Groupe_999" data-name="Groupe 999" transform="translate(35.491 16.835)">
              <g id="Groupe_984" data-name="Groupe 984" transform="translate(1.513 8.538)">
                <g id="Groupe_983" data-name="Groupe 983">
                  <path id="Tracé_407" data-name="Tracé 407" d="M5152.958,542.992a6.794,6.794,0,0,0,4.338,1.277,2.785,2.785,0,0,1-2.936,1.036C5152.814,544.849,5152.958,542.992,5152.958,542.992Z" transform="translate(-5152.955 -542.992)" fill="#fff"/>
                </g>
              </g>
              <g id="Groupe_986" data-name="Groupe 986" transform="translate(3.089 4.77)">
                <g id="Groupe_985" data-name="Groupe 985">
                  <path id="Tracé_408" data-name="Tracé 408" d="M5157.736,535.449l-.324-.1a.386.386,0,0,1-.249-.516l.646-1.6a.387.387,0,0,1,.468-.226h0a.387.387,0,0,1,.271.443l-.322,1.693A.387.387,0,0,1,5157.736,535.449Z" transform="translate(-5157.134 -532.997)" fill="#543845"/>
                </g>
              </g>
              <g id="Groupe_988" data-name="Groupe 988" transform="translate(7.534 3.626)">
                <g id="Groupe_987" data-name="Groupe 987">
                  <path id="Tracé_409" data-name="Tracé 409" d="M5169.833,530.688c-.095.322-.368.524-.609.453a.632.632,0,1,1,.609-.453Z" transform="translate(-5168.924 -529.963)" fill="#0c1b3c"/>
                </g>
              </g>
              <g id="Groupe_990" data-name="Groupe 990" transform="translate(7.02 1.807)">
                <g id="Groupe_989" data-name="Groupe 989">
                  <path id="Tracé_410" data-name="Tracé 410" d="M5167.56,525.682a.751.751,0,0,1,.12-.123,1.575,1.575,0,0,1,.377-.243,1.74,1.74,0,0,1,.284-.106,2.062,2.062,0,0,1,.337-.063,2.031,2.031,0,0,1,.751.077,2.277,2.277,0,0,1,.358.147,3.177,3.177,0,0,1,.31.2c.089.078.169.161.244.238a1.9,1.9,0,0,1,.177.244,1.1,1.1,0,0,1,.12.221c.031.068.052.131.07.181a1.382,1.382,0,0,1,.047.161s-.058-.029-.147-.085c-.044-.028-.1-.06-.154-.1a2.119,2.119,0,0,0-.2-.121c-.073-.041-.141-.1-.223-.137s-.163-.088-.247-.135-.176-.08-.265-.119-.181-.076-.277-.1a2.317,2.317,0,0,0-.285-.073c-.094-.025-.19-.033-.285-.049s-.188-.021-.278-.025-.178-.01-.26-.009c-.165,0-.308,0-.412,0Z" transform="translate(-5167.56 -525.139)" fill="#0c1b3c"/>
                </g>
              </g>
              <g id="Groupe_992" data-name="Groupe 992" transform="translate(1.687 1.819)">
                <g id="Groupe_991" data-name="Groupe 991">
                  <path id="Tracé_411" data-name="Tracé 411" d="M5154.324,525.9c-.095.321-.368.524-.609.453a.631.631,0,1,1,.609-.453Z" transform="translate(-5153.415 -525.17)" fill="#0c1b3c"/>
                </g>
              </g>
              <g id="Groupe_994" data-name="Groupe 994" transform="translate(1.172)">
                <g id="Groupe_993" data-name="Groupe 993">
                  <path id="Tracé_412" data-name="Tracé 412" d="M5152.051,520.888a.756.756,0,0,1,.12-.122,1.581,1.581,0,0,1,.377-.243,1.829,1.829,0,0,1,.284-.106,2.068,2.068,0,0,1,.337-.063,2.052,2.052,0,0,1,.751.077,2.277,2.277,0,0,1,.358.147,3.2,3.2,0,0,1,.31.2c.09.078.169.161.244.238a1.938,1.938,0,0,1,.177.244,1.138,1.138,0,0,1,.12.221c.03.068.052.131.069.181a1.47,1.47,0,0,1,.048.161s-.059-.029-.147-.085c-.044-.028-.1-.06-.154-.1a2.131,2.131,0,0,0-.2-.121c-.072-.041-.141-.1-.223-.137s-.163-.088-.247-.135-.175-.08-.265-.119-.181-.076-.277-.1a2.309,2.309,0,0,0-.284-.073c-.095-.025-.19-.032-.285-.049s-.188-.021-.278-.025-.178-.01-.26-.009c-.165,0-.308,0-.411,0Z" transform="translate(-5152.051 -520.346)" fill="#0c1b3c"/>
                </g>
              </g>
              <g id="Groupe_996" data-name="Groupe 996" transform="translate(6.788 5.751)" opacity="0.5">
                <g id="Groupe_995" data-name="Groupe 995">
                  <path id="Tracé_413" data-name="Tracé 413" d="M5169.614,537.348a1.362,1.362,0,1,1-.922-1.692A1.362,1.362,0,0,1,5169.614,537.348Z" transform="translate(-5166.945 -535.6)" fill="#543845"/>
                </g>
              </g>
              <g id="Groupe_998" data-name="Groupe 998" transform="translate(0 3.463)" opacity="0.5">
                <g id="Groupe_997" data-name="Groupe 997">
                  <path id="Tracé_414" data-name="Tracé 414" d="M5148.941,532.082a1.4,1.4,0,0,0,.282.118,1.362,1.362,0,1,0,.138-2.646A12.91,12.91,0,0,0,5148.941,532.082Z" transform="translate(-5148.941 -529.531)" fill="#543845"/>
                </g>
              </g>
            </g>
            <g id="Groupe_1001" data-name="Groupe 1001" transform="translate(27.687 59.871)">
              <g id="Groupe_1000" data-name="Groupe 1000">
                <path id="Tracé_415" data-name="Tracé 415" d="M5145.648,655.222c-.654.073-1.354.144-2.108.219-9.328.937-12.778-.509-14.291-4.831-.669-1.911-.972-8.827-1.01-16.113a23.806,23.806,0,0,1,3.083,7.641c1.267,5.554,5.411,2.886,7.811,7.05C5140.38,651.354,5143.215,653.582,5145.648,655.222Z" transform="translate(-5128.239 -634.497)" fill="#c0afe0"/>
              </g>
            </g>
            <g id="Groupe_1003" data-name="Groupe 1003" transform="translate(13.96 36.921)">
              <g id="Groupe_1002" data-name="Groupe 1002">
                <path id="Tracé_416" data-name="Tracé 416" d="M5105.779,584.524l.022.017q-.041.282-.083.569h0c-.122,3.433-.182,7.5-.162,11.463l.006.917c.48-2.626.984-5.656,1.3-8.313a36.753,36.753,0,0,0,.311-4.515,9.776,9.776,0,0,0-.068-1.075,3.417,3.417,0,0,0-.628-1.481c-.078-.113-.163-.226-.253-.339s-.212-.256-.33-.384c-3.388-3.693-12.694-7.249-13.926-7.709l-.135-.05c2.517,2.284,10.884,8.6,13.681,10.7l.209.157.021.016Z" transform="translate(-5091.83 -573.623)" fill="#c0afe0"/>
              </g>
            </g>
            <g id="Groupe_1005" data-name="Groupe 1005" transform="translate(41.547 37.287)">
              <g id="Groupe_1004" data-name="Groupe 1004">
                <path id="Tracé_417" data-name="Tracé 417" d="M5165.262,578.442a.149.149,0,0,1-.148-.136L5165,577a.149.149,0,0,1,.136-.161.151.151,0,0,1,.161.136l.091,1.093,4.669-2.272-.1-1.036a.149.149,0,0,1,.134-.163.151.151,0,0,1,.162.134l.111,1.139a.149.149,0,0,1-.083.149l-4.958,2.412A.153.153,0,0,1,5165.262,578.442Z" transform="translate(-5165.004 -574.593)" fill="#d7ccf2"/>
              </g>
            </g>
            <g id="Groupe_1007" data-name="Groupe 1007" transform="translate(36.899 38.6)">
              <g id="Groupe_1006" data-name="Groupe 1006">
                <path id="Tracé_418" data-name="Tracé 418" d="M5157.078,580.612a.149.149,0,0,1-.069-.017l-4.254-2.238a.149.149,0,1,1,.139-.264l4.044,2.127.037-1.044a.151.151,0,0,1,.154-.144.149.149,0,0,1,.144.154l-.044,1.281a.149.149,0,0,1-.074.124A.152.152,0,0,1,5157.078,580.612Z" transform="translate(-5152.674 -578.077)" fill="#d7ccf2"/>
              </g>
            </g>
          </g>
        </g>
        <g id="Groupe_1023" data-name="Groupe 1023" transform="translate(102.733)">
          <g id="Groupe_1014" data-name="Groupe 1014">
            <g id="Groupe_1011" data-name="Groupe 1011">
              <g id="Groupe_1010" data-name="Groupe 1010">
                <path id="Tracé_419" data-name="Tracé 419" d="M5038.4,475.121l-.788,2.474-.129.406-1.73,5.433-4.437-1.64,1.938-4.625.674-1.608.2-.48a11.859,11.859,0,0,1-1.577-3.271,14.9,14.9,0,0,0-1.212-3.17s1.2-.052,1.625.606.808,1.945,1.158,1.243c.179-.359-.87-2.8-.688-4.592a4.4,4.4,0,0,1,1.586-2.778.407.407,0,0,1,.592-.031,1.53,1.53,0,0,1,.458.747,8.808,8.808,0,0,1,.092,1.649l.433-.78a.253.253,0,0,1,.445,0,1.009,1.009,0,0,1,.1.651,6.579,6.579,0,0,0,1.2,3.58C5038.882,469.76,5039.617,473.738,5038.4,475.121Z" transform="translate(-5031.313 -462.975)" fill="#f6a49d"/>
              </g>
            </g>
            <g id="Groupe_1013" data-name="Groupe 1013" transform="translate(1.938 12.585)">
              <g id="Groupe_1012" data-name="Groupe 1012">
                <path id="Tracé_420" data-name="Tracé 420" d="M5040.812,498.392l-3.684-2.034-.674,1.608,4.229.832Z" transform="translate(-5036.455 -496.358)" fill="#d47c74"/>
              </g>
            </g>
          </g>
          <g id="Groupe_1016" data-name="Groupe 1016" transform="translate(3.559 5.847)">
            <g id="Groupe_1015" data-name="Groupe 1015">
              <path id="Tracé_421" data-name="Tracé 421" d="M5043.783,478.911a.071.071,0,0,1-.033-.008,3.021,3.021,0,0,0-1.467-.272,14.541,14.541,0,0,0-1.445.172.071.071,0,1,1-.025-.139c.006,0,.612-.113,1.46-.174a3.1,3.1,0,0,1,1.542.288.07.07,0,0,1,.03.1A.071.071,0,0,1,5043.783,478.911Z" transform="translate(-5040.754 -478.483)" fill="#d47c74"/>
            </g>
          </g>
          <g id="Groupe_1018" data-name="Groupe 1018" transform="translate(4.797 2.712)">
            <g id="Groupe_1017" data-name="Groupe 1017">
              <path id="Tracé_422" data-name="Tracé 422" d="M5044.651,472.907c-.044,0-.064-.049-.074-.072a.051.051,0,0,1-.005-.02h0c-.151-.423-.3-.876-.43-1.345a3.018,3.018,0,0,1-.07-1.243.071.071,0,0,1,.139.026,2.915,2.915,0,0,0,.066,1.178c.133.467.277.917.428,1.336,0,.012.009.025.012.037h0c.011.04.011.078-.038.1A.079.079,0,0,1,5044.651,472.907Z" transform="translate(-5044.037 -470.169)" fill="#d47c74"/>
            </g>
          </g>
          <g id="Groupe_1020" data-name="Groupe 1020" transform="translate(3.386 0.759)">
            <g id="Groupe_1019" data-name="Groupe 1019">
              <path id="Tracé_423" data-name="Tracé 423" d="M5040.751,469.487a.07.07,0,0,1-.069-.057l-.228-1.105a2.856,2.856,0,0,1-.047-.838c.023-.256.051-.63.053-.956a9.421,9.421,0,0,0-.166-1.457.07.07,0,1,1,.138-.027,9.231,9.231,0,0,1,.169,1.485c0,.332-.029.71-.053.968a2.712,2.712,0,0,0,.044.8l.227,1.105a.07.07,0,0,1-.055.083Z" transform="translate(-5040.293 -464.989)" fill="#d47c74"/>
            </g>
          </g>
          <g id="Groupe_1022" data-name="Groupe 1022" transform="translate(3.162 7.444)">
            <g id="Groupe_1021" data-name="Groupe 1021">
              <path id="Tracé_424" data-name="Tracé 424" d="M5042.232,486.64h0a.071.071,0,0,1-.066-.07s0-.065,0-.17a3.914,3.914,0,0,0-.355-1.393,2.721,2.721,0,0,0-2.047-1.35.071.071,0,0,1-.062-.078.073.073,0,0,1,.078-.063,2.819,2.819,0,0,1,2.161,1.435,5.035,5.035,0,0,1,.255.729c.022-.37.06-.806.125-1.2a7.4,7.4,0,0,1,.509-1.714.071.071,0,0,1,.093-.034.07.07,0,0,1,.034.094,7.314,7.314,0,0,0-.5,1.678,14.824,14.824,0,0,0-.152,1.884,1.371,1.371,0,0,1,0,.195A.07.07,0,0,1,5042.232,486.64Z" transform="translate(-5039.699 -482.721)" fill="#d47c74"/>
            </g>
          </g>
        </g>
        <g id="Groupe_1054" data-name="Groupe 1054" transform="translate(62.932 2.417)">
          <g id="Groupe_1025" data-name="Groupe 1025">
            <g id="Groupe_1024" data-name="Groupe 1024">
              <path id="Tracé_425" data-name="Tracé 425" d="M4943.308,482.486l-8.051,10.423-2.8-1.98c-2.743-1.937-7.393-6.1-6.625-10.023.017-.088.037-.176.06-.264,1.036-4,5.143-2.918,5.143-2.918a21.409,21.409,0,0,1,2.846-4.187c2.812-3.306,9.655-5.7,13.024-2.947a5.2,5.2,0,0,1,1.748,3.043C4950.143,480.56,4943.308,482.486,4943.308,482.486Z" transform="translate(-4925.744 -469.387)" fill="#3a3e49"/>
            </g>
          </g>
          <g id="Groupe_1027" data-name="Groupe 1027" transform="translate(0 1.204)">
            <g id="Groupe_1026" data-name="Groupe 1026">
              <path id="Tracé_426" data-name="Tracé 426" d="M4943.308,484.476l-8.051,10.423-2.8-1.98c-2.743-1.937-7.393-6.1-6.625-10.023,3.436,4.131,11.408,3.933,16.324,1.89,3.61-1.5,4.531-8.1,4.749-12.2a5.2,5.2,0,0,1,1.748,3.043C4950.143,482.551,4943.308,484.476,4943.308,484.476Z" transform="translate(-4925.744 -472.581)" fill="#24292f"/>
            </g>
          </g>
          <g id="Groupe_1029" data-name="Groupe 1029" transform="translate(6.032 18.888)">
            <g id="Groupe_1028" data-name="Groupe 1028">
              <path id="Tracé_427" data-name="Tracé 427" d="M4955.068,531.485a4.054,4.054,0,0,1-1.034,1.954c-1,1.254-2.9,4.458-7.615,3.191s-4.678-4.953-4.678-4.953a4.7,4.7,0,0,0,2.218-1.46c.517-.649-.113-10.73-.113-10.73l.134.057,7.659,3.25s-.025,1.76-.042,3.323c0,.391-.006.769-.009,1.1-.008.993,0,1.851.034,2.058C4951.874,530.676,4955.068,531.485,4955.068,531.485Z" transform="translate(-4941.742 -519.486)" fill="#f6a49d"/>
            </g>
          </g>
          <g id="Groupe_1031" data-name="Groupe 1031" transform="translate(8.271 18.944)">
            <g id="Groupe_1030" data-name="Groupe 1030">
              <path id="Tracé_428" data-name="Tracé 428" d="M4955.34,522.886s-.025,1.76-.042,3.323a4.122,4.122,0,0,1-1.554.267c-3.895-.214-5.863-6.2-6.062-6.84Z" transform="translate(-4947.681 -519.636)" fill="#d47c74"/>
            </g>
          </g>
          <g id="Groupe_1033" data-name="Groupe 1033" transform="translate(4.912 15.828)">
            <g id="Groupe_1032" data-name="Groupe 1032">
              <path id="Tracé_429" data-name="Tracé 429" d="M4944.1,514.094c-.25.7-1.64.822-3.107.267s-2.377-1.531-2.206-2.276c.228-.989,1.64-.822,3.106-.267S4944.354,513.391,4944.1,514.094Z" transform="translate(-4938.772 -511.371)" fill="#d47c74"/>
            </g>
          </g>
          <g id="Groupe_1035" data-name="Groupe 1035" transform="translate(7.606 10.842)">
            <g id="Groupe_1034" data-name="Groupe 1034">
              <path id="Tracé_430" data-name="Tracé 430" d="M4955.1,498.773c-2.541.689-3.41-.05-5.969-.2-.414-.025-.854-.106-1.262-.152a1.51,1.51,0,0,0-1.631,1.181,13.041,13.041,0,0,0-.319,3.208c.11,5.006,3.36,8.983,6.718,8.909s5.121-3.645,5.01-8.65a29.258,29.258,0,0,0-.434-4.92C4956.762,498.3,4956.088,498.506,4955.1,498.773Z" transform="translate(-4945.919 -498.145)" fill="#f6a49d"/>
            </g>
          </g>
          <g id="Groupe_1037" data-name="Groupe 1037" transform="translate(13.148 20.047)">
            <g id="Groupe_1036" data-name="Groupe 1036">
              <path id="Tracé_431" data-name="Tracé 431" d="M4964.81,522.561a6.142,6.142,0,0,1-4.193.339,2.6,2.6,0,0,0,2.475,1.554C4964.587,524.333,4964.81,522.561,4964.81,522.561Z" transform="translate(-4960.617 -522.561)" fill="#fff"/>
            </g>
          </g>
          <g id="Groupe_1039" data-name="Groupe 1039" transform="translate(15.217 16.437)">
            <g id="Groupe_1038" data-name="Groupe 1038">
              <path id="Tracé_432" data-name="Tracé 432" d="M4966.491,515.116l.313-.025a.344.344,0,0,0,.329-.39l-.269-1.447a.349.349,0,0,0-.38-.268h0a.351.351,0,0,0-.333.326l-.044,1.472A.341.341,0,0,0,4966.491,515.116Z" transform="translate(-4966.106 -512.985)" fill="#d47c74"/>
            </g>
          </g>
          <g id="Groupe_1041" data-name="Groupe 1041" transform="translate(11.843 14.581)">
            <g id="Groupe_1040" data-name="Groupe 1040">
              <path id="Tracé_433" data-name="Tracé 433" d="M4957.158,508.677c.025.32.234.565.468.546s.4-.294.379-.615-.235-.565-.469-.546S4957.134,508.356,4957.158,508.677Z" transform="translate(-4957.156 -508.061)" fill="#0c1b3c"/>
            </g>
          </g>
          <g id="Groupe_1043" data-name="Groupe 1043" transform="translate(10.435 12.793)">
            <g id="Groupe_1042" data-name="Groupe 1042">
              <path id="Tracé_434" data-name="Tracé 434" d="M4956.51,504.126a.727.727,0,0,0-.085-.138,1.5,1.5,0,0,0-.3-.3,1.666,1.666,0,0,0-.239-.156,1.883,1.883,0,0,0-.294-.126,1.834,1.834,0,0,0-.7-.077,2.054,2.054,0,0,0-.354.068,2.888,2.888,0,0,0-.321.131c-.1.055-.186.118-.268.175a1.834,1.834,0,0,0-.208.193,1.084,1.084,0,0,0-.151.184c-.041.058-.072.113-.1.156a1.482,1.482,0,0,0-.074.142s.059-.016.15-.051c.045-.017.1-.037.16-.064a1.963,1.963,0,0,1,.2-.075c.074-.024.147-.061.229-.084s.166-.05.25-.078.175-.04.264-.059.179-.036.271-.035a2.124,2.124,0,0,1,.272-.012c.091,0,.18.008.269.01s.175.018.258.032.164.025.239.043c.151.028.28.061.374.085Z" transform="translate(-4953.423 -503.319)" fill="#24292f"/>
            </g>
          </g>
          <g id="Groupe_1045" data-name="Groupe 1045" transform="translate(17.51 14.043)">
            <g id="Groupe_1044" data-name="Groupe 1044">
              <path id="Tracé_435" data-name="Tracé 435" d="M4972.19,507.251c.025.32.234.565.469.546s.4-.294.379-.615-.235-.565-.469-.546S4972.166,506.93,4972.19,507.251Z" transform="translate(-4972.188 -506.635)" fill="#0c1b3c"/>
            </g>
          </g>
          <g id="Groupe_1047" data-name="Groupe 1047" transform="translate(16.102 12.255)">
            <g id="Groupe_1046" data-name="Groupe 1046">
              <path id="Tracé_436" data-name="Tracé 436" d="M4971.542,502.7a.728.728,0,0,0-.085-.138,1.511,1.511,0,0,0-.3-.3,1.661,1.661,0,0,0-.239-.155,1.839,1.839,0,0,0-.295-.126,1.843,1.843,0,0,0-.7-.077,2.03,2.03,0,0,0-.354.067,2.918,2.918,0,0,0-.32.131c-.1.056-.186.118-.268.175a1.866,1.866,0,0,0-.208.193,1.035,1.035,0,0,0-.151.184c-.042.058-.073.113-.1.156a1.292,1.292,0,0,0-.074.142s.058-.016.15-.05c.045-.018.1-.037.16-.064a1.966,1.966,0,0,1,.2-.075c.074-.024.147-.061.229-.084s.166-.05.25-.077.175-.04.264-.06.179-.036.271-.035a2.065,2.065,0,0,1,.272-.012c.091,0,.18.008.269.011s.175.017.258.031.164.026.238.043c.151.028.281.061.374.085Z" transform="translate(-4968.455 -501.894)" fill="#24292f"/>
            </g>
          </g>
          <g id="Groupe_1050" data-name="Groupe 1050" transform="translate(10.317 16.54)" opacity="0.5">
            <g id="Groupe_1049" data-name="Groupe 1049">
              <g id="Groupe_1048" data-name="Groupe 1048">
                <path id="Tracé_437" data-name="Tracé 437" d="M4953.114,514.667a1.268,1.268,0,1,0,1.163-1.4A1.282,1.282,0,0,0,4953.114,514.667Z" transform="translate(-4953.11 -513.258)" fill="#d47c74"/>
              </g>
            </g>
          </g>
          <g id="Groupe_1053" data-name="Groupe 1053" transform="translate(17.565 15.876)" opacity="0.5">
            <g id="Groupe_1052" data-name="Groupe 1052">
              <g id="Groupe_1051" data-name="Groupe 1051">
                <path id="Tracé_438" data-name="Tracé 438" d="M4973.983,514.05a1.263,1.263,0,0,1-1.644-1.144,1.293,1.293,0,0,1,1.163-1.406,1.355,1.355,0,0,1,.611.106A16.228,16.228,0,0,1,4973.983,514.05Z" transform="translate(-4972.335 -511.496)" fill="#d47c74"/>
              </g>
            </g>
          </g>
        </g>
        <g id="Groupe_1083" data-name="Groupe 1083" transform="translate(0 59.479)">
          <g id="Groupe_1067" data-name="Groupe 1067" transform="translate(57.312)">
            <g id="Groupe_1056" data-name="Groupe 1056" transform="translate(0 91.62)">
              <g id="Groupe_1055" data-name="Groupe 1055">
                <path id="Tracé_439" data-name="Tracé 439" d="M4917.33,863.763l-6.5,10.577,17.837,6.688s1.39-4.521-2.285-6.55-5.2-1.671-5.995-3.476c-.454-1.034,2.571-5.127,2.571-5.127Z" transform="translate(-4910.835 -863.763)" fill="#24292f"/>
              </g>
            </g>
            <g id="Groupe_1058" data-name="Groupe 1058" transform="translate(3.522)">
              <g id="Groupe_1057" data-name="Groupe 1057">
                <path id="Tracé_440" data-name="Tracé 440" d="M4920.176,713.842l1.678.629,2.56.96,2.977,1.116,4.022,1.508s14.4-31.384,16.915-44.064q.143-.718.232-1.354a13.081,13.081,0,0,0,.138-1.586c.12-7.141-4.026-28.882-6.22-39.851-.786-3.929-1.322-6.475-1.322-6.475l-2.105-1.042-5.946-2.942-2.821,5.53-.425.832-.484.948-.04.08-1.941,3.8-1.73,3.392-.037.073s-.223,2.061-.274,4.921c-.072,4.006.194,9.579,1.884,13.249.5,1.078,1.02,2.243,1.543,3.462,2.53,5.894,5.039,13.053,4.309,17.784s-9.1,28.375-11.96,36.376l-.043.119c-.026.072-.051.143-.075.211l-.012.034h0c-.072.2-.14.392-.2.569l0,0-.126.351-.141.392-.05.139v0l-.039.106-.089.249-.027.076c-.045.124-.079.219-.1.286l-.021.057Z" transform="translate(-4920.176 -620.742)" fill="#3a3e49"/>
              </g>
            </g>
            <g id="Groupe_1060" data-name="Groupe 1060" transform="translate(24.09 49.874)">
              <g id="Groupe_1059" data-name="Groupe 1059">
                <path id="Tracé_441" data-name="Tracé 441" d="M4982.655,755.783c-.211,1.119-2.152,1.744-4.334,1.4s-3.781-1.537-3.569-2.656,2.152-1.744,4.334-1.4S4982.866,754.664,4982.655,755.783Z" transform="translate(-4974.732 -753.031)" fill="#24292f"/>
              </g>
            </g>
            <g id="Groupe_1062" data-name="Groupe 1062" transform="translate(23.607 14.017)">
              <g id="Groupe_1061" data-name="Groupe 1061">
                <path id="Tracé_442" data-name="Tracé 442" d="M4977.073,663.161a.332.332,0,0,1-.1-.016,5.632,5.632,0,0,1-3.517-4.843.337.337,0,1,1,.667-.087,5.031,5.031,0,0,0,3.053,4.288.337.337,0,0,1-.1.658Z" transform="translate(-4973.451 -657.921)" fill="#24292f"/>
              </g>
            </g>
            <g id="Groupe_1064" data-name="Groupe 1064" transform="translate(4.223 90.494)">
              <g id="Groupe_1063" data-name="Groupe 1063">
                <rect id="Rectangle_493" data-name="Rectangle 493" width="0.682" height="12.196" transform="translate(0 0.639) rotate(-69.445)" fill="#24292f"/>
              </g>
            </g>
            <g id="Groupe_1066" data-name="Groupe 1066" transform="translate(3.522 3.76)" opacity="0.5">
              <g id="Groupe_1065" data-name="Groupe 1065">
                <path id="Tracé_443" data-name="Tracé 443" d="M4933.127,680.935c.882-5.708-2.956-14.954-5.852-21.245s-1.609-18.17-1.609-18.17l3.708-7.269c.138,1.617.325,3.71.549,6.029,2.529-3.208,5.47-9.564,5.47-9.564s4.154,12.885,3.292,18.16c-.5,3.047-1.108,5.68-1.663,7.926a25.134,25.134,0,0,0,.481,13.765c1.3,4.024,2.006,7.389-.038,14.211-2.475,8.263-9.933,28.558-13.052,36.867l-4.238-1.589S4932.246,686.643,4933.127,680.935Z" transform="translate(-4920.176 -630.716)" fill="#24292f"/>
              </g>
            </g>
          </g>
          <g id="Groupe_1082" data-name="Groupe 1082" transform="translate(0 0.967)">
            <g id="Groupe_1069" data-name="Groupe 1069" transform="translate(0 36.195)">
              <g id="Groupe_1068" data-name="Groupe 1068">
                <path id="Tracé_444" data-name="Tracé 444" d="M4776.322,724.078a60.247,60.247,0,0,1-11.012-4.765c-1.943,5.753-4.378,11.506-6.493,17.154a5.891,5.891,0,0,0,6.41-2.5c1.074-1.853,1.745-5.021,3.678-5.365,1.108-.2,4.152,2.412,5.6,2.811C4774.619,729.486,4776.063,726.027,4776.322,724.078Z" transform="translate(-4758.817 -719.313)" fill="#24292f"/>
              </g>
            </g>
            <g id="Groupe_1071" data-name="Groupe 1071" transform="translate(11.037)">
              <g id="Groupe_1070" data-name="Groupe 1070">
                <path id="Tracé_445" data-name="Tracé 445" d="M4791.031,671.7c7.02,2.067,24.83,6.95,33.529,7.464a15.842,15.842,0,0,0,5.149-.236,4.01,4.01,0,0,0,2.411-2.087c.54-.889,1.113-2.053,2.091-3.532a97.609,97.609,0,0,0,8.355-15.487h0c.016-.036.032-.071.048-.107.823-1.836,1.676-3.772,2.659-5.921.44-.091.074.025,1.056-.552s3.095-1.847,4.29-2.576a4.192,4.192,0,0,0,1.9-2.293c.793-2.237,1.908-5.668,2.724-7.976.133-.379.259-.727.374-1.034.815-2.186,1.038-2.846,1.482-4.014.005-.015.012-.029.016-.043,0,.028.024,0,.1-.157l-.037-.023c.055-.147.074-.206.074-.211a1.912,1.912,0,0,0-.083.205c-.866-.546-1.631-1.04-2.376-1.528-.9-.592-1.778-1.175-2.768-1.831-.41-.272-.841-.556-1.3-.859-.583-.384-1.211-.8-1.865-1.224-2.155-1.414-4.59-3.013-6.6-4.372a4.9,4.9,0,0,0-.911.85c-2.248,2.367-6.246,8.344-8.132,11.345a29.924,29.924,0,0,0-3.319,6.272c-2.329,7.432-3.57,19.787-8.08,24.293a17.658,17.658,0,0,0-5.817-1.418c-7.605-.47-24.142-2.444-24.142-2.444q-.22.463-.448.937c-.24.5-.485,1.012-.73,1.529-.712,1.5-1.426,3.061-2.033,4.612-.2.5-.382,1-.552,1.5C4787.981,670.777,4789.1,671.133,4791.031,671.7Z" transform="translate(-4788.093 -623.306)" fill="#3a3e49"/>
              </g>
            </g>
            <g id="Groupe_1073" data-name="Groupe 1073" transform="translate(12.931 6.744)">
              <g id="Groupe_1072" data-name="Groupe 1072">
                <path id="Tracé_446" data-name="Tracé 446" d="M4822.507,682.221c-1.384,0-22.578-4.7-29.126-6.157a.337.337,0,0,1,.146-.658c11.1,2.474,27.916,6.142,28.917,6.147,1.85-.384,4.52-3.309,7.521-8.241a71.381,71.381,0,0,0,6.144-12.784c2.345-7,4.85-13.729,9.678-19.219a.337.337,0,1,1,.505.445c-4.745,5.4-7.222,12.06-9.544,18.988-2.3,6.862-9.617,20.566-14.191,21.476A.288.288,0,0,1,4822.507,682.221Z" transform="translate(-4793.117 -641.194)" fill="#24292f"/>
              </g>
            </g>
            <g id="Groupe_1075" data-name="Groupe 1075" transform="translate(58.263 11.92)">
              <g id="Groupe_1074" data-name="Groupe 1074">
                <path id="Tracé_447" data-name="Tracé 447" d="M4913.7,662.782a.337.337,0,0,1,0-.674,9.965,9.965,0,0,0,4.557-.987c1.751-.725,4.287-3.873,5.219-6a.337.337,0,0,1,.617.271c-.884,2.012-3.5,5.485-5.579,6.347a10.634,10.634,0,0,1-4.81,1.039Z" transform="translate(-4913.359 -654.924)" fill="#24292f"/>
              </g>
            </g>
            <g id="Groupe_1077" data-name="Groupe 1077" transform="translate(48.393 49.852)">
              <g id="Groupe_1076" data-name="Groupe 1076">
                <path id="Tracé_448" data-name="Tracé 448" d="M4889.335,760.247a5.877,5.877,0,0,0,2.1,1.063,4.009,4.009,0,0,0,2.411-2.087,5.98,5.98,0,0,0-2.026-2.461c-1-.749-3.4-1.947-4.373-.65S4888.35,759.438,4889.335,760.247Z" transform="translate(-4887.179 -755.537)" fill="#24292f"/>
              </g>
            </g>
            <g id="Groupe_1079" data-name="Groupe 1079" transform="translate(13.576 39.204)">
              <g id="Groupe_1078" data-name="Groupe 1078">
                <path id="Tracé_449" data-name="Tracé 449" d="M4795.466,736.831l-.639-.212c.35-1.059.7-2.146,1.043-3.191.907-2.789,1.69-5.2,2.1-6.136l.617.272c-.4.906-1.216,3.415-2.08,6.072C4796.171,734.683,4795.817,735.771,4795.466,736.831Z" transform="translate(-4794.827 -727.293)" fill="#24292f"/>
              </g>
            </g>
            <g id="Groupe_1081" data-name="Groupe 1081" transform="translate(68.624 14.904)">
              <g id="Groupe_1080" data-name="Groupe 1080">
                <path id="Tracé_450" data-name="Tracé 450" d="M4941.178,674.573a.337.337,0,0,1-.311-.466c1.2-2.885,2.37-5.838,3.5-8.694q.47-1.182.94-2.364a.337.337,0,0,1,.625.25q-.471,1.181-.94,2.363c-1.136,2.858-2.31,5.813-3.509,8.7A.337.337,0,0,1,4941.178,674.573Z" transform="translate(-4940.841 -662.837)" fill="#24292f"/>
              </g>
            </g>
          </g>
        </g>
        <g id="Groupe_1085" data-name="Groupe 1085" transform="translate(61.849 63.633)">
          <g id="Groupe_1084" data-name="Groupe 1084">
            <path id="Tracé_451" data-name="Tracé 451" d="M4922.871,633.313s1.324,2.786,3.023,3.516c.9.388,1.987.826,3.188,1.257l.008,0c.72.259,1.483.516,2.273.758a29.545,29.545,0,0,0,8.959,1.488l.108,0a12.468,12.468,0,0,0,3.673-.611c-.162-4-.293-6.6-.293-6.6l-1.916-1.358-8.313,1.678-1.3.263Z" transform="translate(-4922.871 -631.76)" fill="#24292f"/>
          </g>
        </g>
        <g id="Groupe_1096" data-name="Groupe 1096" transform="translate(76.658 13.596)">
          <g id="Groupe_1087" data-name="Groupe 1087" transform="translate(26.456)">
            <g id="Groupe_1086" data-name="Groupe 1086">
              <path id="Tracé_452" data-name="Tracé 452" d="M5038.4,504.853c.183-1.575.1-3.162.331-4.731l-5.23-1.085c-.383,1.415-.8,2.819-1.171,4.239C5034.36,503.764,5036.382,504.3,5038.4,504.853Z" transform="translate(-5032.327 -499.037)" fill="#cbc0e0"/>
            </g>
          </g>
          <g id="Groupe_1089" data-name="Groupe 1089" transform="translate(0 2.105)">
            <g id="Groupe_1088" data-name="Groupe 1088">
              <path id="Tracé_453" data-name="Tracé 453" d="M4994.858,507.11a5.011,5.011,0,0,1,.4,2.787,29.5,29.5,0,0,1-9.243,19.419c-.527.463-1.393,1.205-2.116,1.768a45.768,45.768,0,0,1-5.554,3.893,5.222,5.222,0,0,1-1.687.607,35.829,35.829,0,0,1-7.186.41c-3.457-.265-6.89-2.9-7.3-6.363-.036-.306.02-.334-.014-.6a.648.648,0,0,1,0,.079c-.005-.229-.01-.456-.015-.684.006.2.008.4.016.593a7.882,7.882,0,0,1,5.891-7.668,6.18,6.18,0,0,1,1.666-.1c.433.018.963.245,1.274.261,3.951.2,5.88-.07,9.208-2.311,0,0-.162.114.06-.039a8.6,8.6,0,0,0,1.2-.833c3.647-3.386,3.49-9.534,7.06-12.512a2.115,2.115,0,0,1,.388-.279C4991.456,504.176,4993.457,504.048,4994.858,507.11Z" transform="translate(-4962.152 -504.62)" fill="#cbc0e0"/>
            </g>
          </g>
          <g id="Groupe_1091" data-name="Groupe 1091" transform="translate(26.521 2.352)">
            <g id="Groupe_1090" data-name="Groupe 1090">
              <path id="Tracé_454" data-name="Tracé 454" d="M5038.385,507.153a.19.19,0,0,1-.128-.051,4.727,4.727,0,0,0-2.629-1.393,3.837,3.837,0,0,0-2.83.641.188.188,0,0,1-.222-.3,4.18,4.18,0,0,1,3.121-.707,5.126,5.126,0,0,1,2.817,1.488.189.189,0,0,1-.128.327Z" transform="translate(-5032.499 -505.276)" fill="#c0afe0"/>
            </g>
          </g>
          <g id="Groupe_1093" data-name="Groupe 1093" transform="translate(18.485 15.793)">
            <g id="Groupe_1092" data-name="Groupe 1092">
              <path id="Tracé_455" data-name="Tracé 455" d="M5012.155,540.968c1.217-.219,5.566.466,4.251,2.344-1.7,2.429-3.837.351-5.041-1.432-.065-.1-.129-.192-.182-.274.034-.023.053-.038.091-.06C5011.579,541.371,5011.826,541.138,5012.155,540.968Z" transform="translate(-5011.183 -540.929)" fill="#c0afe0"/>
            </g>
          </g>
          <g id="Groupe_1095" data-name="Groupe 1095" transform="translate(17.689 16.419)">
            <g id="Groupe_1094" data-name="Groupe 1094">
              <path id="Tracé_456" data-name="Tracé 456" d="M5009.43,542.917c-.057-.024.072-.3-.038.206s-.864,3.913.416,3.828c1.327-.088.5-3.241.216-4.061a3.032,3.032,0,0,0-.066-.3.432.432,0,0,0-.094.053A3.849,3.849,0,0,0,5009.43,542.917Z" transform="translate(-5009.071 -542.588)" fill="#c0afe0"/>
            </g>
          </g>
        </g>
        <g id="Groupe_1098" data-name="Groupe 1098" transform="translate(61.583 30.126)">
          <g id="Groupe_1097" data-name="Groupe 1097">
            <path id="Tracé_457" data-name="Tracé 457" d="M4923.8,553.154c-.053,1.392-.326,4.225-.633,7.5-.637,6.791-1.426,15.5-.738,17.285.425,1.1,2.354,2.273,4.715,3.237a33.5,33.5,0,0,0,5.023,1.583,15.32,15.32,0,0,0,4.481.5c3.487-.368,7.249-1.07,7.588-6.866s1.227-16.338,2.7-19.581a4.387,4.387,0,0,0,.317-1.592,16.04,16.04,0,0,0-.267-3.237c-.718-4.284-1.348-6.541-1.348-6.541l-6.819-2.56-6.645,0-7.043.741A63.818,63.818,0,0,0,4923.8,553.154Z" transform="translate(-4922.164 -542.884)" fill="#cbc0e0"/>
          </g>
        </g>
        <g id="Groupe_1100" data-name="Groupe 1100" transform="translate(67.777 33.11)">
          <g id="Groupe_1099" data-name="Groupe 1099">
            <path id="Tracé_458" data-name="Tracé 458" d="M4943.359,554.917l-.511-.418c-.015-.012.769-3.7.769-3.7l2.826.26.4,3.5c0,.019-1.041.78-1.041.78l1.494,16.939a1.024,1.024,0,0,1-.177.671l-4.887,7.008a.15.15,0,0,1-.265-.029l-3.376-7.955,4.778-17.021A.037.037,0,0,0,4943.359,554.917Z" transform="translate(-4938.593 -550.798)" fill="#c0afe0"/>
          </g>
        </g>
        <g id="Groupe_1102" data-name="Groupe 1102" transform="translate(68.563 36.41)">
          <g id="Groupe_1101" data-name="Groupe 1101">
            <path id="Tracé_459" data-name="Tracé 459" d="M4947.788,559.929l1.6,18.149a.313.313,0,0,1-.054.205l-4.91,7.041a.267.267,0,0,1-.472-.05l-3.25-7.657a.313.313,0,0,1-.013-.206l4.954-17.646a.28.28,0,0,1,.285-.212l1.6.113A.281.281,0,0,1,4947.788,559.929Z" transform="translate(-4940.679 -559.552)" fill="#745faa"/>
          </g>
        </g>
        <g id="Groupe_1104" data-name="Groupe 1104" transform="translate(72.697 33.176)">
          <g id="Groupe_1103" data-name="Groupe 1103">
            <path id="Tracé_460" data-name="Tracé 460" d="M4955.134,551.234l.334,2.765a1.075,1.075,0,0,1-.449,1.013l-.928.64a1,1,0,0,1-1.193-.038l-.855-.677a1.071,1.071,0,0,1-.374-1.07l.639-2.892Z" transform="translate(-4951.644 -550.975)" fill="#745faa"/>
          </g>
        </g>
        <g id="Groupe_1106" data-name="Groupe 1106" transform="translate(74.863 28.112)">
          <g id="Groupe_1105" data-name="Groupe 1105">
            <path id="Tracé_461" data-name="Tracé 461" d="M4957.512,539.212l-.026,1.069-.1,3.984,4.934-4.123-.884-2.6-1.415.6Z" transform="translate(-4957.389 -537.541)" fill="#cbc0e0"/>
          </g>
        </g>
        <g id="Groupe_1108" data-name="Groupe 1108" transform="translate(69.374 27.812)">
          <g id="Groupe_1107" data-name="Groupe 1107">
            <path id="Tracé_462" data-name="Tracé 462" d="M4948.477,538.755l-.321,5.044-5.326-4.505,1.884-2.548Z" transform="translate(-4942.829 -536.745)" fill="#cbc0e0"/>
          </g>
        </g>
        <g id="Groupe_1110" data-name="Groupe 1110" transform="translate(76.873 30.811)">
          <g id="Groupe_1109" data-name="Groupe 1109">
            <path id="Tracé_463" data-name="Tracé 463" d="M4962.907,547.274a.188.188,0,0,1-.118-.334l2.718-2.2a.188.188,0,0,1,.236.292l-2.718,2.2A.187.187,0,0,1,4962.907,547.274Z" transform="translate(-4962.72 -544.701)" fill="#c0afe0"/>
          </g>
        </g>
        <g id="Groupe_1112" data-name="Groupe 1112" transform="translate(69.547 30.563)">
          <g id="Groupe_1111" data-name="Groupe 1111">
            <path id="Tracé_464" data-name="Tracé 464" d="M4946.016,546.721a.188.188,0,0,1-.126-.049l-2.54-2.3a.188.188,0,0,1,.252-.278l2.54,2.3a.188.188,0,0,1-.126.327Z" transform="translate(-4943.289 -544.042)" fill="#c0afe0"/>
          </g>
        </g>
        <g id="Groupe_1114" data-name="Groupe 1114" transform="translate(70.92 75.037)">
          <g id="Groupe_1113" data-name="Groupe 1113">
            <path id="Tracé_465" data-name="Tracé 465" d="M4947.278,675.106a.348.348,0,0,1-.176-.648l1.259-.737a5.762,5.762,0,0,0,2.154-2.2,7.983,7.983,0,0,0,.5-1.117l2.945-8.168a.348.348,0,0,1,.655.236l-2.945,8.168a8.7,8.7,0,0,1-.547,1.215,6.463,6.463,0,0,1-2.413,2.464l-1.259.737A.345.345,0,0,1,4947.278,675.106Z" transform="translate(-4946.93 -662.009)" fill="#24292f"/>
          </g>
        </g>
        <g id="Groupe_1116" data-name="Groupe 1116" transform="translate(61.541 49.612)">
          <g id="Groupe_1115" data-name="Groupe 1115">
            <path id="Tracé_466" data-name="Tracé 466" d="M4922.9,594.571c-.638,6.792-1.229,13.786-.541,15.573.425,1.1,2.354,2.273,4.715,3.237.813-3.819-2.245-7.328-2.624-9.006-.509-2.261-1.031-1.165.045-4.289S4922.9,594.571,4922.9,594.571Z" transform="translate(-4922.053 -594.571)" fill="#c0afe0"/>
          </g>
        </g>
        <g id="Groupe_1144" data-name="Groupe 1144" transform="translate(43.115 30.867)">
          <g id="Groupe_1130" data-name="Groupe 1130" transform="translate(0 34.846)">
            <g id="Groupe_1129" data-name="Groupe 1129">
              <g id="Groupe_1118" data-name="Groupe 1118" transform="translate(0 5.508)">
                <g id="Groupe_1117" data-name="Groupe 1117">
                  <path id="Tracé_467" data-name="Tracé 467" d="M4875.949,653.6s-.208-.233-.507-.526c-.71-.7-1.937-1.735-2.148-.847v.005a6.206,6.206,0,0,0-.036,2.175c.053.373.112.617.112.617l1.622-.9Z" transform="translate(-4873.178 -651.886)" fill="#f6a49d"/>
                </g>
              </g>
              <g id="Groupe_1120" data-name="Groupe 1120" transform="translate(0.063)">
                <g id="Groupe_1119" data-name="Groupe 1119">
                  <path id="Tracé_468" data-name="Tracé 468" d="M4882.438,647.8a1.584,1.584,0,0,1-1.826-.706,6.465,6.465,0,0,0-1.461-1.4,1.565,1.565,0,0,0-1.19-.33s.917-.537.946-.558h0c-.067.017-.154.037-.257.058l-.109.021-.038.007-.166.029a13.915,13.915,0,0,1-1.5.167c-.261.014-.53.02-.8.016a7.243,7.243,0,0,1-.941-.075h0a4.7,4.7,0,0,1-.469-.1h0a3.132,3.132,0,0,1-.325-.1,2.479,2.479,0,0,1-.281-.126,1.554,1.554,0,0,1-.5-.4,1.508,1.508,0,0,1-.125-1.172v-.012a17.059,17.059,0,0,1,1.82-4.284c.071-.127.139-.25.205-.366.154-.272.293-.51.407-.7.185-.31.3-.494.3-.494l.44,0,3.419.022c-.02.141-.073.463-.138.845-.089.532-.2,1.179-.277,1.615-.009.052-.018.1-.025.146-.037.213-.061.348-.061.348a8.422,8.422,0,0,1,1.353,3.126,9.514,9.514,0,0,0,1.063,3.3c.162.176.428.427.638.621A.3.3,0,0,1,4882.438,647.8Z" transform="translate(-4873.344 -637.277)" fill="#f6a49d"/>
                </g>
              </g>
              <g id="Groupe_1122" data-name="Groupe 1122" transform="translate(0.192 5.64)">
                <g id="Groupe_1121" data-name="Groupe 1121">
                  <path id="Tracé_469" data-name="Tracé 469" d="M4879.12,654.127a5.429,5.429,0,0,0-.374-1.467c-.459-.938-1.873-.109-2.771.5-.067.046-.14.089-.216.131-1.889,1.054-2.073,1.951-2.073,1.951l1.622-.9A11.572,11.572,0,0,0,4879.12,654.127Z" transform="translate(-4873.686 -652.237)" fill="#d47c74"/>
                </g>
              </g>
              <g id="Groupe_1124" data-name="Groupe 1124" transform="translate(0.146 6.086)">
                <g id="Groupe_1123" data-name="Groupe 1123">
                  <path id="Tracé_470" data-name="Tracé 470" d="M4878.648,658.36a2.652,2.652,0,0,0,.694-2.028,8.367,8.367,0,0,0-.486-2.49c-.458-.938-1.873-.109-2.771.5s-2.812.879-2.484,2.229,3.921,2.635,4.7,2.092A2.254,2.254,0,0,0,4878.648,658.36Z" transform="translate(-4873.564 -653.419)" fill="#f6a49d"/>
                </g>
              </g>
              <g id="Groupe_1126" data-name="Groupe 1126" transform="translate(1.728 2.723)">
                <g id="Groupe_1125" data-name="Groupe 1125">
                  <path id="Tracé_471" data-name="Tracé 471" d="M4877.865,648.074a.1.1,0,0,1-.06-.188,10.266,10.266,0,0,0,1.835-1.6,2.666,2.666,0,0,0,.393-1.664.1.1,0,1,1,.2-.04,2.8,2.8,0,0,1-.416,1.806,10.071,10.071,0,0,1-1.9,1.666A.106.106,0,0,1,4877.865,648.074Z" transform="translate(-4877.761 -644.499)" fill="#d47c74"/>
                </g>
              </g>
              <g id="Groupe_1128" data-name="Groupe 1128" transform="translate(4.475 2.854)">
                <g id="Groupe_1127" data-name="Groupe 1127">
                  <path id="Tracé_472" data-name="Tracé 472" d="M4885.409,647.485a.1.1,0,0,1-.1-.074,5.449,5.449,0,0,1-.166-2.489.1.1,0,0,1,.2.058,5.346,5.346,0,0,0,.166,2.372.1.1,0,0,1-.07.129A.1.1,0,0,1,4885.409,647.485Z" transform="translate(-4885.049 -644.847)" fill="#d47c74"/>
                </g>
              </g>
            </g>
          </g>
          <g id="Groupe_1132" data-name="Groupe 1132" transform="translate(1.938 35.339)">
            <g id="Groupe_1131" data-name="Groupe 1131">
              <path id="Tracé_473" data-name="Tracé 473" d="M4878.93,638.587l4.022.376c-.089.532-.2,1.179-.277,1.615-.009.052-.018.1-.026.146l-4.331-1.071Z" transform="translate(-4878.318 -638.587)" fill="#d47c74"/>
            </g>
          </g>
          <g id="Groupe_1143" data-name="Groupe 1143" transform="translate(1.584)">
            <g id="Groupe_1134" data-name="Groupe 1134" transform="translate(0.08 32.521)">
              <g id="Groupe_1133" data-name="Groupe 1133">
                <path id="Tracé_474" data-name="Tracé 474" d="M4878.2,631.112l-.611,3.634,5.247.7.8-3.285Z" transform="translate(-4877.592 -631.112)" fill="#cbc0e0"/>
              </g>
            </g>
            <g id="Groupe_1136" data-name="Groupe 1136">
              <g id="Groupe_1135" data-name="Groupe 1135">
                <path id="Tracé_475" data-name="Tracé 475" d="M4900.894,557.424q-.573.4-1.225.824l-.7.461c-1.8,1.186-3.348,2.228-4.662,3.146-1.471,1.029-2.65,1.9-3.566,2.649a17.552,17.552,0,0,0-1.573,1.42l-.013.013c-.073.077-.143.153-.208.226s-.121.139-.176.207c-1.277,1.571-3.162,11.243-5.045,12.885a3.306,3.306,0,0,1-.511.359c-1.476.857-4.231,1.223-5.326-1.159a5.34,5.34,0,0,1-.432-1.763c-.424-4.74.936-13.426,3.614-17.46,1.657-2.5,8.736-8.739,12.993-12.605a7.762,7.762,0,0,1,3.173-1.777,14.594,14.594,0,0,1,4.586,2.717A6.461,6.461,0,0,1,4900.894,557.424Z" transform="translate(-4877.379 -544.85)" fill="#cbc0e0"/>
              </g>
            </g>
            <g id="Groupe_1138" data-name="Groupe 1138" transform="translate(0.653 33.786)">
              <g id="Groupe_1137" data-name="Groupe 1137">
                <path id="Tracé_476" data-name="Tracé 476" d="M4882.158,636a3.069,3.069,0,0,1-.577-.054,3.834,3.834,0,0,1-2.439-1.212.17.17,0,0,1,.278-.195,3.621,3.621,0,0,0,2.225,1.074,3.807,3.807,0,0,0,2.63-.655.17.17,0,0,1,.2.274A4.329,4.329,0,0,1,4882.158,636Z" transform="translate(-4879.111 -634.466)" fill="#c0afe0"/>
              </g>
            </g>
            <g id="Groupe_1140" data-name="Groupe 1140" transform="translate(6.262 19.383)">
              <g id="Groupe_1139" data-name="Groupe 1139">
                <path id="Tracé_477" data-name="Tracé 477" d="M4898.879,598.658c-2.076.458-5.409.921-4.823-1.013.759-2.5,3.808-1.03,5.4-.048.086.053.168.1.246.154l-.08.083C4899.41,598.061,4899.158,598.34,4898.879,598.658Z" transform="translate(-4893.988 -596.264)" fill="#c0afe0"/>
              </g>
            </g>
            <g id="Groupe_1142" data-name="Groupe 1142" transform="translate(10.259 17.086)">
              <g id="Groupe_1141" data-name="Groupe 1141">
                <path id="Tracé_478" data-name="Tracé 478" d="M4906.712,593.564h0c-.11-1.407-.47-3.538-1.633-3.386-1.207.158.093,2.329.987,3.623.057.083.113.162.166.237l.08-.084Z" transform="translate(-4904.59 -590.17)" fill="#c0afe0"/>
              </g>
            </g>
          </g>
        </g>
      </g>
      <g id="Groupe_1147" data-name="Groupe 1147" transform="translate(4871.451 447.618)">
        <g id="Groupe_1146" data-name="Groupe 1146" transform="translate(0)">
          <path id="Tracé_479" data-name="Tracé 479" d="M5057.765,453.782h0a.319.319,0,0,1-.161-.422l2.486-5.553a.319.319,0,0,1,.421-.161h0a.319.319,0,0,1,.161.421l-2.486,5.554A.319.319,0,0,1,5057.765,453.782Z" transform="translate(-5057.577 -447.618)" fill="#cbc0e0"/>
        </g>
      </g>
      <g id="Groupe_1149" data-name="Groupe 1149" transform="translate(4872.561 452.296)">
        <g id="Groupe_1148" data-name="Groupe 1148" transform="translate(0 0)">
          <path id="Tracé_480" data-name="Tracé 480" d="M5060.567,463.7h0a.319.319,0,0,1,.1-.439l5.185-3.185a.32.32,0,0,1,.439.105h0a.319.319,0,0,1-.1.439l-5.185,3.184A.319.319,0,0,1,5060.567,463.7Z" transform="translate(-5060.52 -460.027)" fill="#cbc0e0"/>
        </g>
      </g>
      <g id="Groupe_1151" data-name="Groupe 1151" transform="translate(4868.171 447.876)">
        <g id="Groupe_1150" data-name="Groupe 1150" transform="translate(0)">
          <path id="Tracé_481" data-name="Tracé 481" d="M5049.852,454.99h0a.318.318,0,0,0,.284-.35l-.623-6.053a.319.319,0,0,0-.35-.285h0a.319.319,0,0,0-.285.35l.624,6.052A.318.318,0,0,0,5049.852,454.99Z" transform="translate(-5048.876 -448.301)" fill="#cbc0e0"/>
        </g>
      </g>
    </g>
  </g>
</svg>
