<svg xmlns="http://www.w3.org/2000/svg" width="362.87" height="211.156" viewBox="0 0 362.87 211.156">
  <g id="Groupe_892" data-name="Groupe 892" transform="translate(3155.085 -424.489)">
    <rect id="Rectangle_472" data-name="Rectangle 472" width="55.163" height="55.163" transform="translate(-3155.085 580.482)" fill="#700ce8"/>
    <rect id="Rectangle_473" data-name="Rectangle 473" width="40.683" height="40.683" transform="translate(-2875.822 434.66)" fill="#0000bc"/>
    <path id="Tracé_338" data-name="Tracé 338" d="M-3030.786,424.489a58.328,58.328,0,0,0-50.5,58,58.563,58.563,0,0,0,9.782,32.507h40.722Z" transform="translate(-23.971)" fill="#00e0ff"/>
    <path id="Tracé_339" data-name="Tracé 339" d="M-2865.244,535.345a52.533,52.533,0,0,0,28.446-46.794c0-28.987-23.3-52.486-52.039-52.486s-52.039,23.5-52.039,52.486a52.542,52.542,0,0,0,26.357,45.657,95.137,95.137,0,0,0-52.665,34.458,95.25,95.25,0,0,0-48.447-33.321,52.534,52.534,0,0,0,28.447-46.794c0-28.987-23.3-52.486-52.039-52.486s-52.039,23.5-52.039,52.486a52.542,52.542,0,0,0,26.357,45.657,95.833,95.833,0,0,0-72.614,93.246h340.671A95.886,95.886,0,0,0-2865.244,535.345Z" transform="translate(-5.706 -3.76)" fill="blue"/>
    <path id="Tracé_340" data-name="Tracé 340" d="M-2664.7,637.681h-30.815V704.9h52.578A113.991,113.991,0,0,0-2664.7,637.681Z" transform="translate(-149.282 -69.25)" fill="#f0f"/>
    <rect id="Rectangle_474" data-name="Rectangle 474" width="31.029" height="71.195" transform="translate(-3030.968 564.451)" fill="#9600ff"/>
    <path id="Tracé_341" data-name="Tracé 341" d="M-2797.885,573.161V485.284h-67.66a59.287,59.287,0,0,0-1.423,12.875A58.741,58.741,0,0,0-2837.5,549.2a105.645,105.645,0,0,0-42.093,21.165v2.8Z" transform="translate(-89.486 -19.748)" fill="#4b00ff"/>
    <rect id="Rectangle_475" data-name="Rectangle 475" width="35.856" height="35.856" transform="translate(-3042.69 463.276)" fill="#0066e8"/>
  </g>
</svg>
