<svg xmlns="http://www.w3.org/2000/svg" width="131.871" height="89.714" viewBox="0 0 131.871 89.714">
  <g id="Groupe_2162" data-name="Groupe 2162" transform="translate(4241.809 -2041.424)">
    <path id="Tracé_811" data-name="Tracé 811" d="M-4228.946,2214.468h-6.713V2252.8h20.288v-38.334Z" transform="translate(-4.878 -137.283)" fill="#fff"/>
    <rect id="Rectangle_1485" data-name="Rectangle 1485" width="15.856" height="15.856" transform="translate(-4190.728 2103.251)" fill="#fff"/>
    <path id="Tracé_812" data-name="Tracé 812" d="M-3710.727,2361.021h-19.4v23.665h23.665v-23.665Z" transform="translate(-405.936 -253.549)" fill="#fff"/>
    <path id="Tracé_813" data-name="Tracé 813" d="M-3651.213,2044.766v-2.695l-3.9,2.695Z" transform="translate(-465.449 -0.513)" fill="#fff"/>
    <rect id="Rectangle_1486" data-name="Rectangle 1486" width="15.856" height="15.856" transform="translate(-4190.728 2103.251)" fill="#fff"/>
    <rect id="Rectangle_1487" data-name="Rectangle 1487" width="3.643" height="24.905" transform="translate(-4115.422 2073.083)" fill="#fff"/>
    <path id="Tracé_814" data-name="Tracé 814" d="M-4106.369,2092.688h-14.6l-7.317,5.057h8.936l-27.81,19.22-6.458-4.463v-2.827l-49.56-34.255v27.5h14.814v40.813h-14.814v11.917h96.521V2133.2h20.641v-54.585Zm-36.615,54.629h-18.335v-18.335h18.335Z" transform="translate(-30.65 -26.971)" fill="#fff"/>
    <path id="Tracé_815" data-name="Tracé 815" d="M-3763.542,2061.111h-5.693L-3796.7,2080.1h12.418l20.743-14.337,6.725-4.648Z" transform="translate(-353.12 -15.618)" fill="#fff"/>
    <path id="Tracé_816" data-name="Tracé 816" d="M-4233.825,2041.424h-7.984l7.984,5.518,49.56,34.255v-10.423h23.15l9.488-6.559.62-.428.62-.429,25.85-17.867.9-.62.9-.62,4.092-2.828Z" transform="translate(0 0)" fill="#fff"/>
    <path id="Tracé_817" data-name="Tracé 817" d="M-3935.065,2189.448h-22.3v12.867l5.218,3.606,23.833-16.474Z" transform="translate(-225.662 -117.433)" fill="#fff"/>
  </g>
</svg>
