<svg id="Groupe_867" data-name="Groupe 867" xmlns="http://www.w3.org/2000/svg" width="89.667" height="89.667" viewBox="0 0 89.667 89.667">
  <path id="Tracé_300" data-name="Tracé 300" d="M89.667,44.833A44.833,44.833,0,1,0,37.828,89.122V57.793H26.445V44.833H37.828V34.956c0-11.236,6.693-17.443,16.934-17.443a68.944,68.944,0,0,1,10.036.876V29.422H59.145c-5.569,0-7.306,3.456-7.306,7v8.41H64.273l-1.988,12.96H51.839V89.122A44.844,44.844,0,0,0,89.667,44.833Z" fill="#1877f2"/>
  <path id="Tracé_301" data-name="Tracé 301" d="M337.84,240.28l1.988-12.96H327.394v-8.41c0-3.546,1.737-7,7.306-7h5.653V200.876A68.942,68.942,0,0,0,330.318,200c-10.241,0-16.934,6.207-16.934,17.443v9.877H302v12.96h11.383v31.329a45.306,45.306,0,0,0,14.01,0V240.28Z" transform="translate(-275.555 -182.487)" fill="#fff"/>
</svg>
