<svg id="Composant_6_1" data-name="Composant 6 – 1" xmlns="http://www.w3.org/2000/svg" width="50" height="50" viewBox="0 0 50 50">
  <g id="Groupe_751" data-name="Groupe 751" transform="translate(0 0)">
    <g id="Groupe_26" data-name="Groupe 26" transform="translate(0 0)">
      <g id="Groupe_25" data-name="Groupe 25">
        <path id="Tracé_61" data-name="Tracé 61" d="M-3162.617,1645.827a25,25,0,0,0-25-25,25,25,0,0,0-25,25,25,25,0,0,0,21.094,24.693v-17.468h-6.348v-7.226h6.348v-5.507c0-6.265,3.732-9.726,9.443-9.726a38.448,38.448,0,0,1,5.6.488v6.152h-3.152c-3.105,0-4.074,1.927-4.074,3.9v4.689h6.934l-1.108,7.226h-5.825v17.468a25,25,0,0,0,21.094-24.693Z" transform="translate(3212.617 -1620.83)" fill="#12100b"/>
        <path id="Tracé_62" data-name="Tracé 62" d="M-2890.629,1843.294l1.109-7.227h-6.935v-4.69c0-1.977.969-3.9,4.075-3.9h3.153v-6.153a38.449,38.449,0,0,0-5.6-.488c-5.711,0-9.444,3.461-9.444,9.728v5.509h-6.349v7.227h6.349v17.472a25.178,25.178,0,0,0,3.907.3,25.176,25.176,0,0,0,3.907-.3v-17.472Z" transform="translate(2925.372 -1811.07)" fill="#fff"/>
      </g>
    </g>
  </g>
  <g id="Groupe_773" data-name="Groupe 773" transform="translate(-778 -5124)">
    <g id="Groupe_751-2" data-name="Groupe 751" transform="translate(778 5124)">
      <g id="Groupe_26-2" data-name="Groupe 26" transform="translate(0 0)">
        <g id="Groupe_25-2" data-name="Groupe 25">
          <path id="Tracé_61-2" data-name="Tracé 61" d="M-3162.617,1645.827a25,25,0,0,0-25-25,25,25,0,0,0-25,25,25,25,0,0,0,21.094,24.693v-17.468h-6.348v-7.226h6.348v-5.507c0-6.265,3.732-9.726,9.443-9.726a38.448,38.448,0,0,1,5.6.488v6.152h-3.152c-3.105,0-4.074,1.927-4.074,3.9v4.689h6.934l-1.108,7.226h-5.825v17.468a25,25,0,0,0,21.094-24.693Z" transform="translate(3212.617 -1620.83)" fill="#fff"/>
          <path id="Tracé_62-2" data-name="Tracé 62" d="M-2890.629,1843.294l1.109-7.227h-6.935v-4.69c0-1.977.969-3.9,4.075-3.9h3.153v-6.153a38.449,38.449,0,0,0-5.6-.488c-5.711,0-9.444,3.461-9.444,9.728v5.509h-6.349v7.227h6.349v17.472a25.178,25.178,0,0,0,3.907.3,25.176,25.176,0,0,0,3.907-.3v-17.472Z" transform="translate(2925.372 -1811.07)"/>
        </g>
      </g>
    </g>
  </g>
</svg>
