<svg xmlns="http://www.w3.org/2000/svg" width="90" height="90" viewBox="0 0 90 90">
  <g id="Groupe_883" data-name="Groupe 883" transform="translate(-691.576 -301.613)">
    <path id="Tracé_323" data-name="Tracé 323" d="M770.576,301.613h-68a11,11,0,0,0-11,11v68a11,11,0,0,0,11,11H729.57V359.569H718.187v-12.96h11.384v-9.877c0-11.236,6.693-17.443,16.934-17.443a68.991,68.991,0,0,1,10.035.876V331.2h-5.653c-5.569,0-7.306,3.454-7.306,7v8.41h12.434l-1.988,12.96H743.58v32.044h27a11,11,0,0,0,11-11v-68A11,11,0,0,0,770.576,301.613Z" fill="#1877f2"/>
    <path id="Tracé_324" data-name="Tracé 324" d="M750.887,331.2h5.653V320.165a68.991,68.991,0,0,0-10.035-.876c-10.241,0-16.934,6.207-16.934,17.443v9.877H718.187v12.96H729.57v32.044h14.01V359.569h10.447l1.988-12.96H743.581V338.2C743.581,334.653,745.318,331.2,750.887,331.2Z" fill="#fff"/>
  </g>
</svg>
