<svg id="Composant_7_1" data-name="Composant 7 – 1" xmlns="http://www.w3.org/2000/svg" width="50" height="50" viewBox="0 0 50 50">
  <g id="Groupe_27" data-name="Groupe 27">
    <path id="Tracé_63" data-name="Tracé 63" d="M-1922.6,1942.186c-6.79,0-7.641.029-10.308.15a18.352,18.352,0,0,0-6.069,1.162,12.254,12.254,0,0,0-4.428,2.884,12.253,12.253,0,0,0-2.884,4.428,18.352,18.352,0,0,0-1.162,6.068c-.122,2.667-.15,3.518-.15,10.307s.029,7.641.15,10.307a18.352,18.352,0,0,0,1.162,6.068,12.253,12.253,0,0,0,2.884,4.428,12.254,12.254,0,0,0,4.428,2.884,18.349,18.349,0,0,0,6.069,1.162c2.667.122,3.518.151,10.308.151s7.641-.029,10.307-.151a18.347,18.347,0,0,0,6.068-1.162,12.257,12.257,0,0,0,4.428-2.884,12.255,12.255,0,0,0,2.883-4.428,18.349,18.349,0,0,0,1.162-6.068c.122-2.667.15-3.518.15-10.307s-.029-7.641-.15-10.307a18.349,18.349,0,0,0-1.162-6.068,12.255,12.255,0,0,0-2.883-4.428,12.257,12.257,0,0,0-4.428-2.884,18.35,18.35,0,0,0-6.068-1.162c-2.667-.122-3.518-.15-10.307-.15Zm0,4.5c6.675,0,7.466.026,10.1.146a13.836,13.836,0,0,1,4.642.861,7.747,7.747,0,0,1,2.874,1.87,7.748,7.748,0,0,1,1.87,2.875,13.83,13.83,0,0,1,.861,4.642c.12,2.636.146,3.427.146,10.1s-.026,7.466-.146,10.1a13.831,13.831,0,0,1-.861,4.642,7.746,7.746,0,0,1-1.87,2.874,7.743,7.743,0,0,1-2.874,1.87,13.832,13.832,0,0,1-4.642.861c-2.636.12-3.426.146-10.1.146s-7.466-.026-10.1-.146a13.832,13.832,0,0,1-4.642-.861,7.744,7.744,0,0,1-2.875-1.87,7.742,7.742,0,0,1-1.87-2.874,13.832,13.832,0,0,1-.861-4.642c-.12-2.636-.146-3.427-.146-10.1s.025-7.466.146-10.1a13.832,13.832,0,0,1,.861-4.642,7.742,7.742,0,0,1,1.87-2.874,7.746,7.746,0,0,1,2.875-1.87,13.836,13.836,0,0,1,4.642-.861c2.636-.12,3.427-.146,10.1-.146" transform="translate(1947.601 -1942.186)" fill="#12100b"/>
    <path id="Tracé_64" data-name="Tracé 64" d="M-1812.207,2085.913a8.333,8.333,0,0,1-8.333-8.333,8.333,8.333,0,0,1,8.333-8.333,8.333,8.333,0,0,1,8.333,8.333,8.333,8.333,0,0,1-8.333,8.333Zm0-21.171a12.838,12.838,0,0,0-12.838,12.838,12.838,12.838,0,0,0,12.838,12.838,12.838,12.838,0,0,0,12.838-12.838,12.838,12.838,0,0,0-12.838-12.838Z" transform="translate(1837.207 -2052.58)" fill="#12100b"/>
    <path id="Tracé_65" data-name="Tracé 65" d="M-1585.435,2032.4a3,3,0,0,1-3,3,3,3,0,0,1-3-3,3,3,0,0,1,3-3,3,3,0,0,1,3,3Z" transform="translate(1626.78 -2020.745)" fill="#12100b"/>
  </g>
</svg>
