<svg xmlns="http://www.w3.org/2000/svg" xmlns:xlink="http://www.w3.org/1999/xlink" width="90" height="90" viewBox="0 0 90 90">
  <defs>
    <radialGradient id="radial-gradient" cx="-0.109" cy="1.35" r="2.085" gradientTransform="translate(0)" gradientUnits="objectBoundingBox">
      <stop offset="0" stop-color="#f9ed41"/>
      <stop offset="0.241" stop-color="#ff833d"/>
      <stop offset="0.401" stop-color="#ee5468"/>
      <stop offset="0.489" stop-color="#e7407b"/>
      <stop offset="1" stop-color="#0028ff"/>
    </radialGradient>
  </defs>
  <g id="Groupe_869" data-name="Groupe 869" transform="translate(232.031 -316.646)">
    <rect id="Rectangle_448" data-name="Rectangle 448" width="90" height="90" rx="14.309" transform="translate(-232.031 316.646)" fill="url(#radial-gradient)"/>
    <g id="Groupe_868" data-name="Groupe 868">
      <path id="Tracé_302" data-name="Tracé 302" d="M-177.191,387.027h-19.68a15.558,15.558,0,0,1-15.541-15.541v-19.68a15.559,15.559,0,0,1,15.541-15.541h19.68a15.559,15.559,0,0,1,15.542,15.541v19.68A15.559,15.559,0,0,1-177.191,387.027Zm-19.68-46.961a11.754,11.754,0,0,0-11.74,11.74v19.68a11.754,11.754,0,0,0,11.74,11.74h19.68a11.754,11.754,0,0,0,11.741-11.74v-19.68a11.754,11.754,0,0,0-11.741-11.74Z" fill="#fff"/>
      <path id="Tracé_303" data-name="Tracé 303" d="M-187.031,374.487a12.855,12.855,0,0,1-12.84-12.841,12.855,12.855,0,0,1,12.84-12.84,12.855,12.855,0,0,1,12.841,12.84A12.856,12.856,0,0,1-187.031,374.487Zm0-21.789a8.958,8.958,0,0,0-8.948,8.948,8.959,8.959,0,0,0,8.948,8.949,8.959,8.959,0,0,0,8.948-8.949A8.958,8.958,0,0,0-187.031,352.7Z" fill="#fff"/>
      <path id="Tracé_304" data-name="Tracé 304" d="M-169.45,347.409a3.343,3.343,0,0,1-3.343,3.343,3.343,3.343,0,0,1-3.343-3.343,3.344,3.344,0,0,1,3.343-3.344A3.344,3.344,0,0,1-169.45,347.409Z" fill="#fff"/>
    </g>
  </g>
</svg>
