<svg xmlns="http://www.w3.org/2000/svg" width="90" height="90" viewBox="0 0 90 90">
  <path id="Tracé_66" data-name="Tracé 66" d="M44.919,89.981c-12.716,0-25.435-.043-38.158.029A6.607,6.607,0,0,1,.069,84.485a7,7,0,0,1-.067-1V6.568A6.375,6.375,0,0,1,6.22.039c.084,0,.169,0,.253,0,4.07-.031,8.141,0,12.212,0q32.3,0,64.6-.023A6.541,6.541,0,0,1,89.705,4.6a7.667,7.667,0,0,1,.281,1.9q.022,38.5.011,77a6.368,6.368,0,0,1-6.255,6.479h-.17c-4.8.032-9.6,0-14.4.009ZM48,39.537c0-1.8-.034-3.348.014-4.889.023-.76-.2-1.017-.994-1.01-3.677.04-7.354.047-11.032,0-.884-.013-1.069.288-1.067,1.107q.032,20.511,0,41.02c0,.844.232,1.121,1.089,1.112q5.726-.058,11.453,0c.862.009,1.08-.268,1.08-1.111q-.049-10.317,0-20.637a25.109,25.109,0,0,1,.347-4.263,6.7,6.7,0,0,1,4.962-6.041,11.588,11.588,0,0,1,2.911-.27,5.518,5.518,0,0,1,5.94,4.728,24.912,24.912,0,0,1,.54,5.242c.059,7.076.036,14.15.009,21.226,0,.828.225,1.132,1.093,1.125q5.726-.059,11.453,0c.823,0,1.035-.268,1.033-1.066q-.038-11.414,0-22.826a39.886,39.886,0,0,0-.871-9.266A13.444,13.444,0,0,0,70.3,34.9a14.951,14.951,0,0,0-6.566-2.16,17.743,17.743,0,0,0-8.449.72A14.511,14.511,0,0,0,48,39.537ZM13.194,55.287c0,6.84.014,13.7-.018,20.545,0,.828.266,1.048,1.056,1.042q5.76-.049,11.532,0c.74,0,1.028-.2,1.026-1q-.034-20.63,0-41.26c0-.815-.3-.976-1.031-.97-3.78.029-7.576.013-11.365.015-1.2,0-1.2,0-1.2,1.17V55.289Zm6.746-27.4a7.814,7.814,0,1,0-7.763-7.864c0,.018,0,.037,0,.055a7.771,7.771,0,0,0,7.731,7.81h.029Z" transform="translate(0 -0.012)" fill="#2867b2" opacity="0.9"/>
</svg>
