<svg id="Composant_8_1" data-name="Composant 8 – 1" xmlns="http://www.w3.org/2000/svg" width="50" height="50" viewBox="0 0 50 50">
  <path id="Tracé_66" data-name="Tracé 66" d="M88.3,1800.06c-7.065,0-14.131-.024-21.2.016a3.671,3.671,0,0,1-3.718-3.069,3.9,3.9,0,0,1-.037-.558q0-21.364,0-42.729a3.542,3.542,0,0,1,3.595-3.628c2.261-.017,4.523,0,6.785,0q17.944,0,35.888-.013a3.634,3.634,0,0,1,3.569,2.545,4.259,4.259,0,0,1,.156,1.055q.012,21.388.006,42.775a3.538,3.538,0,0,1-3.57,3.6c-2.667.018-5.334,0-8,.005Zm1.711-28.024c0-1-.019-1.86.008-2.716.013-.422-.112-.565-.552-.561-2.043.022-4.086.026-6.129,0-.491-.007-.594.16-.593.615q.018,11.395,0,22.789c0,.469.129.623.605.618q3.181-.032,6.363,0c.479.005.6-.149.6-.617q-.027-5.732,0-11.465a13.95,13.95,0,0,1,.193-2.368,3.722,3.722,0,0,1,2.757-3.356,6.436,6.436,0,0,1,1.617-.15,3.066,3.066,0,0,1,3.3,2.627,13.843,13.843,0,0,1,.3,2.912c.033,3.931.02,7.861.005,11.792,0,.46.125.629.607.625q3.181-.033,6.363,0c.457,0,.575-.149.574-.592q-.021-6.341,0-12.681a22.16,22.16,0,0,0-.484-5.148,7.469,7.469,0,0,0-3.143-4.9,8.306,8.306,0,0,0-3.648-1.2,9.857,9.857,0,0,0-4.694.4A8.062,8.062,0,0,0,90.01,1772.036Zm-19.337,8.75c0,3.8.008,7.609-.01,11.414,0,.46.148.582.587.579q3.2-.027,6.407,0c.411,0,.571-.109.57-.555q-.019-11.461,0-22.922c0-.453-.165-.542-.573-.539-2.1.016-4.209.007-6.314.008-.668,0-.668,0-.669.65Q70.672,1775.1,70.672,1780.787Zm3.748-15.223a4.341,4.341,0,1,0-4.313-4.338A4.317,4.317,0,0,0,74.42,1765.564Z" transform="translate(-63.346 -1750.076)"/>
</svg>
