<svg xmlns="http://www.w3.org/2000/svg" width="275.089" height="343.047" viewBox="0 0 275.089 343.047">
  <g id="Groupe_875" data-name="Groupe 875" transform="translate(0 -0.033)">
    <path id="Tracé_312" data-name="Tracé 312" d="M86.153,31.366c2.632-6.91,6.252-13.271,11.626-18.426A45.538,45.538,0,0,1,169.4,23.578C180.37,43.54,192,63.064,203.293,82.806c18.865,32.795,37.95,65.59,56.6,98.494,15.684,27.53-1.316,62.3-32.466,67.015-19.085,2.852-36.963-5.923-46.834-23.033q-24.843-43.269-49.8-86.429a9.94,9.94,0,0,0-1.206-1.755c-1.755-1.426-2.523-3.51-3.619-5.374-7.349-12.942-14.917-25.775-22.265-38.608-4.716-8.336-9.652-16.562-14.368-24.9A45.419,45.419,0,0,1,83.3,44.089c.329-4.387.877-8.775,2.852-12.723" transform="translate(8.063 0)" fill="#3c8bd9"/>
    <path id="Tracé_313" data-name="Tracé 313" d="M93.113,28.6a63.087,63.087,0,0,0-2.084,12.065A47.381,47.381,0,0,0,97.61,66.44q18.1,31.095,36.085,62.409c1.1,1.865,1.974,3.729,3.071,5.484-6.581,11.407-13.162,22.7-19.852,34.111-9.213,15.9-18.426,31.917-27.749,47.821-.439,0-.548-.219-.658-.548a6.8,6.8,0,0,1,.439-2.523c4.5-16.452.768-31.04-10.529-43.544A41.8,41.8,0,0,0,52.64,156.379c-13.162-1.865-24.788,1.536-35.208,9.762-1.865,1.426-3.071,3.51-5.265,4.607a.731.731,0,0,1-.768-.548c5.265-9.1,10.42-18.207,15.684-27.311q32.575-56.6,65.26-113.082c.219-.439.548-.768.768-1.206" transform="translate(1.104 2.766)" fill="#fabc04"/>
    <path id="Tracé_314" data-name="Tracé 314" d="M12.807,159.347c2.084-1.865,4.058-3.839,6.252-5.594,26.653-21.059,66.686-5.813,72.5,27.53A48.21,48.21,0,0,1,89.8,204.645a11.474,11.474,0,0,1-.439,1.865c-.987,1.755-1.865,3.619-2.961,5.374-9.762,16.123-24.13,24.13-43,22.923C21.8,233.272,4.8,217.039,1.839,195.542a43.885,43.885,0,0,1,6.032-29.175c1.1-1.974,2.413-3.729,3.619-5.7.548-.439.329-1.316,1.316-1.316" transform="translate(0.136 13.947)" fill="#34a852"/>
    <path id="Tracé_315" data-name="Tracé 315" d="M11.908,158.039c-.439.439-.439,1.207-1.206,1.316-.11-.768.329-1.206.768-1.755l.439.439" transform="translate(1.034 15.255)" fill="#fabc04"/>
    <path id="Tracé_316" data-name="Tracé 316" d="M81.616,201.165c-.439-.768,0-1.316.439-1.865l.439.439-.877,1.426" transform="translate(7.884 19.292)" fill="#e1c025"/>
    <path id="Tracé_317" data-name="Tracé 317" d="M22.7,260.4C10.31,260.4,0,270.381,0,282.665s10.31,22.156,22.7,22.156c6.691,0,11.626-2.194,15.575-6.252,4.058-4.058,5.265-9.652,5.265-14.149a20.036,20.036,0,0,0-.329-3.839H22.7v6.033H37.292c-.439,3.4-1.536,5.923-3.29,7.678a15.11,15.11,0,0,1-11.3,4.5,16.124,16.124,0,0,1,0-32.246,15.068,15.068,0,0,1,10.968,4.387l4.278-4.278A21.054,21.054,0,0,0,22.7,260.4Zm37.182,15.9a14.48,14.48,0,1,0,14.259,14.478A14.143,14.143,0,0,0,59.886,276.3m0,23.252c-4.278,0-8.007-3.62-8.007-8.774s3.729-8.775,8.007-8.775,8.007,3.51,8.007,8.775c0,5.155-3.729,8.774-8.007,8.774M90.816,276.3a14.48,14.48,0,1,0,14.259,14.478A14.078,14.078,0,0,0,90.816,276.3m0,23.252c-4.278,0-8.007-3.62-8.007-8.774s3.729-8.775,8.007-8.775,8.007,3.51,8.007,8.775c0,5.155-3.619,8.774-8.007,8.774m30.82-23.252c-7.129,0-13.6,6.252-13.6,14.368,0,8.007,6.471,14.259,13.6,14.259a9.585,9.585,0,0,0,7.458-3.29h.219v2.084c0,5.484-2.852,8.445-7.568,8.445a7.826,7.826,0,0,1-7.129-5.045l-5.484,2.3a13.451,13.451,0,0,0,12.613,8.445c7.349,0,13.491-4.387,13.491-14.917V277.291h-5.923v2.3H129.1a9.585,9.585,0,0,0-7.458-3.29m.548,23.033c-4.278,0-7.9-3.619-7.9-8.665s3.619-8.775,7.9-8.775,7.568,3.729,7.568,8.775-3.29,8.665-7.568,8.665m17.659-37.182H146.1v42.337h-6.252ZM162.877,276.3c-7.458,0-13.71,5.813-13.71,14.478a14.168,14.168,0,0,0,14.368,14.478A14.34,14.34,0,0,0,175.6,298.9l-4.936-3.29a8.289,8.289,0,0,1-7.129,3.949,7.183,7.183,0,0,1-7.02-4.387l19.414-8.007-.658-1.645c-1.206-3.181-4.936-9.213-12.394-9.213m-7.458,14.039a7.941,7.941,0,0,1,7.568-8.445c2.523,0,4.716,1.206,5.374,3.071Z" transform="translate(0 25.207)" fill="#757575"/>
    <path id="Tracé_318" data-name="Tracé 318" d="M170.4,303.4l14.478-38.5h5.594l14.478,38.5h-5.484l-3.729-10.42H179.613l-3.729,10.42Zm10.858-15.026h12.833l-6.252-17.33h-.219Z" transform="translate(16.497 25.643)" fill="#757575"/>
    <path id="Tracé_319" data-name="Tracé 319" d="M206.819,300.217a14.518,14.518,0,0,1-3.619-9.981,14.912,14.912,0,0,1,3.619-9.981A11.49,11.49,0,0,1,215.7,276.2a11.634,11.634,0,0,1,5.265,1.206,9.133,9.133,0,0,1,3.729,3.29h.219l-.219-3.619V264.9h4.936v38.5h-4.716v-3.619H224.7a9.991,9.991,0,0,1-3.729,3.29,10.923,10.923,0,0,1-5.265,1.206,11.332,11.332,0,0,1-8.884-4.058m15.575-3.071a10.943,10.943,0,0,0,0-13.71,7.979,7.979,0,0,0-11.846,0,10.789,10.789,0,0,0,0,13.6,7.834,7.834,0,0,0,5.923,2.632,7.094,7.094,0,0,0,5.923-2.523" transform="translate(19.673 25.643)" fill="#757575"/>
    <path id="Tracé_320" data-name="Tracé 320" d="M249.765,300.865a12.973,12.973,0,0,1-14.588.329,11.744,11.744,0,0,1-4.278-5.484l4.387-1.865a8.134,8.134,0,0,0,2.852,3.729,6.892,6.892,0,0,0,4.058,1.316,7.536,7.536,0,0,0,3.949-.987,2.785,2.785,0,0,0,1.536-2.413c0-1.645-1.316-2.961-3.839-3.729l-4.5-1.1c-5.155-1.316-7.678-3.729-7.678-7.458a6.98,6.98,0,0,1,2.961-5.813,12.513,12.513,0,0,1,7.458-2.194,12.792,12.792,0,0,1,6.362,1.645,9.217,9.217,0,0,1,3.949,4.5l-4.387,1.865a6.2,6.2,0,0,0-2.413-2.632,7.41,7.41,0,0,0-3.839-.987,6.525,6.525,0,0,0-3.51.987,2.88,2.88,0,0,0-1.536,2.413c0,1.536,1.426,2.632,4.278,3.181l3.949.987c5.265,1.316,7.787,3.949,7.787,7.9a6.842,6.842,0,0,1-2.961,5.813" transform="translate(22.354 26.64)" fill="#757575"/>
  </g>
</svg>
