<svg id="Groupe_876" data-name="Groupe 876" xmlns="http://www.w3.org/2000/svg" width="329.091" height="329.091" viewBox="0 0 329.091 329.091">
  <path id="Tracé_300" data-name="Tracé 300" d="M329.091,164.546A164.546,164.546,0,1,0,138.835,327.092V212.11H97.056V164.546h41.779V128.294c0-41.239,24.566-64.019,62.151-64.019a253.034,253.034,0,0,1,36.833,3.214v40.494H217.071c-20.44,0-26.815,12.684-26.815,25.7v30.866h45.636l-7.3,47.564h-38.34V327.092A164.585,164.585,0,0,0,329.091,164.546Z" fill="#1877f2"/>
  <path id="Tracé_301" data-name="Tracé 301" d="M433.54,347.834l7.3-47.564H395.2V269.4c0-13.013,6.374-25.7,26.815-25.7h20.749V203.214A253.03,253.03,0,0,0,405.93,200c-37.585,0-62.151,22.779-62.151,64.018V300.27H302v47.564h41.779V462.816a166.28,166.28,0,0,0,51.421,0V347.834Z" transform="translate(-204.944 -135.724)" fill="#fff"/>
</svg>
