<svg xmlns="http://www.w3.org/2000/svg" width="168" height="146.378" viewBox="0 0 168 146.378">
  <g id="Groupe_19" data-name="Groupe 19" transform="translate(-393 -213)">
    <g id="Groupe_18" data-name="Groupe 18" transform="translate(393 213)">
      <g id="Groupe_16" data-name="Groupe 16" transform="translate(0 0)">
        <g id="Groupe_14" data-name="Groupe 14" transform="translate(0 0.226)">
          <rect id="Rectangle_51" data-name="Rectangle 51" width="25.317" height="25.317" transform="translate(4.309 76.584)" fill="#9600ff"/>
          <path id="Tracé_11" data-name="Tracé 11" d="M294.408,514.675v41.987a40.248,40.248,0,0,0,19.706-16.186c4.179-6.528,5.818-10.732,6.29-25.8Z" transform="translate(-239.735 -454.789)" fill="#f0f"/>
          <path id="Tracé_12" data-name="Tracé 12" d="M268.434,419.121c-6.1-10.347-16.316-15.918-28.787-15.918H206.616v94.451h32.1c14.061,0,23.878-6.9,29.45-15.654,4.245-6.632,5.306-10.347,5.306-31.572C273.475,430.662,273.077,427.081,268.434,419.121Z" transform="translate(-197.278 -400.88)" fill="blue"/>
          <path id="Tracé_13" data-name="Tracé 13" d="M247.241,400.994a40.094,40.094,0,0,0-13.668-2.289h-36.7v23.257h50.364Z" transform="translate(-192.568 -398.705)" fill="#00e0ff"/>
          <rect id="Rectangle_52" data-name="Rectangle 52" width="37.706" height="9.426" transform="translate(0 30.26)" fill="#0066e8"/>
          <rect id="Rectangle_53" data-name="Rectangle 53" width="20.738" height="20.738" transform="translate(44.439 30.26)" fill="#4b00ff"/>
          <rect id="Rectangle_54" data-name="Rectangle 54" width="19.257" height="19.257" transform="translate(19.257 67.696)" fill="#700ce8"/>
        </g>
        <g id="Groupe_15" data-name="Groupe 15" transform="translate(80.669)">
          <path id="Tracé_14" data-name="Tracé 14" d="M390.557,516.746v21.248H404.6V522.638h14.287v-5.892Z" transform="translate(-366.903 -455.565)" fill="#9600ff"/>
          <rect id="Rectangle_55" data-name="Rectangle 55" width="35.757" height="9.765" transform="translate(0 2.548)" fill="#00e0ff"/>
          <path id="Tracé_15" data-name="Tracé 15" d="M416.413,455.734c11.409-3.98,18.307-13.929,18.307-26.133a26.6,26.6,0,0,0-9.418-20.164c-5.041-4.377-11.275-6.234-19.235-6.234H369.188v94.451h19.4V461.979h9.965l19.973,35.675H438.3Z" transform="translate(-356.568 -400.655)" fill="blue"/>
          <path id="Tracé_16" data-name="Tracé 16" d="M475.124,431.177a33.893,33.893,0,0,0,.278-4.315,28.965,28.965,0,0,0-10.256-21.956c-4.65-4.039-10.238-6.1-17.106-6.638v32.909Z" transform="translate(-394.701 -398.268)" fill="#0066e8"/>
          <rect id="Rectangle_56" data-name="Rectangle 56" width="25.787" height="23.311" transform="translate(9.558 21.025)" fill="#9600ff"/>
          <path id="Tracé_17" data-name="Tracé 17" d="M457.592,449.859a23.418,23.418,0,0,0,.192-2.986,20.044,20.044,0,0,0-7.1-15.193,19.613,19.613,0,0,0-11.837-4.593v22.772Z" transform="translate(-390.258 -412.205)" fill="#4b00ff"/>
          <path id="Tracé_18" data-name="Tracé 18" d="M464.73,497.414a35.426,35.426,0,0,0,15.664-12.978H464.73Z" transform="translate(-402.773 -439.94)" fill="#700ce8"/>
          <path id="Tracé_19" data-name="Tracé 19" d="M486.842,562.026H477v17.615H496.04Z" transform="translate(-408.709 -477.463)" fill="#f0f"/>
          <rect id="Rectangle_57" data-name="Rectangle 57" width="17.71" height="17.71" transform="translate(7.495 84.388)" fill="#9600ff"/>
        </g>
      </g>
      <g id="Groupe_17" data-name="Groupe 17" transform="translate(10.93 112.352)">
        <path id="Tracé_20" data-name="Tracé 20" d="M209.7,615.841h4.417a4.278,4.278,0,0,1,3.85,2.129c.621,1.064.674,1.543.674,4.187,0,2.838-.142,3.335-.71,4.222a4.5,4.5,0,0,1-3.938,2.093H209.7Zm1.916,10.821H213.9a2.621,2.621,0,0,0,2.342-1.1c.426-.639.479-.994.479-3.336,0-2.271-.053-2.82-.568-3.512a2.442,2.442,0,0,0-2.253-1.064h-2.288Z" transform="translate(-209.699 -615.841)" fill="#00e0ff"/>
        <path id="Tracé_21" data-name="Tracé 21" d="M254.693,622.784H256.5v.958h.036a2.88,2.88,0,0,1,2.341-1.064,2.989,2.989,0,0,1,1.88.692l-1.312,1.561a1.779,1.779,0,0,0-1.189-.444,1.709,1.709,0,0,0-1.756,1.881v5.411h-1.809Z" transform="translate(-231.459 -619.147)" fill="#0066e8"/>
        <path id="Tracé_22" data-name="Tracé 22" d="M291.216,623.831a3.813,3.813,0,0,1,5.463,0c.692.763.976,1.508.976,3.442,0,1.952-.284,2.7-.976,3.459a3.812,3.812,0,0,1-5.463,0c-.692-.763-.976-1.508-.976-3.459C290.24,625.338,290.524,624.594,291.216,623.831Zm4.186,1.313a1.94,1.94,0,0,0-2.909,0c-.337.479-.444.834-.444,2.129,0,1.313.106,1.667.444,2.147a1.94,1.94,0,0,0,2.909,0c.337-.479.444-.834.444-2.129C295.846,625.977,295.74,625.622,295.4,625.143Z" transform="translate(-248.649 -619.147)" fill="#0000bc"/>
        <path id="Tracé_23" data-name="Tracé 23" d="M331.937,622.784h1.809v.94a3.174,3.174,0,0,1,2.324-1.046,2.933,2.933,0,0,1,2.413,1.171c.5.638.638,1.224.638,3.441,0,2.2-.142,2.785-.638,3.424a2.934,2.934,0,0,1-2.413,1.171,3.311,3.311,0,0,1-2.324-1.065v4.595h-1.809Zm5.375,4.505c0-1.4-.089-2.8-1.791-2.8-1.685,0-1.774,1.49-1.774,2.8,0,1.3.089,2.785,1.774,2.785C337.223,630.075,337.312,628.674,337.312,627.29Z" transform="translate(-268.815 -619.147)" fill="blue"/>
        <path id="Tracé_24" data-name="Tracé 24" d="M372.764,629.029a3.769,3.769,0,0,0,2.838,1.153c1.029,0,1.774-.391,1.774-1.153,0-.639-.479-.833-1.1-.887l-1.6-.141a2.531,2.531,0,0,1-2.59-2.555c0-1.827,1.455-2.767,3.353-2.767a5.142,5.142,0,0,1,3.53,1.224l-1.117,1.313a4.006,4.006,0,0,0-2.413-.833c-1.153,0-1.544.461-1.544,1.082,0,.39.284.781,1.189.852l1.49.106a2.5,2.5,0,0,1,2.607,2.7c0,1.757-1.632,2.768-3.725,2.768a5.66,5.66,0,0,1-3.956-1.614Z" transform="translate(-287.95 -619.147)" fill="#4b00ff"/>
        <path id="Tracé_25" data-name="Tracé 25" d="M413.578,615.841h1.809v4.595h.036a2.88,2.88,0,0,1,2.342-1.064,3.017,3.017,0,0,1,3,3.122v5.978h-1.809v-5.358a1.789,1.789,0,1,0-3.566,0v5.358h-1.809Z" transform="translate(-308.297 -615.841)" fill="#700ce8"/>
        <path id="Tracé_26" data-name="Tracé 26" d="M455.79,615.841H457.6v1.809H455.79Zm0,3.637H457.6v8.994H455.79Z" transform="translate(-328.711 -615.841)" fill="#9600ff"/>
        <path id="Tracé_27" data-name="Tracé 27" d="M487.592,622.784H489.4v.94a3.175,3.175,0,0,1,2.324-1.046,2.933,2.933,0,0,1,2.413,1.171c.5.638.638,1.224.638,3.441,0,2.2-.142,2.785-.638,3.424a2.934,2.934,0,0,1-2.413,1.171,3.311,3.311,0,0,1-2.324-1.065v4.595h-1.809Zm5.375,4.505c0-1.4-.088-2.8-1.791-2.8-1.686,0-1.774,1.49-1.774,2.8,0,1.3.089,2.785,1.774,2.785C492.879,630.075,492.967,628.674,492.967,627.29Z" transform="translate(-344.091 -619.147)" fill="#f0f"/>
        <path id="Tracé_28" data-name="Tracé 28" d="M209.7,657.066h4.932a3.718,3.718,0,0,1,2.572.834,3.638,3.638,0,0,1-1.189,6.191l2.927,5.605H216.67l-2.607-5.393h-2.448V669.7H209.7Zm1.916,5.535h2.891a1.957,1.957,0,0,0,2.147-2,1.707,1.707,0,0,0-.639-1.437,2.132,2.132,0,0,0-1.4-.39h-3Z" transform="translate(-209.699 -635.778)" fill="#00e0ff"/>
        <path id="Tracé_29" data-name="Tracé 29" d="M254.24,669.189a2.014,2.014,0,0,0,2.147,2.217,2.827,2.827,0,0,0,1.97-.869l1.313,1.117a4.142,4.142,0,0,1-3.247,1.455c-1.845,0-3.991-.887-3.991-4.577,0-3.495,1.969-4.63,3.707-4.63a3.65,3.65,0,0,1,3.708,3.8v1.49Zm3.8-1.49c-.053-1.366-.834-2.093-1.9-2.093a1.892,1.892,0,0,0-1.9,2.093Z" transform="translate(-230.365 -639.084)" fill="#0066e8"/>
        <path id="Tracé_30" data-name="Tracé 30" d="M292.746,670.254a3.771,3.771,0,0,0,2.839,1.153c1.029,0,1.774-.39,1.774-1.153,0-.639-.479-.834-1.1-.887l-1.6-.141a2.53,2.53,0,0,1-2.59-2.555c0-1.827,1.455-2.767,3.352-2.767a5.144,5.144,0,0,1,3.531,1.224l-1.118,1.313a4.007,4.007,0,0,0-2.413-.833c-1.153,0-1.543.461-1.543,1.082,0,.39.284.781,1.188.852l1.49.106a2.5,2.5,0,0,1,2.608,2.7c0,1.756-1.632,2.767-3.725,2.767a5.66,5.66,0,0,1-3.956-1.614Z" transform="translate(-249.253 -639.084)" fill="#0000bc"/>
        <path id="Tracé_31" data-name="Tracé 31" d="M332.962,665.056a3.812,3.812,0,0,1,5.463,0c.692.763.976,1.508.976,3.441,0,1.952-.284,2.7-.976,3.459a3.812,3.812,0,0,1-5.463,0c-.692-.763-.976-1.508-.976-3.459C331.986,666.564,332.27,665.819,332.962,665.056Zm4.186,1.313a1.94,1.94,0,0,0-2.909,0c-.337.479-.444.834-.444,2.128,0,1.313.106,1.668.444,2.147a1.94,1.94,0,0,0,2.909,0c.337-.479.444-.834.444-2.129C337.592,667.2,337.485,666.847,337.148,666.369Z" transform="translate(-268.838 -639.084)" fill="blue"/>
        <path id="Tracé_32" data-name="Tracé 32" d="M372.967,664.109h1.809v5.357a1.789,1.789,0,1,0,3.566,0v-5.357h1.809V673.1h-1.809v-.958h-.036a2.87,2.87,0,0,1-2.324,1.064,3.02,3.02,0,0,1-3.015-3.122Z" transform="translate(-288.657 -639.184)" fill="#4b00ff"/>
        <path id="Tracé_33" data-name="Tracé 33" d="M414.359,664.009h1.809v.958h.036a2.881,2.881,0,0,1,2.342-1.064,2.989,2.989,0,0,1,1.88.692l-1.313,1.561a1.776,1.776,0,0,0-1.188-.444,1.709,1.709,0,0,0-1.757,1.881V673h-1.809Z" transform="translate(-308.675 -639.084)" fill="#700ce8"/>
        <path id="Tracé_34" data-name="Tracé 34" d="M456.017,671.549a4.206,4.206,0,0,1-3.229,1.561c-2.075,0-4.08-1.313-4.08-4.595,0-3.3,2-4.612,4.08-4.612a4.207,4.207,0,0,1,3.229,1.561l-1.331,1.188a2.363,2.363,0,0,0-1.827-.94c-1.472,0-2.342.834-2.342,2.8,0,1.951.87,2.785,2.342,2.785a2.362,2.362,0,0,0,1.827-.94Z" transform="translate(-325.286 -639.084)" fill="#9600ff"/>
        <path id="Tracé_35" data-name="Tracé 35" d="M489.2,669.189a2.014,2.014,0,0,0,2.147,2.217,2.826,2.826,0,0,0,1.969-.869l1.313,1.117a4.141,4.141,0,0,1-3.246,1.455c-1.845,0-3.992-.887-3.992-4.577,0-3.495,1.969-4.63,3.708-4.63a3.65,3.65,0,0,1,3.708,3.8v1.49Zm3.8-1.49c-.053-1.366-.834-2.093-1.9-2.093a1.892,1.892,0,0,0-1.9,2.093Z" transform="translate(-343.991 -639.084)" fill="#f0f"/>
      </g>
    </g>
  </g>
</svg>
