<svg xmlns="http://www.w3.org/2000/svg" width="141.986" height="89.001" viewBox="0 0 141.986 89.001">
  <g id="Groupe_2163" data-name="Groupe 2163" transform="translate(-2482.821 -3427.894)">
    <path id="Tracé_818" data-name="Tracé 818" d="M3011.663,3468.352v-3.769q-2.778-3.012-5.8-5.752c-.619-.561-1.247-1.11-1.879-1.653q-.8-.683-1.607-1.349a88.2,88.2,0,0,0-10.833-7.6v4.146q1.878,1.055,3.708,2.216A82.609,82.609,0,0,1,3011.663,3468.352Z" transform="translate(-398.419 -15.93)" fill="#fff"/>
    <path id="Tracé_819" data-name="Tracé 819" d="M2614.1,3765.028q-2.082-1.323-4.084-2.779v8.2h14.162A78.827,78.827,0,0,1,2614.1,3765.028Z" transform="translate(-99.619 -261.857)" fill="#fff"/>
    <path id="Tracé_820" data-name="Tracé 820" d="M2773.253,3455.855q-.643-.757-1.3-1.5a83.071,83.071,0,0,0-6.5-6.534l-.2-.184q-.858-.765-1.737-1.506-1.373-1.157-2.792-2.25-.971-.748-1.963-1.465-1.381-1-2.8-1.937-2.019-1.331-4.117-2.534-.647-.371-1.3-.731a74.773,74.773,0,0,0-65.065-3.507V3469.2a28.966,28.966,0,0,1,25.407-27.03,23.959,23.959,0,0,1,3.211-3.723l.391-.37.538.015a33.216,33.216,0,0,1,32.3,33.2c0,.319-.006.654-.019,1.054l-.016.539-.392.368a23.985,23.985,0,0,1-4.057,3.077,29.005,29.005,0,0,1-19.732,22.212h36.846c.458-.344.913-.69,1.364-1.044a84.685,84.685,0,0,0,22.209-26.58A86.436,86.436,0,0,0,2773.253,3455.855Z" transform="translate(-158.707)" fill="#fff"/>
    <path id="Tracé_821" data-name="Tracé 821" d="M2571.416,3659.678a28.958,28.958,0,0,1-28.933-27.742h-39.554q1.657,2.972,3.526,5.785,1.124,1.692,2.32,3.322.8,1.086,1.626,2.144,1.658,2.115,3.438,4.112.445.5.9.99.9.982,1.836,1.933,2.332,2.377,4.837,4.55,1.682,1.459,3.439,2.819c.223.172.444.346.668.516s.421.315.632.472q1.8,1.34,3.675,2.579.55.362,1.106.716a77.783,77.783,0,0,0,6.875,3.9c1.905.955,5.834,2.623,5.834,2.623q1.482.593,2.992,1.123a74.816,74.816,0,0,0,32.981,3.779l.164-.019v-14.82A29.037,29.037,0,0,1,2571.416,3659.678Z" transform="translate(-15.748 -159.8)" fill="#fff"/>
    <path id="Tracé_822" data-name="Tracé 822" d="M2735.017,3536.53a24.163,24.163,0,0,1-4.429-.409v3.291H2707.17v-23.417h4.168a24.306,24.306,0,0,1-.237-3.379,23.737,23.737,0,0,1,2.018-9.627,24,24,0,0,1,1.333-2.588,27.664,27.664,0,1,0,31.382,33.549A23.845,23.845,0,0,1,2735.017,3536.53Z" transform="translate(-163.218 -56.785)" fill="#fff"/>
    <path id="Tracé_823" data-name="Tracé 823" d="M2504.966,3453.869q-.935.782-1.848,1.593-1.756,1.552-3.437,3.2-.663.651-1.313,1.316-1.3,1.33-2.551,2.716t-2.446,2.827q-1.2,1.44-2.339,2.932-.571.746-1.128,1.5-1.671,2.276-3.213,4.664-2.054,3.182-3.869,6.549h42.639v-40.081A86.115,86.115,0,0,0,2504.966,3453.869Z" transform="translate(0 -10.331)" fill="#fff"/>
    <path id="Tracé_824" data-name="Tracé 824" d="M2899.685,3759.723h-36.334v17.051a101.667,101.667,0,0,0,27.184-9.678q.633-.332,1.262-.673.53-.288,1.057-.581.664-.371,1.322-.75.968-.558,1.924-1.136.877-.53,1.743-1.078.888-.561,1.765-1.14,1.49-.984,2.95-2.016Z" transform="translate(-298.02 -259.879)" fill="#fff"/>
    <rect id="Rectangle_1488" data-name="Rectangle 1488" width="20.816" height="20.816" transform="translate(2545.253 3460.511)" fill="#fff"/>
    <path id="Tracé_825" data-name="Tracé 825" d="M2820.411,3493.388q-.46-.6-.946-1.173-.729-.863-1.519-1.672-.262-.27-.532-.533-.538-.527-1.1-1.028t-1.148-.976q-.878-.712-1.807-1.361a31.756,31.756,0,0,0-17.385-5.73,22.783,22.783,0,0,0-2.375,2.624q-.519.672-.988,1.383l.67-.066-.67.066a22.5,22.5,0,0,0-3.725,12.434,22.881,22.881,0,0,0,.251,3.379h17.933v18.8a22.663,22.663,0,0,0,15.575-2.5q.742-.421,1.449-.9a22.71,22.71,0,0,0,2.894-2.308c0-.005,0-.012,0-.017.01-.331.018-.663.018-1A31.777,31.777,0,0,0,2820.411,3493.388Z" transform="translate(-239.701 -41.525)" fill="#fff"/>
  </g>
</svg>
