<svg xmlns="http://www.w3.org/2000/svg" width="212.743" height="210.223" viewBox="0 0 212.743 210.223">
  <g id="Groupe_890" data-name="Groupe 890" transform="translate(4200.946 -379.211)">
    <path id="Tracé_328" data-name="Tracé 328" d="M-4071.784,448.019V403.672l-14.028,14.027-16.843-16.841a65.308,65.308,0,0,0-48.643-21.647c-1.447,0-2.879.064-4.3.157v68.651Zm-14.028-3.368.01-.023v.026l-.009,0-.008,0v-.026Z" transform="translate(-12.019)" fill="#00e0ff"/>
    <rect id="Rectangle_465" data-name="Rectangle 465" width="48.036" height="20.516" transform="translate(-4059.41 497.239)" fill="#9600ff"/>
    <path id="Tracé_329" data-name="Tracé 329" d="M-3992.618,451.764a52.079,52.079,0,0,0-52.079-52.079,51.945,51.945,0,0,0-38.689,17.217l-13.4,13.395-13.4-13.395a51.943,51.943,0,0,0-38.688-17.217,52.079,52.079,0,0,0-52.079,52.079,51.877,51.877,0,0,0,13.242,34.686l-.089.033,91.01,100.905,91.01-100.905-.089-.033A51.875,51.875,0,0,0-3992.618,451.764Zm-104.157-.029-.007,0-.007,0v-.021l.007.018.008-.018Z" transform="translate(0 -5.427)" fill="blue" fill-rule="evenodd"/>
    <path id="Tracé_330" data-name="Tracé 330" d="M-3928.459,463.368a65.164,65.164,0,0,0,.511-8.026,64.581,64.581,0,0,0-45.679-61.746v69.772Z" transform="translate(-60.255 -3.813)" fill="#700ce8"/>
    <path id="Tracé_331" data-name="Tracé 331" d="M-4121.428,590.905l49.284,54.642,23.251-25.779V590.905Z" transform="translate(-21.078 -56.114)" fill="#f0f"/>
    <path id="Tracé_332" data-name="Tracé 332" d="M-4059.215,470.5l-.007-.018v.021Z" transform="translate(-37.567 -24.192)" fill="red"/>
    <path id="Tracé_333" data-name="Tracé 333" d="M-4059.205,470.479l-.007.018.006,0Z" transform="translate(-37.569 -24.192)" fill="red"/>
    <rect id="Rectangle_466" data-name="Rectangle 466" width="40.781" height="40.781" transform="translate(-4182.315 430.251)" fill="#0066e8"/>
    <rect id="Rectangle_467" data-name="Rectangle 467" width="28.146" height="28.146" transform="translate(-4097.314 476.098)" fill="#4b00ff"/>
    <rect id="Rectangle_468" data-name="Rectangle 468" width="28.146" height="42.782" transform="translate(-4087.744 446.826)" fill="#0000bc"/>
  </g>
</svg>
