<svg xmlns="http://www.w3.org/2000/svg" width="90" height="90" viewBox="0 0 90 90">
  <g id="Groupe_886" data-name="Groupe 886" transform="translate(-489.447 -368.213)">
    <path id="Tracé_326" data-name="Tracé 326" d="M568.447,368.213h-68a11,11,0,0,0-11,11v68a11,11,0,0,0,11,11h68a11,11,0,0,0,11-11v-68A11,11,0,0,0,568.447,368.213Z" fill="#e60023"/>
    <g id="Groupe_885" data-name="Groupe 885">
      <path id="Tracé_327" data-name="Tracé 327" d="M524.288,445.993a38.318,38.318,0,0,0,4.264-9c.417-1.6,2.138-8.156,2.138-8.156,1.119,2.134,4.387,3.94,7.864,3.94,10.348,0,17.8-9.517,17.8-21.341,0-11.335-9.25-19.816-21.152-19.816-14.806,0-22.67,9.939-22.67,20.763,0,5.032,2.679,11.3,6.964,13.291.65.3,1,.17,1.148-.458.113-.477.692-2.808.953-3.891a1.027,1.027,0,0,0-.238-.984,13.345,13.345,0,0,1-2.554-7.83c0-7.568,5.73-14.89,15.493-14.89,8.429,0,14.331,5.744,14.331,13.959,0,9.281-4.687,15.711-10.785,15.711a4.982,4.982,0,0,1-5.081-6.2c.967-4.079,2.842-8.48,2.842-11.424,0-2.635-1.414-4.833-4.342-4.833-3.443,0-6.208,3.562-6.208,8.333a12.389,12.389,0,0,0,1.026,5.094s-3.4,14.377-4.023,17.054c-.69,2.964-.419,7.138-.119,9.852" fill="#fff"/>
    </g>
  </g>
</svg>
