<svg id="Composant_60_2" data-name="Composant 60 – 2" xmlns="http://www.w3.org/2000/svg" xmlns:xlink="http://www.w3.org/1999/xlink" width="367" height="271" viewBox="0 0 367 271">
  <defs>
    <linearGradient id="linear-gradient" y1="0.517" x2="1" y2="0.515" gradientUnits="objectBoundingBox">
      <stop offset="0" stop-color="#00e2fe"/>
      <stop offset="0.515" stop-color="blue"/>
      <stop offset="1" stop-color="#f0f"/>
    </linearGradient>
    <linearGradient id="linear-gradient-3" y1="0.5" x2="1" y2="0.715" gradientUnits="objectBoundingBox">
      <stop offset="0" stop-color="#00e2fe"/>
      <stop offset="0.506" stop-color="blue"/>
      <stop offset="1" stop-color="#f0f"/>
    </linearGradient>
    <linearGradient id="linear-gradient-4" x1="0" x2="1" y2="0.5" xlink:href="#linear-gradient-3"/>
    <linearGradient id="linear-gradient-5" x1="1" y1="0.5" x2="0" y2="0.5" gradientUnits="objectBoundingBox">
      <stop offset="0" stop-color="#f0f"/>
      <stop offset="0.502" stop-color="#0002ff"/>
      <stop offset="1" stop-color="aqua"/>
    </linearGradient>
  </defs>
  <rect id="Rectangle_1511" data-name="Rectangle 1511" width="366" height="73" rx="36.5" transform="translate(1)" fill="url(#linear-gradient)"/>
  <text id="Options_de_paiement_" data-name="Options de paiement " transform="translate(52 47)" fill="#fff" font-size="30" font-family="D-DIN-Bold, D-DIN DIN" font-weight="700"><tspan x="0" y="0">Options de paiement </tspan></text>
  <g id="Groupe_2204" data-name="Groupe 2204" transform="translate(-839 -400)">
    <g id="Groupe_2192" data-name="Groupe 2192" transform="translate(527 -492)">
      <rect id="Rectangle_1500" data-name="Rectangle 1500" width="367" height="271" rx="40" transform="translate(312 892)" fill="url(#linear-gradient)"/>
      <rect id="Rectangle_1501" data-name="Rectangle 1501" width="361" height="239" rx="37" transform="translate(315 895)" fill="#fff"/>
      <path id="Tracé_829" data-name="Tracé 829" d="M3.6-7.8V0h30V-8.625H15.975l12.9-16.725A26.364,26.364,0,0,0,32.4-31.2a15.879,15.879,0,0,0,1.2-6.225V-38.7a13.59,13.59,0,0,0-1.837-6.975,13.384,13.384,0,0,0-5.25-5.025A16.168,16.168,0,0,0,18.6-52.575a17.279,17.279,0,0,0-8.1,1.8,12.822,12.822,0,0,0-5.287,4.95,14.024,14.024,0,0,0-1.838,7.2v1.8H12.9v-1.2A6.774,6.774,0,0,1,14.325-42.6a4.884,4.884,0,0,1,3.9-1.65,5.113,5.113,0,0,1,3.938,1.575A6.035,6.035,0,0,1,23.625-38.4v1.05a12.352,12.352,0,0,1-2.85,7.275Zm69.825-.45v-8.625h-4.2v-12.15H59.4v12.15H49.425L64.2-51.75H54.375L39.6-16.875V-8.25H59.4V0h9.825V-8.25ZM83.588-3.638Q87.375.825,95.25.825t11.663-4.5q3.788-4.5,3.787-13.35v-18.3q0-8.55-3.787-12.9T95.25-52.575q-7.575,0-11.512,4.387T79.8-35.325v18.3Q79.8-8.1,83.588-3.638Zm16.125-6.375Q98.55-7.725,95.25-7.725q-3.225,0-4.387-2.288T89.7-17.85V-33.9q0-5.55,1.125-7.8t4.425-2.25q3.3,0,4.462,2.25t1.162,7.8v16.05Q100.875-12.3,99.713-10.013Zm22.275,6.375Q125.775.825,133.65.825t11.662-4.5q3.788-4.5,3.788-13.35v-18.3q0-8.55-3.788-12.9t-11.662-4.35q-7.575,0-11.513,4.387T118.2-35.325v18.3Q118.2-8.1,121.988-3.638Zm16.125-6.375q-1.162,2.287-4.462,2.288-3.225,0-4.387-2.288T128.1-17.85V-33.9q0-5.55,1.125-7.8t4.425-2.25q3.3,0,4.462,2.25t1.163,7.8v16.05Q139.275-12.3,138.113-10.013Zm22.9,6.983q3.3,3.69,9.48,3.69a12.952,12.952,0,0,0,8.49-2.73q3.33-2.73,3.81-8.07h-6.54a5.7,5.7,0,0,1-1.83,3.33,5.641,5.641,0,0,1-3.69,1.11,4.928,4.928,0,0,1-4.32-1.95,9.279,9.279,0,0,1-1.38-5.43v-1.38h9.48l.84-4.86H165.03v-3h10.74l.84-4.86H165.03v-1.38q0-7.08,5.64-7.08,4.5,0,5.34,4.38h6.72a11.076,11.076,0,0,0-3.6-7.89A12.519,12.519,0,0,0,170.55-42q-6.18,0-9.51,3.6t-3.33,9.78v1.44h-3.24v4.86h3.24v3h-3.24v4.86h3.24v1.32Q157.71-6.72,161.01-3.03Zm39.48-14.25V-20.7H185.97v3.42h5.28V0h3.96V-17.28Zm14.88,0V-20.7H200.85v3.42h5.28V0h3.96V-17.28Zm.78,9.27q0,8.25,7.53,8.25a7.812,7.812,0,0,0,5.43-1.785,6.532,6.532,0,0,0,1.98-5.115v-.21h-3.87v.24a3.356,3.356,0,0,1-.885,2.46,3.439,3.439,0,0,1-2.565.9A3.293,3.293,0,0,1,221-4.41a6,6,0,0,1-.885-3.66v-4.47a6.645,6.645,0,0,1,.855-3.84,3.171,3.171,0,0,1,2.745-1.17,3.477,3.477,0,0,1,2.595.93,3.437,3.437,0,0,1,.915,2.52v.18h3.93v-.21a6.453,6.453,0,0,0-2.01-5.07,7.794,7.794,0,0,0-5.4-1.8q-7.59,0-7.59,8.25Zm21.12-6.57v2.91h2.07v-2.88l2.31,1.32.96-1.62-2.43-1.38,2.4-1.38-.9-1.62-2.34,1.35V-20.7h-2.07v2.79l-2.34-1.32L234-17.61l2.4,1.38L234-14.85l.93,1.62Z" transform="translate(342 983)" fill="url(#linear-gradient-3)"/>
      <text id="_2900_TTC" data-name="2900€TTC" transform="translate(342 1047)" font-size="45" font-family="D-DIN-Bold, D-DIN DIN" font-weight="700"><tspan x="0" y="0">2900</tspan><tspan y="0" font-size="30">€</tspan><tspan y="0" font-size="20">TTC</tspan></text>
      <g id="Composant_50_3" data-name="Composant 50 – 3" transform="translate(342 1064)">
        <rect id="Rectangle_1493" data-name="Rectangle 1493" width="185" height="45" rx="22.5" fill="url(#linear-gradient-4)"/>
        <rect id="Rectangle_50" data-name="Rectangle 50" width="181" height="41" rx="20.5" transform="translate(2 2)" fill="#fff"/>
        <text id="Payer_en_une_fois" data-name="Payer en une fois" transform="translate(21 30)" font-size="20" font-family="D-DIN-Bold, D-DIN DIN" font-weight="700"><tspan x="0" y="0">Payer en une fois</tspan></text>
      </g>
      <rect id="Rectangle_1506" data-name="Rectangle 1506" width="173" height="3" transform="matrix(0.978, -0.208, 0.208, 0.978, 325.271, 1046.782)" fill="url(#linear-gradient-5)"/>
    </g>
  </g>
</svg>
