<svg id="Composant_60_3" data-name="Composant 60 – 3" xmlns="http://www.w3.org/2000/svg" xmlns:xlink="http://www.w3.org/1999/xlink" width="367" height="271" viewBox="0 0 367 271">
  <defs>
    <linearGradient id="linear-gradient" y1="0.517" x2="1" y2="0.515" gradientUnits="objectBoundingBox">
      <stop offset="0" stop-color="#00e2fe"/>
      <stop offset="0.515" stop-color="blue"/>
      <stop offset="1" stop-color="#f0f"/>
    </linearGradient>
    <linearGradient id="linear-gradient-3" x1="1" y1="0.623" x2="0" y2="0.647" gradientUnits="objectBoundingBox">
      <stop offset="0" stop-color="#f0f"/>
      <stop offset="0.527" stop-color="blue"/>
      <stop offset="1" stop-color="#00e2fe"/>
    </linearGradient>
    <linearGradient id="linear-gradient-4" y1="0.5" x2="1" y2="0.5" gradientUnits="objectBoundingBox">
      <stop offset="0" stop-color="#00e2fe"/>
      <stop offset="0.506" stop-color="blue"/>
      <stop offset="1" stop-color="#f0f"/>
    </linearGradient>
    <linearGradient id="linear-gradient-5" x1="1" y1="0.5" x2="0" y2="0.5" gradientUnits="objectBoundingBox">
      <stop offset="0" stop-color="#f0f"/>
      <stop offset="0.502" stop-color="#0002ff"/>
      <stop offset="1" stop-color="aqua"/>
    </linearGradient>
  </defs>
  <rect id="Rectangle_1511" data-name="Rectangle 1511" width="366" height="73" rx="36.5" transform="translate(1)" fill="url(#linear-gradient)"/>
  <text id="Options_de_paiement_" data-name="Options de paiement " transform="translate(52 47)" fill="#fff" font-size="30" font-family="D-DIN-Bold, D-DIN DIN" font-weight="700"><tspan x="0" y="0">Options de paiement </tspan></text>
  <g id="Groupe_2204" data-name="Groupe 2204" transform="translate(-839 -400)">
    <g id="Groupe_2192" data-name="Groupe 2192" transform="translate(527 -492)">
      <rect id="Rectangle_1500" data-name="Rectangle 1500" width="367" height="271" rx="40" transform="translate(312 892)" fill="url(#linear-gradient)"/>
      <rect id="Rectangle_1501" data-name="Rectangle 1501" width="361" height="239" rx="37" transform="translate(315 895)" fill="#fff"/>
      <path id="Tracé_907" data-name="Tracé 907" d="M2.16-4.68V0h18V-5.175H9.585l7.74-10.035a15.819,15.819,0,0,0,2.115-3.51,9.527,9.527,0,0,0,.72-3.735v-.765a8.154,8.154,0,0,0-1.1-4.185,8.03,8.03,0,0,0-3.15-3.015,9.7,9.7,0,0,0-4.747-1.125,10.368,10.368,0,0,0-4.86,1.08A7.693,7.693,0,0,0,3.128-27.5a8.414,8.414,0,0,0-1.1,4.32v1.08H7.74v-.72A4.065,4.065,0,0,1,8.6-25.56a2.93,2.93,0,0,1,2.34-.99A3.068,3.068,0,0,1,13.3-25.6a3.621,3.621,0,0,1,.878,2.565v.63a7.411,7.411,0,0,1-1.71,4.365ZM26.753-1.935A9.776,9.776,0,0,0,33.8.5,9.737,9.737,0,0,0,40.748-1.98,8.991,8.991,0,0,0,43.38-8.865v-1.44A8.85,8.85,0,0,0,41.2-16.627a7.626,7.626,0,0,0-5.827-2.318,5.381,5.381,0,0,0-2.25.45L39.555-31.05h-6.21l-7.11,13.815a24.55,24.55,0,0,0-1.508,3.645,11.759,11.759,0,0,0-.517,3.51v1.4A8.894,8.894,0,0,0,26.753-1.935ZM36.495-5.58a3.481,3.481,0,0,1-2.7,1.08,3.41,3.41,0,0,1-2.677-1.08,4.291,4.291,0,0,1-.967-2.97v-1.485a4.206,4.206,0,0,1,.967-2.947,3.447,3.447,0,0,1,2.677-1.058,3.519,3.519,0,0,1,2.7,1.058,4.213,4.213,0,0,1,.99,2.993v1.395A4.3,4.3,0,0,1,36.495-5.58Zm13.433,3.4Q52.2.5,56.925.5t7-2.7q2.273-2.7,2.273-8.01V-21.2q0-5.13-2.273-7.74t-7-2.61q-4.545,0-6.908,2.632T47.655-21.2v10.98Q47.655-4.86,49.928-2.183ZM59.6-6.008a2.716,2.716,0,0,1-2.678,1.373,2.674,2.674,0,0,1-2.632-1.373,11.265,11.265,0,0,1-.7-4.7v-9.63a11.43,11.43,0,0,1,.675-4.68,2.678,2.678,0,0,1,2.655-1.35A2.728,2.728,0,0,1,59.6-25.02a11.1,11.1,0,0,1,.7,4.68v9.63A11.266,11.266,0,0,1,59.6-6.008ZM72.968-2.183Q75.24.5,79.965.5t7-2.7q2.273-2.7,2.272-8.01V-21.2q0-5.13-2.272-7.74t-7-2.61q-4.545,0-6.908,2.632T70.7-21.2v10.98Q70.7-4.86,72.968-2.183Zm9.675-3.825a2.716,2.716,0,0,1-2.677,1.373,2.674,2.674,0,0,1-2.633-1.373,11.265,11.265,0,0,1-.7-4.7v-9.63a11.43,11.43,0,0,1,.675-4.68,2.678,2.678,0,0,1,2.655-1.35,2.728,2.728,0,0,1,2.677,1.35,11.1,11.1,0,0,1,.7,4.68v9.63A11.266,11.266,0,0,1,82.643-6.008ZM95.565-1.515A6.028,6.028,0,0,0,100.305.33a6.476,6.476,0,0,0,4.245-1.365,5.6,5.6,0,0,0,1.9-4.035h-3.27A2.85,2.85,0,0,1,102.27-3.4a2.821,2.821,0,0,1-1.845.555,2.464,2.464,0,0,1-2.16-.975,4.639,4.639,0,0,1-.69-2.715v-.69h4.74l.42-2.43h-5.16v-1.5h5.37l.42-2.43h-5.79v-.69q0-3.54,2.82-3.54a2.446,2.446,0,0,1,2.67,2.19h3.36a5.538,5.538,0,0,0-1.8-3.945A6.259,6.259,0,0,0,100.335-21a6.156,6.156,0,0,0-4.755,1.8,6.92,6.92,0,0,0-1.665,4.89v.72H92.3v2.43h1.62v1.5H92.3v2.43h1.62v.66A7.31,7.31,0,0,0,95.565-1.515ZM118.955-13.8h-2.62v5.68h-4.58V-13.8h-2.62V0h2.62V-5.84h4.58V0h2.62Zm10.98,2.28V-13.8h-9.68v2.28h3.52V0h2.64V-11.52Z" transform="translate(342 1047)"/>
      <path id="Tracé_906" data-name="Tracé 906" d="M2.253,13.23v7.8h30.4V12.4H14.795L27.869-4.32a26.3,26.3,0,0,0,3.573-5.85,15.7,15.7,0,0,0,1.216-6.225V-17.67A13.451,13.451,0,0,0,30.8-24.645a13.486,13.486,0,0,0-5.321-5.025,16.565,16.565,0,0,0-8.019-1.875,17.708,17.708,0,0,0-8.209,1.8A12.926,12.926,0,0,0,3.887-24.8a13.878,13.878,0,0,0-1.862,7.2v1.8h9.653V-17a6.714,6.714,0,0,1,1.444-4.575,4.981,4.981,0,0,1,3.953-1.65,5.218,5.218,0,0,1,3.991,1.575,5.986,5.986,0,0,1,1.482,4.275v1.05A12.257,12.257,0,0,1,19.66-9.045Zm41.464,4.162q3.839,4.463,11.82,4.462t11.82-4.5Q71.2,12.855,71.2,4V-14.3q0-8.55-3.839-12.9t-11.82-4.35q-7.677,0-11.668,4.388T39.879-14.3V4Q39.879,12.93,43.717,17.392ZM60.06,11.017Q58.882,13.3,55.537,13.3q-3.269,0-4.447-2.288T49.912,3.18V-12.87q0-5.55,1.14-7.8t4.485-2.25q3.344,0,4.523,2.25t1.178,7.8V3.18Q61.238,8.73,60.06,11.017Zm22.575,6.375q3.839,4.463,11.82,4.462t11.82-4.5q3.839-4.5,3.839-13.35V-14.3q0-8.55-3.839-12.9t-11.82-4.35q-7.677,0-11.668,4.388T78.8-14.3V4Q78.8,12.93,82.635,17.392Zm16.343-6.375Q97.8,13.3,94.455,13.3q-3.269,0-4.447-2.288T88.83,3.18V-12.87q0-5.55,1.14-7.8t4.485-2.25q3.344,0,4.523,2.25t1.178,7.8V3.18Q100.156,8.73,98.978,11.017Zm22.575,6.375q3.839,4.463,11.82,4.462t11.82-4.5q3.839-4.5,3.839-13.35V-14.3q0-8.55-3.839-12.9t-11.82-4.35q-7.677,0-11.668,4.388T117.715-14.3V4Q117.715,12.93,121.553,17.392ZM137.9,11.017q-1.178,2.287-4.523,2.288-3.269,0-4.447-2.288T127.748,3.18V-12.87q0-5.55,1.14-7.8t4.485-2.25q3.344,0,4.523,2.25t1.178,7.8V3.18Q139.074,8.73,137.9,11.017ZM159.724,18.5q2.787,3.075,8.007,3.075A11.037,11.037,0,0,0,174.9,19.3a9.293,9.293,0,0,0,3.218-6.725H172.6a4.734,4.734,0,0,1-1.546,2.775,4.809,4.809,0,0,1-3.116.925,4.184,4.184,0,0,1-3.649-1.625,7.654,7.654,0,0,1-1.166-4.525V8.98h8.007l.709-4.05h-8.716V2.43h9.071l.709-4.05h-9.78V-2.77q0-5.9,4.763-5.9a4.117,4.117,0,0,1,4.51,3.65h5.676a9.179,9.179,0,0,0-3.04-6.575,10.664,10.664,0,0,0-7.246-2.375q-5.22,0-8.032,3a11.439,11.439,0,0,0-2.812,8.15v1.2H154.2V2.43h2.736v2.5H154.2V8.98h2.736v1.1Q156.937,15.43,159.724,18.5ZM199.233-1.97h-4.426V7.5h-7.736V-1.97h-4.426v23h4.426V11.3h7.736V21.03h4.426Zm18.547,3.8v-3.8H201.429v3.8h5.946v19.2h4.459V1.83Z" transform="translate(342.22 961.92)" fill="url(#linear-gradient-3)"/>
      <g id="Composant_50_3" data-name="Composant 50 – 3" transform="translate(342 1064)">
        <rect id="Rectangle_1493" data-name="Rectangle 1493" width="185" height="45" rx="22.5" fill="url(#linear-gradient-4)"/>
        <rect id="Rectangle_50" data-name="Rectangle 50" width="181" height="41" rx="20.5" transform="translate(2 2)" fill="#fff"/>
        <path id="Tracé_908" data-name="Tracé 908" d="M1-5.34Q1,.16,6.02.16A5.208,5.208,0,0,0,9.64-1.03a4.355,4.355,0,0,0,1.32-3.41v-.14H8.38v.16a2.238,2.238,0,0,1-.59,1.64,2.293,2.293,0,0,1-1.71.6,2.2,2.2,0,0,1-1.85-.76,4,4,0,0,1-.59-2.44V-8.36a4.43,4.43,0,0,1,.57-2.56,2.114,2.114,0,0,1,1.83-.78,2.318,2.318,0,0,1,1.73.62A2.291,2.291,0,0,1,8.38-9.4v.12H11v-.14A4.3,4.3,0,0,0,9.66-12.8,5.2,5.2,0,0,0,6.06-14Q1-14,1-8.5ZM13.73-.94A4.336,4.336,0,0,0,16.82.12,4.271,4.271,0,0,0,19.88-.94,4.352,4.352,0,0,0,21-4.24V-6.18a4.322,4.322,0,0,0-1.12-3.28,4.271,4.271,0,0,0-3.06-1.06,4.336,4.336,0,0,0-3.09,1.06A4.3,4.3,0,0,0,12.6-6.18v1.94A4.329,4.329,0,0,0,13.73-.94Zm4.81-3.32q0,2.18-1.72,2.18-1.76,0-1.76-2.18V-6.14q0-2.18,1.76-2.18,1.72,0,1.72,2.18Zm4.44-6.14V0h2.48V-6.48a1.863,1.863,0,0,1,.47-1.36,1.6,1.6,0,0,1,1.19-.48,1.523,1.523,0,0,1,1.18.48,1.94,1.94,0,0,1,.44,1.36V0h2.48V-6.78a4,4,0,0,0-.88-2.74,3.129,3.129,0,0,0-2.48-1,3.486,3.486,0,0,0-1.35.27,3,3,0,0,0-1.11.79v-.94ZM36.6-8.66h2V-10.4h-2v-2.9l-2.46.86v2.04H32.7v1.74h1.44V-3a2.919,2.919,0,0,0,.83,2.19A3.083,3.083,0,0,0,37.22,0H38.4V-2.1h-.78q-1.02,0-1.02-1.06Zm10.32-.93a4.47,4.47,0,0,0-3.04-.93,4.292,4.292,0,0,0-2.8.85,2.825,2.825,0,0,0-1.04,2.31v.08h2.3v-.06a1.162,1.162,0,0,1,.41-.93,1.653,1.653,0,0,1,1.11-.35,1.467,1.467,0,0,1,1.66,1.66v.82h-2.2a3.887,3.887,0,0,0-2.62.81,2.765,2.765,0,0,0-.94,2.21,3.175,3.175,0,0,0,.88,2.38,3.4,3.4,0,0,0,2.48.86,3.49,3.49,0,0,0,1.39-.24A3.392,3.392,0,0,0,45.58-.9V0h2.4V-6.84A3.464,3.464,0,0,0,46.92-9.59ZM45.09-2.33a1.884,1.884,0,0,1-1.41.45q-1.52,0-1.52-1.3,0-1.26,1.56-1.26h1.8v.74A1.918,1.918,0,0,1,45.09-2.33Zm6,1.39A4.336,4.336,0,0,0,54.18.12a4.274,4.274,0,0,0,3-.99,3.494,3.494,0,0,0,1.08-2.71v-.14H55.9v.12a1.42,1.42,0,0,1-.45,1.12,1.785,1.785,0,0,1-1.23.4,1.737,1.737,0,0,1-1.33-.5,2.421,2.421,0,0,1-.47-1.68V-6.14q0-2.18,1.8-2.18a1.731,1.731,0,0,1,1.23.42,1.509,1.509,0,0,1,.45,1.16v.12h2.36v-.2a3.487,3.487,0,0,0-1.08-2.72,4.3,4.3,0,0,0-3-.98,4.336,4.336,0,0,0-3.09,1.06,4.3,4.3,0,0,0-1.13,3.28v1.94A4.329,4.329,0,0,0,51.09-.94ZM63.16-8.66h2V-10.4h-2v-2.9l-2.46.86v2.04H59.26v1.74H60.7V-3a2.919,2.919,0,0,0,.83,2.19A3.083,3.083,0,0,0,63.78,0h1.18V-2.1h-.78q-1.02,0-1.02-1.06Zm5.7,4.2h6.08V-5.84a4.825,4.825,0,0,0-1.15-3.5,4.143,4.143,0,0,0-3.11-1.18,4.181,4.181,0,0,0-3.14,1.17A4.845,4.845,0,0,0,66.4-5.84v1.26a4.761,4.761,0,0,0,1.18,3.55A4.361,4.361,0,0,0,70.76.12a4.6,4.6,0,0,0,3-.9,2.923,2.923,0,0,0,1.1-2.38v-.1H72.5l-.02.06a1.126,1.126,0,0,1-.46.87,1.918,1.918,0,0,1-1.16.31,2.05,2.05,0,0,1-1.48-.5,2.231,2.231,0,0,1-.52-1.66Zm.47-3.44a1.763,1.763,0,0,1,1.35-.5q1.78,0,1.78,1.98v.26h-3.6v-.06A2.421,2.421,0,0,1,69.33-7.9Zm14.41-.42V-10.4h-7.3v2.08h4.6l-4.6,6.24V0h7.3V-2.08h-4.6ZM89.9-10.4V0h2.48V-6.48a1.863,1.863,0,0,1,.47-1.36,1.6,1.6,0,0,1,1.19-.48,1.523,1.523,0,0,1,1.18.48,1.941,1.941,0,0,1,.44,1.36V0h2.48V-6.78a4,4,0,0,0-.88-2.74,3.129,3.129,0,0,0-2.48-1,3.486,3.486,0,0,0-1.35.27,3,3,0,0,0-1.11.79v-.94ZM101.25-.94A4.336,4.336,0,0,0,104.34.12,4.271,4.271,0,0,0,107.4-.94a4.352,4.352,0,0,0,1.12-3.3V-6.18a4.322,4.322,0,0,0-1.12-3.28,4.271,4.271,0,0,0-3.06-1.06,4.336,4.336,0,0,0-3.09,1.06,4.3,4.3,0,0,0-1.13,3.28v1.94A4.329,4.329,0,0,0,101.25-.94Zm4.81-3.32q0,2.18-1.72,2.18-1.76,0-1.76-2.18V-6.14q0-2.18,1.76-2.18,1.72,0,1.72,2.18Zm4.44.06q0,4.32,4.12,4.32a4.073,4.073,0,0,0,3.1-1.08,4.562,4.562,0,0,0,1.02-3.24v-6.2h-2.48v6.08a3.365,3.365,0,0,1-.33,1.7,1.415,1.415,0,0,1-1.31.54,1.384,1.384,0,0,1-1.31-.57,3.392,3.392,0,0,1-.33-1.67V-10.4H110.5ZM121.52-.75a4.423,4.423,0,0,0,2.86.87,4.9,4.9,0,0,0,3.02-.87,2.9,2.9,0,0,0,1.16-2.47,2.677,2.677,0,0,0-.78-2.04,4.171,4.171,0,0,0-2.34-.96l-1.22-.18a2.034,2.034,0,0,1-1.01-.36.889.889,0,0,1-.31-.72.95.95,0,0,1,.4-.8,1.91,1.91,0,0,1,1.16-.3,2.054,2.054,0,0,1,1.19.3.966.966,0,0,1,.43.84v.06h2.3V-7.5a2.613,2.613,0,0,0-.49-1.55,3.236,3.236,0,0,0-1.38-1.08,5.065,5.065,0,0,0-2.05-.39,4.334,4.334,0,0,0-2.79.87,2.849,2.849,0,0,0-1.09,2.35,2.621,2.621,0,0,0,.74,2,4.335,4.335,0,0,0,2.3.96l1.1.18a2.562,2.562,0,0,1,1.14.38.877.877,0,0,1,.34.74.961.961,0,0,1-.46.87,2.4,2.4,0,0,1-1.28.29,2.1,2.1,0,0,1-1.23-.33,1.052,1.052,0,0,1-.47-.91v-.04h-2.32v.08A2.838,2.838,0,0,0,121.52-.75Z" transform="translate(21 30)"/>
      </g>
      <rect id="Rectangle_1506" data-name="Rectangle 1506" width="173" height="3" transform="matrix(0.978, -0.208, 0.208, 0.978, 325.271, 1046.782)" fill="url(#linear-gradient-5)"/>
    </g>
  </g>
</svg>
