<svg id="Composant_60_2" data-name="Composant 60 – 2" xmlns="http://www.w3.org/2000/svg" xmlns:xlink="http://www.w3.org/1999/xlink" width="367" height="271" viewBox="0 0 367 271">
  <defs>
    <linearGradient id="linear-gradient" y1="0.517" x2="1" y2="0.515" gradientUnits="objectBoundingBox">
      <stop offset="0" stop-color="#00e2fe"/>
      <stop offset="0.515" stop-color="blue"/>
      <stop offset="1" stop-color="#f0f"/>
    </linearGradient>
    <linearGradient id="linear-gradient-3" y1="0.5" x2="1" y2="0.715" gradientUnits="objectBoundingBox">
      <stop offset="0" stop-color="#00e2fe"/>
      <stop offset="0.506" stop-color="blue"/>
      <stop offset="1" stop-color="#f0f"/>
    </linearGradient>
    <linearGradient id="linear-gradient-4" x1="0" x2="1" y2="0.5" xlink:href="#linear-gradient-3"/>
    <linearGradient id="linear-gradient-5" x1="1" y1="0.5" x2="0" y2="0.5" gradientUnits="objectBoundingBox">
      <stop offset="0" stop-color="#f0f"/>
      <stop offset="0.502" stop-color="#0002ff"/>
      <stop offset="1" stop-color="aqua"/>
    </linearGradient>
  </defs>
  <rect id="Rectangle_1511" data-name="Rectangle 1511" width="366" height="73" rx="36.5" transform="translate(1)" fill="url(#linear-gradient)"/>
  <text id="Options_de_paiement_" data-name="Options de paiement " transform="translate(52 47)" fill="#fff" font-size="30" font-family="D-DIN-Bold, D-DIN DIN" font-weight="700"><tspan x="0" y="0">Options de paiement </tspan></text>
  <g id="Groupe_2204" data-name="Groupe 2204" transform="translate(-839 -400)">
    <g id="Groupe_2192" data-name="Groupe 2192" transform="translate(527 -492)">
      <rect id="Rectangle_1500" data-name="Rectangle 1500" width="367" height="271" rx="40" transform="translate(312 892)" fill="url(#linear-gradient)"/>
      <rect id="Rectangle_1501" data-name="Rectangle 1501" width="361" height="239" rx="37" transform="translate(315 895)" fill="#fff"/>
      <path id="Tracé_829" data-name="Tracé 829" d="M3.6-7.8V0h30V-8.625H15.975l12.9-16.725A26.364,26.364,0,0,0,32.4-31.2a15.879,15.879,0,0,0,1.2-6.225V-38.7a13.59,13.59,0,0,0-1.837-6.975,13.384,13.384,0,0,0-5.25-5.025A16.168,16.168,0,0,0,18.6-52.575a17.279,17.279,0,0,0-8.1,1.8,12.822,12.822,0,0,0-5.287,4.95,14.024,14.024,0,0,0-1.838,7.2v1.8H12.9v-1.2A6.774,6.774,0,0,1,14.325-42.6a4.884,4.884,0,0,1,3.9-1.65,5.113,5.113,0,0,1,3.938,1.575A6.035,6.035,0,0,1,23.625-38.4v1.05a12.352,12.352,0,0,1-2.85,7.275Zm69.825-.45v-8.625h-4.2v-12.15H59.4v12.15H49.425L64.2-51.75H54.375L39.6-16.875V-8.25H59.4V0h9.825V-8.25ZM83.588-3.638Q87.375.825,95.25.825t11.663-4.5q3.788-4.5,3.787-13.35v-18.3q0-8.55-3.787-12.9T95.25-52.575q-7.575,0-11.512,4.387T79.8-35.325v18.3Q79.8-8.1,83.588-3.638Zm16.125-6.375Q98.55-7.725,95.25-7.725q-3.225,0-4.387-2.288T89.7-17.85V-33.9q0-5.55,1.125-7.8t4.425-2.25q3.3,0,4.462,2.25t1.162,7.8v16.05Q100.875-12.3,99.713-10.013Zm22.275,6.375Q125.775.825,133.65.825t11.662-4.5q3.788-4.5,3.788-13.35v-18.3q0-8.55-3.788-12.9t-11.662-4.35q-7.575,0-11.513,4.387T118.2-35.325v18.3Q118.2-8.1,121.988-3.638Zm16.125-6.375q-1.162,2.287-4.462,2.288-3.225,0-4.387-2.288T128.1-17.85V-33.9q0-5.55,1.125-7.8t4.425-2.25q3.3,0,4.462,2.25t1.163,7.8v16.05Q139.275-12.3,138.113-10.013Zm22.9,6.983q3.3,3.69,9.48,3.69a12.952,12.952,0,0,0,8.49-2.73q3.33-2.73,3.81-8.07h-6.54a5.7,5.7,0,0,1-1.83,3.33,5.641,5.641,0,0,1-3.69,1.11,4.928,4.928,0,0,1-4.32-1.95,9.279,9.279,0,0,1-1.38-5.43v-1.38h9.48l.84-4.86H165.03v-3h10.74l.84-4.86H165.03v-1.38q0-7.08,5.64-7.08,4.5,0,5.34,4.38h6.72a11.076,11.076,0,0,0-3.6-7.89A12.519,12.519,0,0,0,170.55-42q-6.18,0-9.51,3.6t-3.33,9.78v1.44h-3.24v4.86h3.24v3h-3.24v4.86h3.24v1.32Q157.71-6.72,161.01-3.03Zm39.48-14.25V-20.7H185.97v3.42h5.28V0h3.96V-17.28Zm14.88,0V-20.7H200.85v3.42h5.28V0h3.96V-17.28Zm.78,9.27q0,8.25,7.53,8.25a7.812,7.812,0,0,0,5.43-1.785,6.532,6.532,0,0,0,1.98-5.115v-.21h-3.87v.24a3.356,3.356,0,0,1-.885,2.46,3.439,3.439,0,0,1-2.565.9A3.293,3.293,0,0,1,221-4.41a6,6,0,0,1-.885-3.66v-4.47a6.645,6.645,0,0,1,.855-3.84,3.171,3.171,0,0,1,2.745-1.17,3.477,3.477,0,0,1,2.595.93,3.437,3.437,0,0,1,.915,2.52v.18h3.93v-.21a6.453,6.453,0,0,0-2.01-5.07,7.794,7.794,0,0,0-5.4-1.8q-7.59,0-7.59,8.25Zm21.12-6.57v2.91h2.07v-2.88l2.31,1.32.96-1.62-2.43-1.38,2.4-1.38-.9-1.62-2.34,1.35V-20.7h-2.07v2.79l-2.34-1.32L234-17.61l2.4,1.38L234-14.85l.93,1.62Z" transform="translate(342 983)" fill="url(#linear-gradient-3)"/>
      <path id="Tracé_906" data-name="Tracé 906" d="M2.16-4.68V0h18V-5.175H9.585l7.74-10.035a15.819,15.819,0,0,0,2.115-3.51,9.527,9.527,0,0,0,.72-3.735v-.765a8.154,8.154,0,0,0-1.1-4.185,8.03,8.03,0,0,0-3.15-3.015,9.7,9.7,0,0,0-4.747-1.125,10.368,10.368,0,0,0-4.86,1.08A7.693,7.693,0,0,0,3.128-27.5a8.414,8.414,0,0,0-1.1,4.32v1.08H7.74v-.72A4.065,4.065,0,0,1,8.6-25.56a2.93,2.93,0,0,1,2.34-.99A3.068,3.068,0,0,1,13.3-25.6a3.621,3.621,0,0,1,.878,2.565v.63a7.411,7.411,0,0,1-1.71,4.365Zm32.31-7.875L28.035,0h6.21l7.11-13.815a24.1,24.1,0,0,0,1.507-3.667,11.827,11.827,0,0,0,.518-3.488v-1.395a8.894,8.894,0,0,0-2.543-6.75,9.776,9.776,0,0,0-7.043-2.43,9.737,9.737,0,0,0-6.953,2.475,8.991,8.991,0,0,0-2.632,6.885v1.44a8.85,8.85,0,0,0,2.183,6.322,7.626,7.626,0,0,0,5.828,2.318A5.381,5.381,0,0,0,34.47-12.555Zm2-5.513A3.447,3.447,0,0,1,33.8-17.01a3.519,3.519,0,0,1-2.7-1.057,4.213,4.213,0,0,1-.99-2.993v-1.4a4.3,4.3,0,0,1,.99-3.015,3.481,3.481,0,0,1,2.7-1.08,3.41,3.41,0,0,1,2.677,1.08,4.291,4.291,0,0,1,.967,2.97v1.485A4.206,4.206,0,0,1,36.473-18.068ZM49.928-2.183Q52.2.5,56.925.5t7-2.7q2.273-2.7,2.273-8.01V-21.2q0-5.13-2.273-7.74t-7-2.61q-4.545,0-6.908,2.632T47.655-21.2v10.98Q47.655-4.86,49.928-2.183ZM59.6-6.008a2.716,2.716,0,0,1-2.678,1.373,2.674,2.674,0,0,1-2.632-1.373,11.265,11.265,0,0,1-.7-4.7v-9.63a11.43,11.43,0,0,1,.675-4.68,2.678,2.678,0,0,1,2.655-1.35A2.728,2.728,0,0,1,59.6-25.02a11.1,11.1,0,0,1,.7,4.68v9.63A11.266,11.266,0,0,1,59.6-6.008ZM72.968-2.183Q75.24.5,79.965.5t7-2.7q2.273-2.7,2.272-8.01V-21.2q0-5.13-2.272-7.74t-7-2.61q-4.545,0-6.908,2.632T70.7-21.2v10.98Q70.7-4.86,72.968-2.183Zm9.675-3.825a2.716,2.716,0,0,1-2.677,1.373,2.674,2.674,0,0,1-2.633-1.373,11.265,11.265,0,0,1-.7-4.7v-9.63a11.43,11.43,0,0,1,.675-4.68,2.678,2.678,0,0,1,2.655-1.35,2.728,2.728,0,0,1,2.677,1.35,11.1,11.1,0,0,1,.7,4.68v9.63A11.266,11.266,0,0,1,82.643-6.008ZM95.565-1.515A6.028,6.028,0,0,0,100.305.33a6.476,6.476,0,0,0,4.245-1.365,5.6,5.6,0,0,0,1.9-4.035h-3.27A2.85,2.85,0,0,1,102.27-3.4a2.821,2.821,0,0,1-1.845.555,2.464,2.464,0,0,1-2.16-.975,4.639,4.639,0,0,1-.69-2.715v-.69h4.74l.42-2.43h-5.16v-1.5h5.37l.42-2.43h-5.79v-.69q0-3.54,2.82-3.54a2.446,2.446,0,0,1,2.67,2.19h3.36a5.538,5.538,0,0,0-1.8-3.945A6.259,6.259,0,0,0,100.335-21a6.156,6.156,0,0,0-4.755,1.8,6.92,6.92,0,0,0-1.665,4.89v.72H92.3v2.43h1.62v1.5H92.3v2.43h1.62v.66A7.31,7.31,0,0,0,95.565-1.515Zm22.19-10.005V-13.8h-9.68v2.28h3.52V0h2.64V-11.52Zm9.92,0V-13.8H118v2.28h3.52V0h2.64V-11.52Zm.52,6.18q0,5.5,5.02,5.5a5.208,5.208,0,0,0,3.62-1.19,4.355,4.355,0,0,0,1.32-3.41v-.14h-2.58v.16a2.238,2.238,0,0,1-.59,1.64,2.293,2.293,0,0,1-1.71.6,2.2,2.2,0,0,1-1.85-.76,4,4,0,0,1-.59-2.44V-8.36a4.43,4.43,0,0,1,.57-2.56,2.114,2.114,0,0,1,1.83-.78,2.318,2.318,0,0,1,1.73.62,2.291,2.291,0,0,1,.61,1.68v.12h2.62v-.14a4.3,4.3,0,0,0-1.34-3.38,5.2,5.2,0,0,0-3.6-1.2q-5.06,0-5.06,5.5Z" transform="translate(342 1047)"/>
      <g id="Composant_50_3" data-name="Composant 50 – 3" transform="translate(342 1064)">
        <rect id="Rectangle_1493" data-name="Rectangle 1493" width="185" height="45" rx="22.5" fill="url(#linear-gradient-4)"/>
        <rect id="Rectangle_50" data-name="Rectangle 50" width="181" height="41" rx="20.5" transform="translate(2 2)" fill="#fff"/>
        <path id="Tracé_907" data-name="Tracé 907" d="M9.65-12.64A4.584,4.584,0,0,0,6.34-13.8H1.18V0H3.8V-5.24H6.34A4.608,4.608,0,0,0,9.65-6.39a4.037,4.037,0,0,0,1.21-3.07A4.2,4.2,0,0,0,9.65-12.64ZM7.7-8.04a2.094,2.094,0,0,1-1.48.5H3.8v-3.98H6.22a2.015,2.015,0,0,1,1.49.53,2.071,2.071,0,0,1,.53,1.53A1.839,1.839,0,0,1,7.7-8.04ZM19.04-9.59A4.47,4.47,0,0,0,16-10.52a4.292,4.292,0,0,0-2.8.85,2.825,2.825,0,0,0-1.04,2.31v.08h2.3v-.06a1.162,1.162,0,0,1,.41-.93,1.653,1.653,0,0,1,1.11-.35,1.467,1.467,0,0,1,1.66,1.66v.82h-2.2a3.887,3.887,0,0,0-2.62.81,2.765,2.765,0,0,0-.94,2.21,3.175,3.175,0,0,0,.88,2.38,3.4,3.4,0,0,0,2.48.86,3.49,3.49,0,0,0,1.39-.24A3.392,3.392,0,0,0,17.7-.9V0h2.4V-6.84A3.464,3.464,0,0,0,19.04-9.59ZM17.21-2.33a1.884,1.884,0,0,1-1.41.45q-1.52,0-1.52-1.3,0-1.26,1.56-1.26h1.8v.74A1.918,1.918,0,0,1,17.21-2.33ZM30.34-10.4H27.8L25.72-3.86,23.68-10.4H21.06L24.58-.28l-.04.14a1.5,1.5,0,0,1-.47.79,1.524,1.524,0,0,1-.89.21H22.4V3.08h.86a3.43,3.43,0,0,0,1.99-.52A3.244,3.244,0,0,0,26.4.9Zm3.14,5.94h6.08V-5.84a4.825,4.825,0,0,0-1.15-3.5,4.143,4.143,0,0,0-3.11-1.18,4.181,4.181,0,0,0-3.14,1.17,4.845,4.845,0,0,0-1.14,3.51v1.26A4.761,4.761,0,0,0,32.2-1.03,4.361,4.361,0,0,0,35.38.12a4.6,4.6,0,0,0,3-.9,2.923,2.923,0,0,0,1.1-2.38v-.1H37.12l-.02.06a1.126,1.126,0,0,1-.46.87,1.918,1.918,0,0,1-1.16.31A2.05,2.05,0,0,1,34-2.52a2.231,2.231,0,0,1-.52-1.66Zm.47-3.44a1.763,1.763,0,0,1,1.35-.5q1.78,0,1.78,1.98v.26h-3.6v-.06A2.421,2.421,0,0,1,33.95-7.9Zm7.59-2.5V0h2.48V-6.24a2.254,2.254,0,0,1,.55-1.63,1.923,1.923,0,0,1,1.45-.57,4.2,4.2,0,0,1,1.24.22v-2.32a4.084,4.084,0,0,0-.84-.08,3.175,3.175,0,0,0-1.44.32,2.4,2.4,0,0,0-1.02.98V-10.4ZM55.26-4.46h6.08V-5.84a4.825,4.825,0,0,0-1.15-3.5,4.143,4.143,0,0,0-3.11-1.18,4.181,4.181,0,0,0-3.14,1.17A4.845,4.845,0,0,0,52.8-5.84v1.26a4.761,4.761,0,0,0,1.18,3.55A4.361,4.361,0,0,0,57.16.12a4.6,4.6,0,0,0,3-.9,2.923,2.923,0,0,0,1.1-2.38v-.1H58.9l-.02.06a1.126,1.126,0,0,1-.46.87,1.918,1.918,0,0,1-1.16.31,2.05,2.05,0,0,1-1.48-.5,2.231,2.231,0,0,1-.52-1.66Zm.47-3.44a1.763,1.763,0,0,1,1.35-.5q1.78,0,1.78,1.98v.26h-3.6v-.06A2.421,2.421,0,0,1,55.73-7.9Zm7.59-2.5V0H65.8V-6.48a1.863,1.863,0,0,1,.47-1.36,1.6,1.6,0,0,1,1.19-.48,1.523,1.523,0,0,1,1.18.48,1.941,1.941,0,0,1,.44,1.36V0h2.48V-6.78a4,4,0,0,0-.88-2.74,3.129,3.129,0,0,0-2.48-1,3.486,3.486,0,0,0-1.35.27,3,3,0,0,0-1.11.79v-.94ZM77.9-4.2Q77.9.12,82.02.12a4.073,4.073,0,0,0,3.1-1.08A4.562,4.562,0,0,0,86.14-4.2v-6.2H83.66v6.08a3.365,3.365,0,0,1-.33,1.7,1.415,1.415,0,0,1-1.31.54,1.384,1.384,0,0,1-1.31-.57,3.392,3.392,0,0,1-.33-1.67V-10.4H77.9Zm10.4-6.2V0h2.48V-6.48a1.863,1.863,0,0,1,.47-1.36,1.6,1.6,0,0,1,1.19-.48,1.523,1.523,0,0,1,1.18.48,1.941,1.941,0,0,1,.44,1.36V0h2.48V-6.78a4,4,0,0,0-.88-2.74,3.129,3.129,0,0,0-2.48-1,3.486,3.486,0,0,0-1.35.27,3,3,0,0,0-1.11.79v-.94Zm12.68,5.94h6.08V-5.84a4.825,4.825,0,0,0-1.15-3.5,4.143,4.143,0,0,0-3.11-1.18,4.181,4.181,0,0,0-3.14,1.17,4.845,4.845,0,0,0-1.14,3.51v1.26A4.761,4.761,0,0,0,99.7-1.03,4.361,4.361,0,0,0,102.88.12a4.6,4.6,0,0,0,3-.9,2.923,2.923,0,0,0,1.1-2.38v-.1h-2.36l-.02.06a1.126,1.126,0,0,1-.46.87,1.918,1.918,0,0,1-1.16.31,2.05,2.05,0,0,1-1.48-.5,2.231,2.231,0,0,1-.52-1.66Zm.47-3.44a1.763,1.763,0,0,1,1.35-.5q1.78,0,1.78,1.98v.26h-3.6v-.06A2.421,2.421,0,0,1,101.45-7.9Zm15.32-3.97a1.08,1.08,0,0,1,.79-.25h.82V-13.8h-1.44a2.928,2.928,0,0,0-2.13.73,2.729,2.729,0,0,0-.75,2.05v.62h-1.1v1.74h1.1V0h2.46V-8.66h1.86V-10.4h-1.86v-.72A1.019,1.019,0,0,1,116.77-11.87ZM120.35-.94A4.336,4.336,0,0,0,123.44.12,4.271,4.271,0,0,0,126.5-.94a4.352,4.352,0,0,0,1.12-3.3V-6.18a4.322,4.322,0,0,0-1.12-3.28,4.271,4.271,0,0,0-3.06-1.06,4.336,4.336,0,0,0-3.09,1.06,4.3,4.3,0,0,0-1.13,3.28v1.94A4.329,4.329,0,0,0,120.35-.94Zm4.81-3.32q0,2.18-1.72,2.18-1.76,0-1.76-2.18V-6.14q0-2.18,1.76-2.18,1.72,0,1.72,2.18Zm4.54-6.14V0h2.46V-10.4Zm-.04-3.4v1.98h2.52V-13.8ZM135.04-.75a4.423,4.423,0,0,0,2.86.87,4.9,4.9,0,0,0,3.02-.87,2.9,2.9,0,0,0,1.16-2.47,2.677,2.677,0,0,0-.78-2.04,4.171,4.171,0,0,0-2.34-.96l-1.22-.18a2.034,2.034,0,0,1-1.01-.36.889.889,0,0,1-.31-.72.95.95,0,0,1,.4-.8,1.91,1.91,0,0,1,1.16-.3,2.054,2.054,0,0,1,1.19.3.966.966,0,0,1,.43.84v.06h2.3V-7.5a2.613,2.613,0,0,0-.49-1.55,3.236,3.236,0,0,0-1.38-1.08,5.065,5.065,0,0,0-2.05-.39,4.334,4.334,0,0,0-2.79.87A2.849,2.849,0,0,0,134.1-7.3a2.621,2.621,0,0,0,.74,2,4.335,4.335,0,0,0,2.3.96l1.1.18a2.562,2.562,0,0,1,1.14.38.877.877,0,0,1,.34.74.961.961,0,0,1-.46.87,2.394,2.394,0,0,1-1.28.29,2.1,2.1,0,0,1-1.23-.33,1.052,1.052,0,0,1-.47-.91v-.04h-2.32v.08A2.838,2.838,0,0,0,135.04-.75Z" transform="translate(21 30)"/>
      </g>
      <rect id="Rectangle_1506" data-name="Rectangle 1506" width="173" height="3" transform="matrix(0.978, -0.208, 0.208, 0.978, 325.271, 1046.782)" fill="url(#linear-gradient-5)"/>
    </g>
  </g>
</svg>
