<svg xmlns="http://www.w3.org/2000/svg" width="89.999" height="90" viewBox="0 0 89.999 90">
  <g id="Groupe_866" data-name="Groupe 866" transform="translate(0 0.002)">
    <path id="Tracé_297" data-name="Tracé 297" d="M75.659,0A14.341,14.341,0,0,1,90,14.34V75.657A14.342,14.342,0,0,1,75.659,90H14.341A14.342,14.342,0,0,1,0,75.657V14.34A14.342,14.342,0,0,1,14.341,0Z" transform="translate(0 0)" fill="#fffc00"/>
    <g id="Groupe_865" data-name="Groupe 865" transform="translate(11.26 13.37)">
      <g id="Groupe_864" data-name="Groupe 864">
        <g id="Groupe_863" data-name="Groupe 863">
          <path id="Tracé_298" data-name="Tracé 298" d="M90.724,129.334c-.17,0-.337,0-.5-.013h0c-.106.008-.218.013-.329.013-3.9,0-6.411-1.771-8.834-3.485a12.885,12.885,0,0,0-5.113-2.608,16.5,16.5,0,0,0-2.685-.227,18.361,18.361,0,0,0-3.72.42,8.155,8.155,0,0,1-1.387.2.873.873,0,0,1-.963-.688c-.155-.526-.266-1.035-.373-1.527-.277-1.268-.473-2.047-1-2.129-6.193-.956-7.965-2.261-8.36-3.186a1.187,1.187,0,0,1-.1-.4.7.7,0,0,1,.583-.727c9.52-1.567,13.789-11.3,13.966-11.71l.015-.034a3.626,3.626,0,0,0,.34-3.046c-.653-1.539-2.784-2.216-4.194-2.663-.345-.109-.672-.212-.93-.314C64.32,96.1,64.086,94.959,64.2,94.377a2.659,2.659,0,0,1,2.586-1.683,1.812,1.812,0,0,1,.77.154,8.2,8.2,0,0,0,3.392.894,2.8,2.8,0,0,0,2.027-.647c-.035-.644-.077-1.317-.121-2.011-.283-4.5-.635-10.092.789-13.285a17.222,17.222,0,0,1,15.99-10.311l1.171-.012h.158a17.252,17.252,0,0,1,16.018,10.318c1.424,3.194,1.072,8.791.788,13.288l-.012.2c-.039.626-.077,1.235-.109,1.818a2.712,2.712,0,0,0,1.847.642h0a8.487,8.487,0,0,0,3.2-.888,2.412,2.412,0,0,1,.993-.2,3.033,3.033,0,0,1,1.142.218l.02.008a2.1,2.1,0,0,1,1.6,1.709c.012.66-.491,1.651-2.96,2.626-.256.1-.583.2-.929.314-1.412.448-3.542,1.124-4.195,2.663a3.624,3.624,0,0,0,.34,3.045c.005.011.011.022.015.035.177.413,4.442,10.139,13.967,11.708a.7.7,0,0,1,.583.727,1.171,1.171,0,0,1-.1.4c-.393.919-2.164,2.221-8.359,3.179-.506.078-.7.737-1,2.12-.11.5-.221,1-.374,1.517a.828.828,0,0,1-.886.662h-.077a7.749,7.749,0,0,1-1.386-.175,18.5,18.5,0,0,0-3.721-.394,16.513,16.513,0,0,0-2.686.227,12.868,12.868,0,0,0-5.107,2.6C97.136,127.563,94.63,129.334,90.724,129.334Z" transform="translate(-56.654 -66.777)" fill="#fff"/>
          <path id="Tracé_299" data-name="Tracé 299" d="M88.305,65.521a16.548,16.548,0,0,1,15.382,9.9c1.354,3.037,1.008,8.539.729,12.96-.044.7-.087,1.38-.122,2.03l-.015.279.187.208a3.314,3.314,0,0,0,2.345.881h.052a9.146,9.146,0,0,0,3.47-.954,1.687,1.687,0,0,1,.7-.13,2.334,2.334,0,0,1,.88.167l.039.016c.664.232,1.134.672,1.142,1.068,0,.226-.165,1.034-2.519,1.963-.23.091-.533.187-.884.3-1.532.487-3.847,1.221-4.626,3.056a4.283,4.283,0,0,0,.357,3.627c.278.649,4.651,10.5,14.495,12.123a.449.449,0,0,1-.04.157c-.167.393-1.228,1.75-7.825,2.768-1.033.159-1.286,1.316-1.58,2.662-.1.481-.213.966-.362,1.469-.045.152-.053.161-.217.161h-.077a7.307,7.307,0,0,1-1.253-.162,19.309,19.309,0,0,0-3.855-.407,17.173,17.173,0,0,0-2.8.236,13.393,13.393,0,0,0-5.4,2.726c-2.335,1.651-4.749,3.357-8.432,3.357-.16,0-.317-.005-.475-.013l-.041,0-.042,0c-.09.008-.181.011-.275.011-3.683,0-6.1-1.706-8.432-3.357a13.383,13.383,0,0,0-5.4-2.727,17.175,17.175,0,0,0-2.8-.236,18.991,18.991,0,0,0-3.855.433,7.822,7.822,0,0,1-1.252.187c-.239,0-.244-.014-.294-.186-.148-.5-.256-1-.361-1.482-.294-1.346-.548-2.509-1.58-2.669-6.6-1.019-7.658-2.379-7.826-2.771a.457.457,0,0,1-.04-.16C65.24,111.4,69.613,101.547,69.891,100.9a4.281,4.281,0,0,0,.357-3.627c-.779-1.836-3.094-2.57-4.626-3.057-.351-.111-.654-.207-.885-.3-1.989-.786-2.6-1.577-2.509-2.057.105-.553,1.064-1.115,1.9-1.115a1.138,1.138,0,0,1,.475.087,8.889,8.889,0,0,0,3.687.96,3.4,3.4,0,0,0,2.554-.887l.186-.207-.015-.278c-.035-.649-.077-1.328-.122-2.028-.278-4.421-.625-9.919.73-12.957a16.528,16.528,0,0,1,15.353-9.9l1.178-.011h.152m0-1.4h-.167l-1.165.011A17.91,17.91,0,0,0,70.347,74.864c-1.493,3.348-1.135,9.035-.848,13.6.034.539.07,1.1.1,1.639a2.684,2.684,0,0,1-1.309.285,7.52,7.52,0,0,1-3.1-.828,2.5,2.5,0,0,0-1.067-.219c-1.373,0-3.016.9-3.272,2.25-.184.97.25,2.384,3.367,3.615.281.111.62.218.977.331,1.288.409,3.234,1.027,3.763,2.271a2.988,2.988,0,0,1-.324,2.465c-.011.022-.021.045-.031.068-.171.4-4.291,9.79-13.438,11.3A1.4,1.4,0,0,0,54,113.1a1.877,1.877,0,0,0,.149.627c.686,1.6,3.583,2.781,8.856,3.6a6.553,6.553,0,0,1,.472,1.593c.11.506.224,1.028.386,1.579a1.56,1.56,0,0,0,1.633,1.188,8.476,8.476,0,0,0,1.52-.214,17.779,17.779,0,0,1,3.587-.407,15.784,15.784,0,0,1,2.572.217A12.2,12.2,0,0,1,78,123.768c2.4,1.7,5.112,3.614,9.239,3.614.113,0,.227,0,.34-.012.134.006.308.012.493.012,4.128,0,6.843-1.919,9.238-3.613a12.2,12.2,0,0,1,4.824-2.489,15.756,15.756,0,0,1,2.571-.217,17.894,17.894,0,0,1,3.587.381,8.423,8.423,0,0,0,1.52.188h.077a1.517,1.517,0,0,0,1.556-1.166c.159-.539.273-1.048.385-1.563a6.5,6.5,0,0,1,.47-1.586c5.274-.819,8.17-1.993,8.855-3.591a1.857,1.857,0,0,0,.151-.63,1.4,1.4,0,0,0-1.166-1.454c-9.151-1.508-13.268-10.9-13.439-11.3-.01-.023-.02-.046-.031-.068a2.985,2.985,0,0,1-.323-2.464c.528-1.244,2.474-1.862,3.762-2.27.36-.114.7-.222.977-.332,2.281-.9,3.426-2.007,3.4-3.288a2.73,2.73,0,0,0-2.049-2.349h0a3.745,3.745,0,0,0-1.4-.269,3.105,3.105,0,0,0-1.289.261,7.855,7.855,0,0,1-2.9.823,2.578,2.578,0,0,1-1.13-.281c.026-.464.056-.941.087-1.44l.012-.194c.289-4.573.647-10.265-.848-13.615A17.939,17.939,0,0,0,88.305,64.126Z" transform="translate(-54.001 -64.126)" fill="#030303"/>
        </g>
      </g>
    </g>
  </g>
</svg>
