<svg xmlns="http://www.w3.org/2000/svg" width="90" height="90" viewBox="0 0 90 90">
  <g id="Groupe_884" data-name="Groupe 884" transform="translate(-487.149 -386.596)">
    <path id="Tracé_325" data-name="Tracé 325" d="M566.149,386.6h-68a11,11,0,0,0-11,11v68a11,11,0,0,0,11,11h68a11,11,0,0,0,11-11v-68A11,11,0,0,0,566.149,386.6Z"/>
    <g id="页面1-6">
      <g id="编组-2">
        <path id="路径-7" d="M526.661,425.623v-2.192a16.26,16.26,0,0,0-2.3-.2,17.05,17.05,0,0,0-9.774,31.046,17.033,17.033,0,0,1,12.074-28.657Z" fill="#25f4ee"/>
        <path id="path841" d="M527.074,450.453a7.8,7.8,0,0,0,7.78-7.456V405.824h6.791a12.7,12.7,0,0,1-.2-2.353h-9.288v37.136a7.8,7.8,0,0,1-7.78,7.51,7.893,7.893,0,0,1-3.593-.9A7.8,7.8,0,0,0,527.074,450.453Z" fill="#25f4ee"/>
        <path id="path843" d="M554.329,418.437v-2.066a12.688,12.688,0,0,1-7.025-2.12A12.889,12.889,0,0,0,554.329,418.437Z" fill="#25f4ee"/>
        <path id="path845" d="M547.3,414.251a12.8,12.8,0,0,1-3.18-8.445h-2.479A12.867,12.867,0,0,0,547.3,414.251Z" fill="#fe2c55"/>
        <path id="path847" d="M524.361,432.523a7.8,7.8,0,0,0-3.593,14.7,7.78,7.78,0,0,1,6.306-12.343,8.228,8.228,0,0,1,2.3.359v-9.45a16.4,16.4,0,0,0-2.3-.18h-.413v7.187A7.969,7.969,0,0,0,524.361,432.523Z" fill="#fe2c55"/>
        <path id="path849" d="M554.329,418.437v7.186a22.044,22.044,0,0,1-12.882-4.186V440.32a17.086,17.086,0,0,1-17.086,17.05,16.908,16.908,0,0,1-9.774-3.09,17.05,17.05,0,0,0,29.537-11.606V423.845a22.08,22.08,0,0,0,12.9,4.132v-9.253A13.194,13.194,0,0,1,554.329,418.437Z" fill="#fe2c55"/>
        <path id="path851" d="M541.447,440.32V421.437a22.043,22.043,0,0,0,12.9,4.132v-7.186a20.554,20.554,0,0,1-12.7-12.577h-6.791V443a9.366,9.366,0,1,1-10.511-10.439,7.976,7.976,0,0,1,2.3.36v-7.187a15.861,15.861,0,1,0,14.8,14.589Z" fill="#fff"/>
      </g>
    </g>
  </g>
</svg>
