<svg xmlns="http://www.w3.org/2000/svg" width="90" height="90" viewBox="0 0 90 90">
  <g id="Groupe_882" data-name="Groupe 882" transform="translate(-454 -327.333)">
    <g id="Dark_Blue" data-name="Dark Blue">
      <rect id="Rectangle_458" data-name="Rectangle 458" width="90" height="90" rx="11" transform="translate(454 327.333)" fill="#1da1f2"/>
    </g>
    <g id="Logo_FIXED" data-name="Logo — FIXED">
      <path id="Tracé_322" data-name="Tracé 322" d="M488.565,395.191c21.228,0,32.836-17.586,32.836-32.836,0-.5-.01-1-.033-1.492a23.479,23.479,0,0,0,5.757-5.975A23.051,23.051,0,0,1,520.5,356.7a11.587,11.587,0,0,0,5.074-6.384,23.128,23.128,0,0,1-7.328,2.8,11.55,11.55,0,0,0-19.666,10.525,32.762,32.762,0,0,1-23.788-12.058A11.55,11.55,0,0,0,478.363,367a11.443,11.443,0,0,1-5.227-1.444c0,.049,0,.1,0,.147a11.547,11.547,0,0,0,9.259,11.315,11.6,11.6,0,0,1-3.042.4,11.478,11.478,0,0,1-2.17-.208,11.554,11.554,0,0,0,10.781,8.016,23.335,23.335,0,0,1-17.086,4.78,32.674,32.674,0,0,0,17.69,5.184" fill="#fff"/>
    </g>
  </g>
</svg>
