<svg xmlns="http://www.w3.org/2000/svg" width="90" height="90" viewBox="0 0 90 90">
  <g id="Groupe_874" data-name="Groupe 874" transform="translate(0 -0.249)">
    <g id="Dark_Blue" data-name="Dark Blue" transform="translate(0 0.249)">
      <circle id="Ellipse_1" data-name="Ellipse 1" cx="45" cy="45" r="45" transform="translate(0 0)" fill="#1da1f2"/>
    </g>
    <g id="Logo_FIXED" data-name="Logo — FIXED" transform="translate(20.1 25.795)">
      <path id="Tracé_311" data-name="Tracé 311" d="M106.1,157.4c19.917,0,30.808-16.5,30.808-30.808,0-.469-.009-.936-.031-1.4a22.03,22.03,0,0,0,5.4-5.606,21.617,21.617,0,0,1-6.218,1.7,10.867,10.867,0,0,0,4.761-5.99,21.7,21.7,0,0,1-6.875,2.628,10.838,10.838,0,0,0-18.453,9.875A30.741,30.741,0,0,1,93.173,116.49a10.837,10.837,0,0,0,3.352,14.455,10.75,10.75,0,0,1-4.9-1.354c0,.045,0,.09,0,.138a10.833,10.833,0,0,0,8.687,10.616,10.808,10.808,0,0,1-4.89.186,10.84,10.84,0,0,0,10.115,7.521,21.727,21.727,0,0,1-13.448,4.635,22.051,22.051,0,0,1-2.583-.15,30.655,30.655,0,0,0,16.6,4.864" transform="translate(-89.5 -114.507)" fill="#fff"/>
    </g>
  </g>
</svg>
