<svg xmlns="http://www.w3.org/2000/svg" width="90" height="90" viewBox="0 0 90 90">
  <g id="Groupe_887" data-name="Groupe 887" transform="translate(-1248 -2105)">
    <rect id="Rectangle_449" data-name="Rectangle 449" width="90" height="90" rx="11" transform="translate(1248 2105)" fill="red"/>
    <g id="Groupe_870" data-name="Groupe 870" transform="translate(1631.601 1954.761)">
      <path id="Tracé_305" data-name="Tracé 305" d="M-309.85,180.8a7.515,7.515,0,0,0-5.3-5.305c-4.68-1.254-23.444-1.254-23.444-1.254s-18.764,0-23.444,1.254a7.516,7.516,0,0,0-5.3,5.305c-1.254,4.679-1.254,14.443-1.254,14.443s0,9.763,1.254,14.443a7.515,7.515,0,0,0,5.3,5.3c4.68,1.254,23.444,1.254,23.444,1.254s18.763,0,23.444-1.254a7.514,7.514,0,0,0,5.3-5.3c1.254-4.68,1.254-14.443,1.254-14.443S-308.6,185.477-309.85,180.8Z" fill="#fff"/>
      <path id="Tracé_306" data-name="Tracé 306" d="M-335.579,208.752l15.589-9-15.589-9Z" transform="translate(-9.02 -4.51)" fill="red"/>
    </g>
  </g>
</svg>
