<svg xmlns="http://www.w3.org/2000/svg" width="90" height="90" viewBox="0 0 90 90">
  <g id="Groupe_871" data-name="Groupe 871" transform="translate(372.351 -158.134)">
    <rect id="Rectangle_449" data-name="Rectangle 449" width="90" height="90" transform="translate(-372.351 158.134)" fill="red"/>
    <g id="Groupe_870" data-name="Groupe 870">
      <path id="Tracé_305" data-name="Tracé 305" d="M-287.771,183.263a10.339,10.339,0,0,0-7.3-7.3c-6.439-1.725-32.254-1.725-32.254-1.725s-25.816,0-32.255,1.725a10.341,10.341,0,0,0-7.3,7.3c-1.725,6.438-1.725,19.871-1.725,19.871s0,13.432,1.725,19.871a10.339,10.339,0,0,0,7.3,7.3c6.439,1.725,32.255,1.725,32.255,1.725s25.815,0,32.254-1.725a10.337,10.337,0,0,0,7.3-7.3c1.725-6.439,1.725-19.871,1.725-19.871S-286.046,189.7-287.771,183.263Z" fill="#fff"/>
      <path id="Tracé_306" data-name="Tracé 306" d="M-335.579,215.517l21.448-12.383-21.448-12.384Z" fill="red"/>
    </g>
  </g>
</svg>
