<svg id="Composant_9_1" data-name="Composant 9 – 1" xmlns="http://www.w3.org/2000/svg" width="71.693" height="50.186" viewBox="0 0 71.693 50.186">
  <path id="Tracé_67" data-name="Tracé 67" d="M-1254.246,2014.4a8.98,8.98,0,0,0-6.339-6.338c-5.591-1.5-28.01-1.5-28.01-1.5s-22.419,0-28.01,1.5a8.98,8.98,0,0,0-6.339,6.338c-1.5,5.591-1.5,17.256-1.5,17.256s0,11.665,1.5,17.256a8.978,8.978,0,0,0,6.339,6.338c5.591,1.5,28.01,1.5,28.01,1.5s22.419,0,28.01-1.5a8.978,8.978,0,0,0,6.339-6.338c1.5-5.591,1.5-17.256,1.5-17.256S-1252.748,2019.992-1254.246,2014.4Z" transform="translate(1324.441 -2006.565)" fill="#282828"/>
  <path id="Tracé_68" data-name="Tracé 68" d="M-1275.847,2052.35v-21.488l18.608,10.744Z" transform="translate(1304.534 -2016.513)" fill="#fff"/>
</svg>
